ply
format ascii 1.0
comment Created in Blender version 4.1.1
element vertex 220
property float x
property float y
property float z
property float nx
property float ny
property float nz
property float u
property float v
element face 380
property list uchar uint vertex_indices
end_header
1.6897333 1.8789492 -2.974905 0.72848594 -0.51619464 -0.45039013 0.072187 0.49314398
1.7519186 1.9856033 -3.032228 0.47406238 -0.7291893 -0.49350575 0.097347 0.45914203
1.8021514 1.9540024 -2.9395962 0.29756415 -0.80230594 -0.5174561 0.071022 0.449687
1.8343465 2.0055923 -3.027564 -0.158373 -0.88067627 -0.44646078 0.09699 0.43617398
1.8810556 1.9665108 -2.966549 -0.4100037 -0.8590601 -0.30645183 0.075577 0.42455602
1.9483783 1.905406 -2.9302912 -0.71774155 -0.6862221 -0.11809448 0.058546 0.40600598
1.9092424 1.9709988 -3.0735812 -0.70687497 -0.69040465 -0.1538478 0.108669 0.411003
1.6122935 1.7435417 -3.00635 0.9398994 -0.20797949 -0.27080184 0.075564 0.54117
1.6225402 1.8530588 -3.086194 0.8607814 -0.3527251 -0.36693382 0.105797 0.519531
1.6788986 1.9397945 -3.069977 0.71176404 -0.5572406 -0.4276387 0.104131 0.48543298
1.7876213 2.0394897 -3.086567 0.23496443 -0.8554468 -0.46152192 0.116654 0.44861197
1.7023685 2.0176554 -3.149847 0.58603317 -0.71683306 -0.37777704 0.130444 0.47054
1.9921682 1.85989 -3.0350242 -0.8608171 -0.5087366 -0.013455184 0.087054 0.37610102
2.0258772 1.7687169 -3.0913582 -0.986788 -0.14901479 0.0635933 0.093673 0.34246802
2.0325754 1.7721605 -3.0151172 -0.9671309 -0.23561925 0.09561029 0.070266 0.34565097
1.5904453 1.6391764 -3.081736 0.97858167 0.16159128 -0.12753919 0.090889 0.5825
1.5973094 1.6351242 -2.999127 0.9946127 0.06667462 -0.079373054 0.066187 0.579641
1.8396633 2.0407352 -3.096769 -0.3677684 -0.8495724 -0.3781179 0.118079 0.43631297
1.5789936 1.7525483 -3.132968 0.95991635 -0.10022652 -0.26175407 0.113153 0.552056
1.6197894 1.5581713 -3.029792 0.8719365 0.48933718 -0.016609246 0.068633 0.61398196
1.9863656 1.8752862 -3.151313 -0.87309134 -0.48436302 0.055713095 0.120727 0.36866897
2.0341833 1.680645 -3.043807 -0.96226734 0.14946415 0.22738092 0.071941 0.31016397
1.6314595 1.5412189 -3.096744 0.7689127 0.63717574 -0.052729968 0.090064 0.625417
1.8576663 2.045539 -3.147623 -0.61656666 -0.7686858 -0.17019884 0.132858 0.43127698
1.6332452 1.933941 -3.1450582 0.78466386 -0.4697628 -0.40450665 0.127259 0.496907
2.0164082 1.6662608 -3.093093 -0.91312397 0.31354797 0.26056162 0.088726 0.30729198
1.9316652 1.5275221 -3.049385 -0.3668577 0.9022298 0.2267087 0.080362 0.75646
1.8123653 1.4789677 -3.0492039 -0.21736467 0.95602167 0.1969142 0.069647 0.71296
1.8981764 1.5004101 -3.005206 -0.36236653 0.89135987 0.27233815 0.059881 0.742792
1.7999623 2.068984 -3.146456 0.046762355 -0.9448588 -0.32412198 0.132543 0.444942
1.9847386 1.588995 -3.073832 -0.7401784 0.5790684 0.34178305 0.079252 0.276783
1.9021862 1.9949323 -3.1951542 -0.7960327 -0.602638 0.05620747 0.142632 0.410042
2.0246775 1.7863504 -3.1590142 -0.97806776 -0.19324878 0.07770742 0.114599 0.346166
2.0169423 1.7022268 -3.138087 -0.9670201 0.23996894 0.08536487 0.103473 0.31995398
1.6054642 1.5698911 -3.1569562 0.86189276 0.5051524 -0.044293232 0.11176 0.614491
1.9316652 1.5275221 -3.049385 -0.60480285 0.6842196 0.4075011 0.073842 0.24828202
1.8825686 1.5195514 -3.108869 -0.655029 0.7243913 0.2149284 0.100522 0.23235601
1.7663114 1.4846126 -3.114709 -0.034853008 0.9990869 0.024710048 0.092988 0.689465
1.6928046 1.4934607 -3.059467 0.401376 0.91567326 -0.020967899 0.073456 0.658424
1.8825686 1.5195514 -3.108869 -0.3850656 0.91305643 0.13435964 0.095023 0.732207
1.7738054 2.0796824 -3.2014 0.1324724 -0.98161846 -0.13739084 0.143585 0.44831002
1.6999872 2.0532637 -3.227254 0.53894395 -0.81466204 -0.21416147 0.147166 0.467748
1.5669215 1.6565248 -3.221064 0.9505928 0.29161274 -0.10646704 0.140775 0.584358
1.9697592 1.6019746 -3.126619 -0.7722565 0.59528565 0.22193441 0.100247 0.27744102
1.8356984 2.0714474 -3.1918359 -0.44409087 -0.8959804 0.0015220349 0.142336 0.438146
1.9856894 1.6345807 -3.181944 -0.84685814 0.4907709 0.20487846 0.119166 0.29080802
2.0214841 1.7280847 -3.18978 -0.95851797 0.13470666 0.25119206 0.122318 0.32346702
1.5489995 1.7628328 -3.240669 0.9761101 -0.022201233 -0.21613917 0.146002 0.55264497
1.6619742 1.5106279 -3.161179 0.5124888 0.85351336 0.09418206 0.11742 0.653774
1.6904132 1.4941045 -3.123239 0.37541202 0.9267713 0.012684719 0.100516 0.661371
1.8227422 1.4934503 -3.158703 -0.29393953 0.9470941 0.12888853 0.110514 0.71248996
1.6195214 1.9807502 -3.259277 0.7985228 -0.5794106 -0.16323256 0.157381 0.49481702
1.6185296 1.9586173 -3.1994162 0.7994282 -0.52298635 -0.2956345 0.145584 0.496606
1.5784662 1.8721524 -3.215354 0.9105132 -0.31460375 -0.26830974 0.146398 0.51780903
1.9582856 1.892912 -3.238429 -0.84842676 -0.3494815 0.39753595 0.148343 0.371431
1.9070356 1.5423728 -3.170393 -0.71343726 0.69693667 0.07270846 0.11987 0.24662
1.9070356 1.5423728 -3.170393 -0.4835192 0.8175833 0.3126767 0.114643 0.744823
1.7434924 1.4842626 -3.170314 0.06269017 0.96799856 0.24299954 0.117345 0.687021
2.0067084 1.8013335 -3.216435 -0.8332977 -0.20427758 0.5136979 0.136766 0.346977
1.6247785 1.5564224 -3.25065 0.64276606 0.7643835 0.050693106 0.155738 0.62782097
1.7599375 2.079795 -3.261063 0.06856881 -0.99743277 -0.020646643 0.155075 0.452757
1.8394644 2.055604 -3.249568 -0.5686246 -0.8137038 0.12063256 0.154533 0.434803
1.6381276 1.5298339 -3.194738 0.59675896 0.78956205 0.14307545 0.132183 0.63693297
1.6789572 2.0459023 -3.291501 0.57805717 -0.81278765 -0.07229216 0.161302 0.473094
1.9023201 1.9773732 -3.261859 -0.8352422 -0.5063019 0.21454309 0.157364 0.408638
1.5431092 1.7173187 -3.301104 0.9926689 0.11383363 -0.04062522 0.162815 0.56364703
1.9367611 1.5898782 -3.223525 -0.39179343 0.6676513 0.63304 0.134852 0.75919104
1.8303072 1.5158483 -3.211333 -0.28422543 0.78266037 0.55376774 0.128271 0.715971
1.9935272 1.6947471 -3.2325711 -0.7717622 0.20351544 0.6024655 0.136862 0.31326503
1.9367611 1.5898782 -3.223525 -0.66757584 0.58222395 0.46406648 0.137622 0.266329
1.7108443 1.5109359 -3.2172432 0.13621257 0.84208286 0.52186453 0.13664 0.67733
1.7444723 2.0786333 -3.3242402 0.16472173 -0.98529476 0.045398235 0.166138 0.45261902
1.8153465 2.066615 -3.317599 -0.48563692 -0.869193 0.09306054 0.166548 0.437438
1.8785012 1.9941207 -3.325185 -0.81526405 -0.56735426 0.11598952 0.174624 0.415978
1.9220064 1.888919 -3.296065 -0.9431504 -0.15766466 0.2925903 0.170735 0.376597
1.5444424 1.8249389 -3.286749 0.973452 -0.19064085 -0.12667805 0.161762 0.536326
1.5417626 1.7934753 -3.346744 0.9942319 -0.06540032 0.08500435 0.177586 0.54221
1.5519536 1.6731082 -3.324841 0.94486165 0.32349646 0.050857674 0.178266 0.576717
1.5822542 1.6175176 -3.370661 0.8982453 0.42727858 0.102900155 0.195584 0.594141
1.6759913 2.0455847 -3.354425 0.5433119 -0.8367178 0.06866836 0.173495 0.47185498
1.6163042 1.9904128 -3.355843 0.79278934 -0.6092315 0.017947685 0.175469 0.49332303
1.5648263 1.8965617 -3.350288 0.9321511 -0.36144438 0.021265399 0.178035 0.514243
1.9446452 1.7556554 -3.267286 -0.51293045 0.076972865 0.8549722 0.161308 0.336649
1.9561312 1.6560832 -3.2553482 -0.4744529 0.2937769 0.82981294 0.147137 0.296314
1.8897154 1.6049367 -3.254065 -0.2505108 0.2766292 0.9277503 0.160229 0.270796
1.7204163 1.5535728 -3.260528 -0.239973 0.8050312 0.5425291 0.163825 0.676046
1.7937024 1.5464565 -3.2469592 -0.14380196 0.5466791 0.82490176 0.147174 0.707038
1.8282645 1.639722 -3.274795 -0.31681687 0.42951882 0.8456599 0.176017 0.73241
1.8897154 1.6049367 -3.254065 -0.24783154 0.49299634 0.8339869 0.153496 0.750273
1.7842653 2.0722647 -3.375071 -0.23963632 -0.939867 0.24336095 0.176482 0.446594
1.8876045 1.7649032 -3.299368 -0.8399446 0.4131299 0.3518762 0.18647 0.329252
1.8282645 1.639722 -3.274795 -0.35615173 0.2700251 0.89456266 0.188655 0.27578598
1.8258746 1.6798755 -3.29951 -0.8203803 0.57179385 0.0052849166 0.198735 0.28955698
1.6799023 1.5371457 -3.2968569 -0.057332627 0.8802478 -0.47103804 0.178324 0.64918196
1.7151253 2.0540009 -3.410327 0.2871709 -0.91514295 0.28292438 0.186142 0.46550697
1.9148471 1.9199096 -3.3443632 -0.92064446 -0.3611491 -0.14827377 0.185877 0.39264202
1.9239013 1.8272783 -3.334697 -0.8349674 0.028100466 -0.5495816 0.192135 0.358014
1.8764913 1.7259971 -3.3202739 -0.56360847 0.28085634 -0.77683026 0.200576 0.31986898
1.7594554 1.5993234 -3.2909632 -0.65243024 0.73136574 -0.19859223 0.182264 0.694461
1.8168595 1.6493856 -3.311464 -0.41165802 0.21868815 -0.8847108 0.207031 0.288692
1.8258746 1.6798755 -3.29951 -0.7307613 0.63034725 0.2620119 0.191323 0.7386
1.8168595 1.6493856 -3.311464 -0.47005266 0.31848165 -0.8231767 0.198873 0.734743
1.7760684 1.5724641 -3.3133612 -0.31502488 0.39579794 -0.8626142 0.20043 0.699094
1.6230495 1.5353137 -3.331421 0.6917075 0.7115345 -0.1235285 0.193282 0.62849903
1.8384326 2.018402 -3.415968 -0.6208674 -0.73885536 0.26194742 0.196589 0.43506998
1.9413455 1.8842479 -3.377318 -0.8750185 -0.35570326 -0.32835624 0.202825 0.38462597
1.9735534 1.8010265 -3.381967 -0.84409565 -0.18432906 -0.50351304 0.222499 0.35911798
1.9344223 1.7227594 -3.343433 -0.5405649 0.06284942 -0.83895147 0.223449 0.33252603
1.8627703 1.6441213 -3.323421 -0.30986425 0.08780943 -0.94671726 0.223595 0.29517698
1.8627703 1.6441213 -3.323421 -0.2768832 0.13219437 -0.95176697 0.217282 0.73768103
1.9008572 1.6197444 -3.3408532 -0.5709849 0.26047304 -0.7785435 0.238895 0.299218
1.8353655 1.5797311 -3.323416 -0.35665035 0.3775769 -0.8545386 0.218767 0.705969
1.9008572 1.6197444 -3.3408532 -0.4245175 0.37438187 -0.8243925 0.234034 0.73933697
1.6653574 1.5059806 -3.3442712 0.28722325 0.935541 -0.2055864 0.204558 0.643457
1.7216094 1.5145875 -3.327651 -0.19815546 0.78950036 -0.5808817 0.207224 0.666149
1.7740223 2.0444517 -3.446414 -0.21118405 -0.8880017 0.40847808 0.194818 0.452245
1.6479094 2.0141315 -3.415462 0.6304067 -0.7450679 0.21785587 0.188542 0.48107398
1.9063914 1.9482147 -3.3995242 -0.80724555 -0.589283 0.033168714 0.198795 0.40839797
1.9047773 1.5823594 -3.37026 -0.5523461 0.71093553 -0.43529817 0.245845 0.732082
1.8092272 1.5404025 -3.3397331 -0.32922578 0.66836107 -0.6670111 0.221424 0.69084597
1.6068475 1.9535457 -3.453921 0.811865 -0.5159807 0.27320164 0.199871 0.49674302
1.9606073 1.8719331 -3.451572 -0.862109 -0.50505245 -0.041110814 0.229801 0.387479
1.9795425 1.684579 -3.3862362 -0.8091621 0.19151424 -0.5554989 0.24919 0.334051
1.8198354 1.522935 -3.373625 -0.40474066 0.848835 -0.34009433 0.235463 0.691496
1.7320602 1.5005418 -3.3738232 -0.043335285 0.997005 -0.06405609 0.225314 0.65618896
1.7318223 2.0250454 -3.487067 0.1070796 -0.8743639 0.47330928 0.202068 0.46394998
1.5765975 1.8598071 -3.4858801 0.9241899 -0.2718855 0.26823732 0.210674 0.515638
2.0051033 1.7739955 -3.448162 -0.95551175 -0.21442173 -0.20253547 0.245971 0.365124
1.9047773 1.5823594 -3.37026 -0.6912302 0.41288528 -0.59306544 0.251989 0.296439
1.5549262 1.7370845 -3.420293 0.9724357 0.12229441 0.198527 0.202608 0.55055904
1.8662765 1.5445186 -3.4052691 -0.50064653 0.8655214 0.01502428 0.253774 0.708938
1.8939073 1.9434806 -3.486814 -0.65206605 -0.7276238 0.2130102 0.220996 0.422262
2.0005395 1.6802741 -3.445028 -0.92405736 0.3295556 -0.1936782 0.261614 0.34350502
1.9553254 1.6110259 -3.411221 -0.8125466 0.5496959 -0.19391362 0.266087 0.315068
1.6501982 1.5245763 -3.415791 0.59380454 0.80296963 0.051341224 0.224938 0.62050796
1.9553254 1.6110259 -3.411221 -0.59976876 0.7986855 -0.04877398 0.267469 0.743563
1.7890985 1.5050937 -3.3960242 -0.27135354 0.96232855 0.017057385 0.240727 0.674308
1.8106043 1.9755718 -3.547028 -0.33479467 -0.85633504 0.3931955 0.224144 0.45026702
1.6717465 2.002738 -3.4854732 0.50327015 -0.7659227 0.40010193 0.204428 0.47740299
1.7664416 1.5108615 -3.430298 -0.17493044 0.9843574 0.020975195 0.248562 0.65828204
1.9401062 1.8922054 -3.5224771 -0.74340695 -0.6431864 0.18345968 0.243421 0.410918
1.7175496 1.9888526 -3.543318 0.19274308 -0.8374461 0.5114041 0.217965 0.469104
1.9775703 1.8287488 -3.558011 -0.8192643 -0.571109 0.051385537 0.264405 0.402713
2.0154922 1.7440568 -3.495569 -0.9850294 -0.11944935 -0.124293745 0.263201 0.36891
2.0013354 1.6698133 -3.496905 -0.85350686 0.43875784 -0.28110048 0.277093 0.34629703
1.9095824 1.5803472 -3.462463 -0.7524868 0.65446424 -0.073757924 0.289454 0.309277
1.6080143 1.6061088 -3.495228 0.92208666 0.3437276 0.17778517 0.231958 0.579685
1.9095824 1.5803472 -3.462463 -0.5394889 0.8393088 -0.06717575 0.276837 0.720541
1.5835402 1.7141172 -3.517187 0.93474233 0.19628318 0.29619208 0.22985 0.544545
1.7955964 1.5122701 -3.482521 -0.37948543 0.87707376 -0.29450366 0.268923 0.667181
1.7113073 1.4889032 -3.487526 0.11199055 0.93555033 -0.33496815 0.260034 0.634
1.5826943 1.803651 -3.5473611 0.931889 -0.09156312 0.35099724 0.226743 0.520248
2.0253184 1.7355891 -3.5445452 -0.9226008 -0.26255065 -0.28262165 0.275878 0.37322098
1.9615195 1.5968467 -3.547927 -0.6825849 0.67610973 -0.27740476 0.304351 0.329526
1.9615195 1.5968467 -3.547927 -0.57574683 0.7895671 -0.21236607 0.299168 0.730199
1.8602774 1.5313417 -3.518464 -0.49955258 0.8200761 -0.27914584 0.289213 0.69486797
1.6541045 1.5099326 -3.517497 0.7726062 0.63187796 -0.061725147 0.256397 0.610482
1.6576002 1.9415075 -3.564075 0.63038445 -0.62311316 0.46297446 0.223399 0.489312
2.0297182 1.6712619 -3.541112 -0.84631497 0.29218373 -0.4453984 0.289735 0.35537398
1.6192224 1.696396 -3.594449 0.8835822 0.1604708 0.43992248 0.248501 0.540793
1.6379921 1.5763503 -3.577149 0.9219756 0.2540494 0.29226682 0.258689 0.581054
1.7766373 1.477851 -3.540732 -0.33268026 0.8628994 -0.38043183 0.291996 0.65182304
1.9031065 1.9129468 -3.5592241 -0.61764574 -0.7425746 0.2590304 0.24504 0.428021
2.0548232 1.712226 -3.599273 -0.9584099 -0.15731959 -0.23811974 0.295808 0.37717903
2.0397713 1.6559097 -3.588083 -0.8350646 0.5059359 -0.2160926 0.302261 0.363329
1.6770942 1.4710838 -3.60604 0.82965535 0.5507798 0.091178946 0.302434 0.60642004
1.8975976 1.896556 -3.625085 -0.5805437 -0.77719563 0.2427672 0.257996 0.43818498
2.0219905 1.773347 -3.61487 -0.8021298 -0.58876216 -0.09973437 0.283513 0.39762598
1.6560361 1.6608716 -3.650224 0.8469174 0.11340402 0.5194907 0.265732 0.542794
1.8561976 1.50867 -3.585441 -0.538189 0.7793159 -0.32096624 0.318343 0.681441
1.7127326 1.4490348 -3.571467 0.23487684 0.9231332 -0.30439755 0.300083 0.623937
1.7445352 1.9558955 -3.6118891 0.116268575 -0.8750045 0.46994552 0.234599 0.469208
1.6411264 1.8647729 -3.624857 0.766302 -0.37864953 0.51904315 0.238648 0.500123
2.0089924 1.6206666 -3.6243072 -0.6951528 0.70347124 -0.14795528 0.321722 0.35192102
1.7284653 1.9137832 -3.674052 0.35400578 -0.767161 0.5349242 0.248039 0.47813898
1.8440363 1.8982993 -3.7064672 -0.26048166 -0.8899228 0.37441525 0.266632 0.45716602
1.6127021 1.7872735 -3.6100821 0.85159796 -0.013353049 0.52402544 0.24256 0.516533
2.0510514 1.7478667 -3.688554 -0.84538025 -0.5277218 -0.08271554 0.30548 0.399961
2.0638654 1.6793519 -3.677281 -0.95800185 0.22296122 -0.1803353 0.322228 0.38977802
1.9385855 1.5571529 -3.629743 -0.7046718 0.5962443 -0.38461718 0.338488 0.32992798
1.9385855 1.5571529 -3.629743 -0.5569619 0.7085842 -0.43324572 0.32908 0.718019
1.7770712 1.4451791 -3.616528 -0.27418408 0.8413536 -0.4657759 0.330025 0.632217
1.6811984 1.5493661 -3.661783 0.8606245 0.16345957 0.48229298 0.292207 0.572845
1.6804793 1.7865735 -3.6966221 0.7796336 -0.059745643 0.6233794 0.264061 0.50715303
1.9701273 1.8226825 -3.694089 -0.61931455 -0.7770044 0.11275471 0.288041 0.42766398
1.8538992 1.4760352 -3.639761 -0.5033556 0.71030504 -0.4920364 0.340055 0.68139803
1.7190473 1.8698474 -3.7175522 0.6331445 -0.4794389 0.60767305 0.261619 0.484375
1.6949112 1.4631187 -3.658708 0.7990342 0.44098154 0.4087536 0.314528 0.59576404
2.0157444 1.6107045 -3.68744 -0.76731235 0.5002944 -0.4011699 0.341893 0.36457598
1.7276952 1.4873515 -3.708801 0.75271744 0.24464035 0.61120176 0.320067 0.570939
1.7347224 1.4227401 -3.661926 0.40541634 0.91260594 -0.05280168 0.341513 0.60272396
1.7972596 1.8654128 -3.77851 0.24809481 -0.7203591 0.64771265 0.280033 0.471541
1.7216465 1.6818582 -3.744586 0.776739 0.043418337 0.62832433 0.288725 0.52279496
1.9520905 1.5253154 -3.66463 -0.4567032 0.5619703 -0.689646 0.343289 0.716982
1.9520905 1.5253154 -3.66463 -0.7085386 0.36721775 -0.6025978 0.352761 0.329414
1.7889445 1.4146138 -3.655888 -0.11908574 0.76647633 -0.63113594 0.355772 0.628989
1.7323172 1.5790693 -3.743589 0.7777661 0.13739757 0.6133529 0.308511 0.54097104
1.9494565 1.8122398 -3.814017 -0.44970694 -0.82244605 0.34834778 0.305185 0.45018297
1.7473042 1.8452674 -3.76258 0.60006344 -0.36209783 0.71330845 0.275286 0.481785
2.0363114 1.7607023 -3.791765 -0.6493413 -0.74228114 0.16545242 0.320158 0.429982
2.0765831 1.6595889 -3.759115 -0.95299363 0.1923282 -0.23412178 0.34907 0.40811002
2.0389674 1.6003362 -3.722481 -0.7801293 0.22523321 -0.5836679 0.353541 0.37243497
2.0802972 1.7144634 -3.764533 -0.93347555 -0.3521514 -0.06791741 0.333899 0.41707402
1.7722871 1.7960225 -3.7954311 0.6460715 -0.18787715 0.7397931 0.288559 0.484375
1.7887204 1.6442224 -3.818068 0.7066794 0.06544096 0.704501 0.311572 0.51028
1.7929056 1.5261756 -3.796724 0.71120375 0.17649044 0.6804707 0.333885 0.533744
1.8785093 1.8379861 -3.8262901 -0.09521776 -0.7960232 0.5977295 0.296019 0.463472
2.0900185 1.6900913 -3.834126 -0.811244 -0.5318844 0.24286263 0.345242 0.43282598
1.8045862 1.730117 -3.8358061 0.65344137 -0.065317094 0.7541538 0.305223 0.49004102
2.0208514 1.7362443 -3.883346 -0.47110885 -0.639317 0.6077254 0.333341 0.449534
1.8527262 1.7906696 -3.858141 0.37824503 -0.39857987 0.8355027 0.307403 0.47247
1.8777444 1.6943208 -3.892097 0.45582914 -0.10457027 0.88390315 0.326135 0.48056298
1.8432252 1.6036655 -3.8651571 0.62834275 0.100102514 0.77146935 0.329124 0.502308
1.8730671 1.5131141 -3.867399 0.5918461 0.18246019 0.78512836 0.354559 0.514064
1.9325383 1.7664939 -3.890079 -0.030010175 -0.55536157 0.8310674 0.319593 0.46400702
2.0755775 1.6474944 -3.908515 -0.43467456 -0.35109487 0.82933134 0.352415 0.44931298
1.9143894 1.6006633 -3.911844 0.37768137 0.07179591 0.9231479 0.345181 0.487805
1.9777706 1.6784478 -3.926601 -0.012533207 -0.21516183 0.976498 0.340076 0.465267
1.9284604 1.5242587 -3.904556 0.4006305 0.15983826 0.90219 0.360217 0.49686098
1.9916704 1.5733358 -3.924093 0.06845696 0.058719736 0.9959245 0.357164 0.47441798
3 0 1 2
3 3 4 2
3 1 3 2
3 5 4 6
3 0 7 8
3 3 6 4
3 1 0 9
3 10 1 11
3 10 3 1
3 1 9 11
3 6 12 5
3 0 8 9
3 13 14 12
3 15 7 16
3 17 3 10
3 17 6 3
3 18 8 7
3 7 15 18
3 16 19 15
3 12 20 13
3 14 13 21
3 19 22 15
3 23 6 17
3 24 11 9
3 24 9 8
3 12 6 20
3 13 25 21
3 26 27 28
3 10 29 17
3 23 17 29
3 30 21 25
3 11 29 10
3 31 20 6
3 13 20 32
3 33 13 32
3 33 25 13
3 15 22 34
3 35 30 36
3 27 37 38
3 39 27 26
3 40 11 41
3 29 11 40
3 6 23 31
3 15 42 18
3 43 30 25
3 36 30 43
3 39 37 27
3 40 44 29
3 23 29 44
3 33 45 43
3 15 34 42
3 43 25 33
3 46 33 32
3 42 47 18
3 46 45 33
3 48 34 22
3 49 48 22
3 39 50 37
3 41 11 51
3 44 31 23
3 24 52 11
3 24 8 53
3 31 54 20
3 18 53 8
3 18 47 53
3 43 45 55
3 43 55 36
3 56 50 39
3 57 49 37
3 50 57 37
3 11 52 51
3 52 24 53
3 58 32 20
3 46 32 58
3 34 59 42
3 41 60 40
3 31 44 61
3 20 54 58
3 59 34 62
3 48 62 34
3 51 63 41
3 63 60 41
3 40 61 44
3 31 61 64
3 42 65 47
3 66 67 56
3 67 57 50
3 50 56 67
3 60 61 40
3 64 54 31
3 53 51 52
3 68 45 46
3 69 45 68
3 55 45 69
3 70 62 48
3 70 59 62
3 70 48 57
3 67 70 57
3 63 71 60
3 72 60 71
3 72 61 60
3 72 73 61
3 73 64 61
3 54 64 74
3 75 53 47
3 47 76 75
3 65 76 47
3 68 46 58
3 42 77 65
3 42 59 78
3 79 71 63
3 63 51 80
3 73 74 64
3 53 81 51
3 74 82 54
3 82 58 54
3 58 82 68
3 83 69 68
3 83 84 69
3 85 86 87
3 59 70 85
3 67 88 86
3 67 66 88
3 67 86 70
3 71 89 72
3 63 80 79
3 53 75 81
3 90 82 74
3 90 91 82
3 82 91 84
3 84 83 82
3 83 68 82
3 91 90 92
3 78 77 42
3 87 86 88
3 85 93 59
3 79 94 71
3 94 89 71
3 81 80 51
3 74 73 95
3 95 96 74
3 90 74 96
3 97 90 96
3 97 92 90
3 93 85 98
3 97 99 92
3 100 101 98
3 101 102 98
3 59 93 103
3 102 93 98
3 72 89 104
3 95 105 96
3 75 76 81
3 96 105 106
3 107 96 106
3 97 96 107
3 108 97 107
3 108 99 97
3 102 101 109
3 107 110 108
3 111 102 109
3 78 59 103
3 111 109 112
3 113 103 93
3 93 102 114
3 113 93 114
3 94 115 89
3 115 104 89
3 80 116 79
3 72 104 73
3 104 117 73
3 95 73 117
3 95 117 105
3 118 119 112
3 111 112 119
3 80 81 120
3 106 105 121
3 122 110 107
3 118 123 119
3 124 113 114
3 119 124 114
3 125 115 94
3 94 79 116
3 105 117 121
3 76 126 81
3 106 127 122
3 106 122 107
3 122 128 110
3 124 119 123
3 116 80 120
3 120 81 126
3 106 121 127
3 76 129 126
3 65 129 76
3 123 118 130
3 131 121 117
3 122 127 132
3 129 77 78
3 65 77 129
3 132 133 122
3 122 133 128
3 78 103 134
3 135 130 118
3 130 136 123
3 113 134 103
3 113 124 134
3 136 124 123
3 125 137 115
3 94 116 138
3 137 104 115
3 116 120 138
3 104 131 117
3 136 139 124
3 94 138 125
3 131 140 121
3 134 124 139
3 139 136 130
3 138 141 125
3 141 137 125
3 137 131 104
3 121 142 127
3 143 127 142
3 143 132 127
3 143 144 132
3 145 133 132
3 78 134 146
3 130 135 147
3 130 147 139
3 146 148 78
3 145 132 144
3 147 149 139
3 150 134 139
3 149 150 139
3 129 151 126
3 129 148 151
3 144 143 152
3 78 148 129
3 145 144 153
3 147 154 155
3 146 134 156
3 147 155 149
3 150 156 134
3 138 120 157
3 143 142 152
3 153 144 158
3 126 157 120
3 140 142 121
3 144 152 158
3 146 159 148
3 159 146 160
3 146 156 160
3 150 149 161
3 161 149 155
3 138 157 141
3 137 162 131
3 162 140 131
3 163 158 152
3 164 158 163
3 156 165 160
3 137 166 162
3 167 152 142
3 153 158 164
3 160 168 159
3 155 154 169
3 150 161 170
3 157 171 141
3 126 172 157
3 140 162 142
3 163 152 167
3 153 164 173
3 170 156 150
3 171 137 141
3 171 157 174
3 175 166 137
3 151 172 126
3 148 176 151
3 177 163 167
3 169 161 155
3 174 157 172
3 142 162 166
3 151 176 172
3 148 159 176
3 178 173 164
3 153 173 179
3 169 154 180
3 169 181 161
3 170 161 181
3 171 175 137
3 165 182 160
3 170 165 156
3 175 171 174
3 176 183 172
3 142 184 167
3 178 164 163
3 180 185 169
3 172 186 174
3 166 184 142
3 159 183 176
3 177 167 184
3 160 182 168
3 165 187 182
3 183 186 172
3 168 183 159
3 178 188 173
3 187 189 182
3 181 190 170
3 181 169 185
3 190 165 170
3 174 191 175
3 175 184 166
3 168 192 183
3 182 192 168
3 179 173 188
3 193 185 180
3 194 179 188
3 181 185 195
3 187 165 190
3 182 196 192
3 195 190 181
3 184 175 197
3 198 186 183
3 184 199 177
3 163 177 178
3 188 178 200
3 200 201 188
3 194 188 201
3 189 187 190
3 174 186 191
3 186 198 191
3 177 202 178
3 203 198 183
3 182 189 196
3 202 177 199
3 184 197 199
3 183 192 203
3 200 178 202
3 196 204 192
3 189 205 196
3 191 206 175
3 198 203 191
3 206 197 175
3 207 202 199
3 192 208 203
3 205 204 196
3 192 204 208
3 209 199 197
3 207 199 209
3 210 206 191
3 210 191 203
3 204 211 208
3 212 211 204
3 207 200 202
3 205 212 204
3 210 214 206
3 208 210 203
3 197 206 214
3 210 208 211
3 213 212 205
3 214 209 197
3 207 209 215
3 213 216 212
3 209 214 217
3 212 216 211
3 213 218 216
3 214 210 211
3 217 215 209
3 219 216 218
3 211 217 214
3 211 216 217
3 216 219 217
3 217 219 215
3 37 49 38
3 38 49 22
3 19 38 22
3 48 49 57
3 86 85 70
3 98 85 87
3 100 98 87
3 119 114 102
3 111 119 102
