ply
format ascii 1.0
comment Created in Blender version 4.1.1
element vertex 117
property float x
property float y
property float z
property float nx
property float ny
property float nz
property float u
property float v
element face 164
property list uchar uint vertex_indices
end_header
1.9352882 1.4705869 -3.497893 0.69555354 -0.7148861 0.07171534 0.404012 0.73191404
1.8742826 1.4072534 -3.5375462 0.7051724 -0.7088488 -0.016290572 0.412638 0.692201
1.9635384 1.4918605 -3.559823 0.59881973 -0.79721403 -0.07658095 0.383861 0.31400597
1.9635384 1.4918605 -3.559823 0.68152434 -0.73176 -0.0072017093 0.37785 0.733774
2.1082466 1.5854837 -3.618715 0.13456818 -0.979437 -0.15031485 0.397825 0.36935002
2.0406072 1.5536596 -3.600516 0.5410014 -0.83867085 -0.06283823 0.38887 0.343558
2.1679494 1.5720311 -3.631125 -0.59504193 -0.79320425 -0.12943012 0.412101 0.383295
1.8931754 1.4295112 -3.598723 0.64820975 -0.72823644 -0.22247642 0.386034 0.68511
1.8090322 1.3411123 -3.6007211 0.7941252 -0.47549087 -0.37851512 0.419171 0.63625896
2.2031815 1.5211898 -3.619389 -0.89084005 -0.45268115 -0.038521178 0.428023 0.391634
1.7811024 1.2898961 -3.651108 0.982189 0.08341085 0.16836694 0.419626 0.606068
1.9874475 1.5168544 -3.633054 0.476508 -0.84309775 -0.2492514 0.369846 0.330464
2.0808914 1.5835029 -3.6780572 0.30163163 -0.92566216 -0.22840306 0.380186 0.37486303
1.8538992 1.4760352 -3.639761 -0.15121587 0.048037846 -0.9873328 0.340055 0.68139803
1.9874475 1.5168544 -3.633054 0.5869848 -0.7058922 -0.39644048 0.356266 0.730953
1.9179876 1.4652787 -3.635149 0.5108196 -0.68190545 -0.5235154 0.362855 0.702649
2.1458704 1.5973445 -3.71765 -0.4209042 -0.88661253 -0.19172335 0.383934 0.40017903
1.8464434 1.4184886 -3.641419 0.44891748 -0.35030916 -0.8220442 0.371023 0.656134
2.0373466 1.5711318 -3.695826 0.22832815 -0.79455775 -0.56262267 0.365226 0.36194903
1.7276952 1.4873515 -3.708801 0.75234306 0.34070957 0.5638235 0.320067 0.570939
1.7347224 1.4227401 -3.661926 0.8345671 0.5443441 0.08477739 0.341513 0.60272396
1.7808082 1.3599273 -3.672327 0.975337 0.12805101 -0.17977917 0.38091 0.604757
1.9520905 1.5253154 -3.66463 0.36996755 -0.5256147 -0.76606345 0.343289 0.716982
1.9520905 1.5253154 -3.66463 0.23011796 -0.8027708 -0.5500952 0.352761 0.329414
1.7889445 1.4146138 -3.655888 0.19716391 0.21477976 -0.95655423 0.355772 0.628989
1.7945435 1.257619 -3.6644151 0.73233515 0.37729126 0.56686544 0.428785 0.595214
1.8960016 1.1800433 -3.673091 0.45664218 0.6081038 0.64937496 0.45945 0.561809
2.2224114 1.4516994 -3.7156072 -0.9739521 -0.12742919 0.18756098 0.426335 0.42437202
1.8406146 1.2393333 -3.688133 0.513357 0.5474557 0.66087586 0.43821 0.577157
2.0765831 1.6595889 -3.759115 -0.7070006 -0.40329447 -0.5809506 0.34907 0.40811002
2.0389674 1.6003362 -3.722481 -0.20241253 -0.6052214 -0.76989365 0.353541 0.37243497
2.1930845 1.549986 -3.724282 -0.871819 -0.48981628 -0.0034034343 0.405306 0.409989
2.0991604 1.6230174 -3.761203 -0.45366344 -0.73113376 -0.5095418 0.362919 0.403539
1.7888834 1.4044849 -3.7403731 0.75007045 0.3457301 0.5637952 0.35897 0.56556404
1.8034132 1.3005239 -3.70443 0.7519592 0.34727758 0.5603175 0.410264 0.582265
2.1497076 1.6131984 -3.825274 -0.7487436 -0.6626245 0.017654037 0.370888 0.425317
2.1921985 1.5342294 -3.80722 -0.94675976 -0.21268786 0.24168135 0.39894 0.42897898
1.7929056 1.5261756 -3.796724 0.69055647 0.26805857 0.6717711 0.333885 0.533744
1.8650296 1.3245889 -3.774632 0.53210336 0.42827752 0.7303728 0.410992 0.54882896
2.2094386 1.3250858 -3.747602 -0.78157127 0.24065723 0.5755262 0.439157 0.45460403
1.9832704 1.1938602 -3.744895 0.24508339 0.60010296 0.761453 0.451169 0.52581096
2.0640662 1.1580621 -3.726381 -0.023949975 0.589053 0.8077394 0.464155 0.508078
2.0900185 1.6900913 -3.834126 -0.8073598 -0.5894486 0.026844433 0.345242 0.43282598
1.8521101 1.4264966 -3.817269 0.5741001 0.34017256 0.7447763 0.375935 0.534317
1.9365242 1.262478 -3.7787821 0.36303318 0.5292716 0.7668627 0.427937 0.527968
2.1425464 1.2418615 -3.770684 -0.33298323 0.4955426 0.8022217 0.447492 0.480345
2.1876013 1.4518863 -3.821539 -0.8487134 0.11294382 0.516652 0.40938 0.443578
2.1682174 1.5829908 -3.8606482 -0.85717136 -0.35732332 0.3709141 0.375196 0.43708098
1.8730671 1.5131141 -3.867399 0.5253939 0.33925042 0.7803015 0.354559 0.514064
2.0457356 1.2926017 -3.825039 0.0040175566 0.50296766 0.86429584 0.422586 0.49717999
2.1583445 1.5357658 -3.8743951 -0.68944633 0.066819705 0.7212481 0.383738 0.446069
2.1400163 1.3688651 -3.84109 -0.49205503 0.36943534 0.7882889 0.416324 0.466218
1.9566905 1.4197465 -3.8688822 0.26161176 0.37595245 0.88894266 0.386433 0.507302
2.0755775 1.6474944 -3.908515 -0.508147 -0.33429977 0.79374444 0.352415 0.44931298
2.1340964 1.461424 -3.8802052 -0.48346844 0.21781574 0.84782934 0.397613 0.461039
2.1351593 1.5991021 -3.894321 -0.59086365 -0.3353819 0.73375684 0.365941 0.44553602
1.9284604 1.5242587 -3.904556 0.21596932 0.36715674 0.90473926 0.360217 0.49686098
2.0707471 1.4109565 -3.882755 -0.07082141 0.34072793 0.9374907 0.400448 0.482751
2.0777724 1.5283729 -3.909364 -0.17846581 0.14719132 0.97287446 0.374528 0.465649
1.9916704 1.5733358 -3.924093 -0.05404098 0.20710884 0.9768242 0.357164 0.47441798
1.9615195 1.5968467 -3.547927 -0.65800095 0.7213203 -0.21617532 0.304351 0.329526
1.9615195 1.5968467 -3.547927 -0.5777891 0.785082 -0.22317253 0.299168 0.730199
1.8602774 1.5313417 -3.518464 -0.5323158 0.8111729 -0.24215367 0.289213 0.69486797
2.0297182 1.6712619 -3.541112 -0.80532694 0.4906521 -0.3327296 0.289735 0.35537398
1.7766373 1.477851 -3.540732 -0.40150517 0.84966874 -0.34184307 0.291996 0.65182304
2.0548232 1.712226 -3.599273 -0.9788793 0.10393782 -0.17604591 0.295808 0.37717903
2.0397713 1.6559097 -3.588083 -0.8350646 0.5059359 -0.2160926 0.302261 0.363329
1.6770942 1.4710838 -3.60604 0.80049855 0.59061664 0.10185292 0.302434 0.60642004
1.6560361 1.6608716 -3.650224 0.80733114 0.094823 0.5824303 0.265732 0.542794
1.8561976 1.50867 -3.585441 -0.538189 0.7793159 -0.32096624 0.318343 0.681441
1.7127326 1.4490348 -3.571467 0.12597777 0.95292556 -0.27579415 0.300083 0.623937
2.0089924 1.6206666 -3.6243072 -0.6951528 0.70347124 -0.14795528 0.321722 0.35192102
1.7284653 1.9137832 -3.674052 0.22381742 -0.8198387 0.5270392 0.248039 0.47813898
1.8440363 1.8982993 -3.7064672 -0.18671106 -0.9126399 0.3636309 0.266632 0.45716602
2.0510514 1.7478667 -3.688554 -0.8789153 -0.46933535 -0.0850414 0.30548 0.399961
2.0638654 1.6793519 -3.677281 -0.95800185 0.22296122 -0.1803353 0.322228 0.38977802
1.9385855 1.5571529 -3.629743 -0.7046718 0.5962443 -0.38461718 0.338488 0.32992798
1.9385855 1.5571529 -3.629743 -0.5569619 0.7085842 -0.43324572 0.32908 0.718019
1.7770712 1.4451791 -3.616528 -0.27418408 0.8413536 -0.4657759 0.330025 0.632217
1.6811984 1.5493661 -3.661783 0.83391535 0.14259802 0.5331519 0.292207 0.572845
1.6804793 1.7865735 -3.6966221 0.76967025 -0.04165998 0.6370809 0.264061 0.50715303
1.9701273 1.8226825 -3.694089 -0.5718033 -0.8116545 0.119406655 0.288041 0.42766398
1.8538992 1.4760352 -3.639761 -0.5033556 0.71030504 -0.4920364 0.340055 0.68139803
1.7190473 1.8698474 -3.7175522 0.5896701 -0.5095545 0.6266126 0.261619 0.484375
1.6949112 1.4631187 -3.658708 0.7990342 0.44098154 0.4087536 0.314528 0.59576404
2.0157444 1.6107045 -3.68744 -0.76731235 0.5002944 -0.4011699 0.341893 0.36457598
1.7276952 1.4873515 -3.708801 0.75271744 0.24464035 0.61120176 0.320067 0.570939
1.7347224 1.4227401 -3.661926 0.40541634 0.91260594 -0.05280168 0.341513 0.60272396
1.7972596 1.8654128 -3.77851 0.24809481 -0.7203591 0.64771265 0.280033 0.471541
1.7216465 1.6818582 -3.744586 0.776739 0.043418337 0.62832433 0.288725 0.52279496
1.9520905 1.5253154 -3.66463 -0.4567032 0.5619703 -0.689646 0.343289 0.716982
1.9520905 1.5253154 -3.66463 -0.7085386 0.36721775 -0.6025978 0.352761 0.329414
1.7889445 1.4146138 -3.655888 -0.11908574 0.76647633 -0.63113594 0.355772 0.628989
1.7323172 1.5790693 -3.743589 0.7777661 0.13739757 0.6133529 0.308511 0.54097104
1.9494565 1.8122398 -3.814017 -0.44970694 -0.82244605 0.34834778 0.305185 0.45018297
1.7473042 1.8452674 -3.76258 0.60006344 -0.36209783 0.71330845 0.275286 0.481785
2.0363114 1.7607023 -3.791765 -0.6493413 -0.74228114 0.16545242 0.320158 0.429982
2.0765831 1.6595889 -3.759115 -0.95299363 0.1923282 -0.23412178 0.34907 0.40811002
2.0389674 1.6003362 -3.722481 -0.7801293 0.22523321 -0.5836679 0.353541 0.37243497
2.0802972 1.7144634 -3.764533 -0.93347555 -0.3521514 -0.06791741 0.333899 0.41707402
1.7722871 1.7960225 -3.7954311 0.6460715 -0.18787715 0.7397931 0.288559 0.484375
1.7887204 1.6442224 -3.818068 0.7066794 0.06544096 0.704501 0.311572 0.51028
1.7929056 1.5261756 -3.796724 0.71120375 0.17649044 0.6804707 0.333885 0.533744
1.8785093 1.8379861 -3.8262901 -0.09521776 -0.7960232 0.5977295 0.296019 0.463472
2.0900185 1.6900913 -3.834126 -0.811244 -0.5318844 0.24286263 0.345242 0.43282598
1.8045862 1.730117 -3.8358061 0.65344137 -0.065317094 0.7541538 0.305223 0.49004102
2.0208514 1.7362443 -3.883346 -0.47110885 -0.639317 0.6077254 0.333341 0.449534
1.8527262 1.7906696 -3.858141 0.37824503 -0.39857987 0.8355027 0.307403 0.47247
1.8777444 1.6943208 -3.892097 0.45582914 -0.10457027 0.88390315 0.326135 0.48056298
1.8432252 1.6036655 -3.8651571 0.62834275 0.100102514 0.77146935 0.329124 0.502308
1.8730671 1.5131141 -3.867399 0.5918461 0.18246019 0.78512836 0.354559 0.514064
1.9325383 1.7664939 -3.890079 -0.030010175 -0.55536157 0.8310674 0.319593 0.46400702
2.0755775 1.6474944 -3.908515 -0.43467456 -0.35109487 0.82933134 0.352415 0.44931298
1.9143894 1.6006633 -3.911844 0.37768137 0.07179591 0.9231479 0.345181 0.487805
1.9777706 1.6784478 -3.926601 -0.012533207 -0.21516183 0.976498 0.340076 0.465267
1.9284604 1.5242587 -3.904556 0.4006305 0.15983826 0.90219 0.360217 0.49686098
1.9916704 1.5733358 -3.924093 0.06845696 0.058719736 0.9959245 0.357164 0.47441798
3 0 1 3
3 7 3 1
3 5 2 11
3 8 7 1
3 4 5 12
3 3 7 14
3 14 7 15
3 4 16 6
3 17 15 7
3 17 7 8
3 5 11 12
3 12 11 18
3 21 8 10
3 17 13 22
3 14 15 22
3 17 22 15
3 21 17 8
3 18 11 23
3 17 24 13
3 21 24 17
3 30 18 23
3 31 9 6
3 20 24 21
3 12 16 4
3 12 18 32
3 6 16 31
3 31 27 9
3 19 20 33
3 32 16 12
3 30 32 18
3 21 33 20
3 10 34 21
3 25 34 10
3 30 29 32
3 35 31 16
3 36 27 31
3 34 33 21
3 25 28 34
3 19 33 37
3 34 38 33
3 34 28 38
3 33 38 43
3 44 38 28
3 26 44 28
3 40 44 26
3 31 35 36
3 46 27 36
3 29 42 32
3 32 35 16
3 42 35 32
3 33 43 37
3 47 36 35
3 48 37 43
3 39 27 46
3 40 41 49
3 50 36 47
3 46 36 50
3 51 39 46
3 51 45 39
3 43 38 52
3 38 44 52
3 40 49 44
3 49 41 45
3 46 54 51
3 53 35 42
3 49 45 51
3 53 55 35
3 55 47 35
3 55 50 47
3 48 52 56
3 54 46 50
3 43 52 48
3 57 51 54
3 49 57 52
3 57 49 51
3 52 44 49
3 50 55 58
3 59 56 52
3 58 54 50
3 58 57 54
3 58 55 53
3 59 58 53
3 59 52 58
3 52 57 58
3 66 63 65
3 60 63 66
3 62 61 69
3 60 66 71
3 69 64 62
3 75 71 66
3 60 71 76
3 69 61 77
3 69 78 64
3 70 64 78
3 75 66 65
3 77 82 69
3 67 84 79
3 75 85 71
3 84 86 79
3 78 87 70
3 78 69 82
3 87 67 70
3 72 88 73
3 68 89 80
3 79 89 68
3 76 71 85
3 90 82 77
3 91 76 85
3 78 82 92
3 84 67 87
3 79 93 89
3 92 87 78
3 81 73 94
3 95 83 80
3 81 96 74
3 65 74 75
3 85 75 97
3 97 98 85
3 91 85 98
3 86 84 87
3 72 83 88
3 83 95 88
3 74 99 75
3 100 95 80
3 79 86 93
3 99 74 96
3 81 94 96
3 80 89 100
3 97 75 99
3 93 101 89
3 86 102 93
3 88 103 73
3 95 100 88
3 103 94 73
3 104 99 96
3 89 105 100
3 102 101 93
3 89 101 105
3 106 96 94
3 104 96 106
3 107 103 88
3 107 88 100
3 101 108 105
3 109 108 101
3 104 97 99
3 102 109 101
3 107 111 103
3 105 107 100
3 94 103 111
3 107 105 108
3 110 109 102
3 111 106 94
3 104 106 112
3 110 113 109
3 106 111 114
3 109 113 108
3 110 115 113
3 111 107 108
3 114 112 106
3 116 113 115
3 108 114 111
3 108 113 114
3 113 116 114
3 114 116 112
