ply
format ascii 1.0
comment SOLIDWORKS generated,length unit = millimeters
element vertex 119
property float x
property float y
property float z
element face 232
property uchar red
property uchar green
property uchar blue
property uchar alpha
property list uchar int vertex_indices
end_header
-1.70023 -31.3588 0 
1.70023 -31.3588 0 
-1.70023 -31.3588 50 
1.70023 -31.3588 50 
-5.08075 -30.9912 0 
5.08075 -30.9912 0 
-5.08075 -30.9912 50 
5.08075 -30.9912 50 
-8.4017 -30.2602 0 
8.4017 -30.2602 0 
-8.4017 -30.2602 50 
8.4017 -30.2602 50 
-11.6242 -29.1744 0 
11.6242 -29.1744 0 
-11.6242 -29.1744 50 
11.6242 -29.1744 50 
-14.7103 -27.7466 0 
14.7103 -27.7466 0 
-14.7103 -27.7466 50 
14.7103 -27.7466 50 
-17.624 -25.9935 0 
17.624 -25.9935 0 
-17.624 -25.9935 50 
17.624 -25.9935 50 
-20.3311 -23.9356 0 
20.3311 -23.9356 0 
-20.3311 -23.9356 50 
20.3311 -23.9356 50 
-22.7998 -21.5971 0 
22.7998 -21.5971 0 
-22.7998 -21.5971 50 
22.7998 -21.5971 50 
-25.0012 -19.0054 0 
25.0012 -19.0054 0 
-25.0012 -19.0054 50 
25.0012 -19.0054 50 
-26.9095 -16.1909 0 
26.9095 -16.1909 0 
-26.9095 -16.1909 50 
26.9095 -16.1909 50 
-28.5023 -13.1866 0 
28.5023 -13.1866 0 
-28.5023 -13.1866 50 
28.5023 -13.1866 50 
-29.761 -10.0276 0 
29.761 -10.0276 0 
-29.761 -10.0276 50 
29.761 -10.0276 50 
-30.6707 -6.75113 0 
30.6707 -6.75113 0 
-30.6707 -6.75113 50 
30.6707 -6.75113 50 
-31.2208 -3.39547 0 
31.2208 -3.39547 0 
-31.2208 -3.39547 50 
31.2208 -3.39547 50 
-31.4049 0 0 
0 0 0 
-31.4049 0 50 
0 0 50 
31.4049 3.84599e-15 0 
31.4049 3.84599e-15 50 
31.4049 1.1538e-14 0 
-31.2208 3.39547 0 
31.2208 3.39547 0 
-31.2208 3.39547 50 
31.2208 3.39547 50 
-30.6707 6.75113 0 
30.6707 6.75113 0 
-30.6707 6.75113 50 
30.6707 6.75113 50 
-29.761 10.0276 0 
29.761 10.0276 0 
-29.761 10.0276 50 
29.761 10.0276 50 
-28.5023 13.1866 0 
28.5023 13.1866 0 
-28.5023 13.1866 50 
28.5023 13.1866 50 
-26.9095 16.1909 0 
26.9095 16.1909 0 
-26.9095 16.1909 50 
26.9095 16.1909 50 
-25.0012 19.0054 0 
25.0012 19.0054 0 
-25.0012 19.0054 50 
25.0012 19.0054 50 
-22.7998 21.5971 0 
22.7998 21.5971 0 
-22.7998 21.5971 50 
22.7998 21.5971 50 
-20.3311 23.9356 0 
20.3311 23.9356 0 
-20.3311 23.9356 50 
20.3311 23.9356 50 
-17.624 25.9935 0 
17.624 25.9935 0 
-17.624 25.9935 50 
17.624 25.9935 50 
-14.7103 27.7466 0 
14.7103 27.7466 0 
-14.7103 27.7466 50 
14.7103 27.7466 50 
-11.6242 29.1744 0 
11.6242 29.1744 0 
-11.6242 29.1744 50 
11.6242 29.1744 50 
-8.4017 30.2602 0 
8.4017 30.2602 0 
-8.4017 30.2602 50 
8.4017 30.2602 50 
-5.08075 30.9912 0 
5.08075 30.9912 0 
-5.08075 30.9912 50 
5.08075 30.9912 50 
-1.70023 31.3588 0 
1.70023 31.3588 0 
-1.70023 31.3588 50 
1.70023 31.3588 50 
202 209 238 0 3 1 2 0
202 209 238 0 3 2 6 0
202 209 238 0 3 6 4 0
202 209 238 0 3 57 1 0
202 209 238 0 3 4 57 0
202 209 238 0 3 5 3 1
202 209 238 0 3 3 2 1
202 209 238 0 3 57 5 1
202 209 238 0 3 3 59 2
202 209 238 0 3 59 6 2
202 209 238 0 3 5 7 3
202 209 238 0 3 7 59 3
202 209 238 0 3 6 10 4
202 209 238 0 3 10 8 4
202 209 238 0 3 8 57 4
202 209 238 0 3 9 7 5
202 209 238 0 3 57 9 5
202 209 238 0 3 59 10 6
202 209 238 0 3 9 11 7
202 209 238 0 3 11 59 7
202 209 238 0 3 10 14 8
202 209 238 0 3 14 12 8
202 209 238 0 3 12 57 8
202 209 238 0 3 13 11 9
202 209 238 0 3 57 13 9
202 209 238 0 3 59 14 10
202 209 238 0 3 13 15 11
202 209 238 0 3 15 59 11
202 209 238 0 3 14 18 12
202 209 238 0 3 18 16 12
202 209 238 0 3 16 57 12
202 209 238 0 3 17 15 13
202 209 238 0 3 57 17 13
202 209 238 0 3 59 18 14
202 209 238 0 3 17 19 15
202 209 238 0 3 19 59 15
202 209 238 0 3 18 22 16
202 209 238 0 3 22 20 16
202 209 238 0 3 20 57 16
202 209 238 0 3 21 19 17
202 209 238 0 3 57 21 17
202 209 238 0 3 59 22 18
202 209 238 0 3 21 23 19
202 209 238 0 3 23 59 19
202 209 238 0 3 22 26 20
202 209 238 0 3 26 24 20
202 209 238 0 3 24 57 20
202 209 238 0 3 25 23 21
202 209 238 0 3 57 25 21
202 209 238 0 3 59 26 22
202 209 238 0 3 25 27 23
202 209 238 0 3 27 59 23
202 209 238 0 3 26 30 24
202 209 238 0 3 30 28 24
202 209 238 0 3 28 57 24
202 209 238 0 3 29 27 25
202 209 238 0 3 57 29 25
202 209 238 0 3 59 30 26
202 209 238 0 3 29 31 27
202 209 238 0 3 31 59 27
202 209 238 0 3 30 34 28
202 209 238 0 3 34 32 28
202 209 238 0 3 32 57 28
202 209 238 0 3 33 31 29
202 209 238 0 3 57 33 29
202 209 238 0 3 59 34 30
202 209 238 0 3 33 35 31
202 209 238 0 3 35 59 31
202 209 238 0 3 34 38 32
202 209 238 0 3 38 36 32
202 209 238 0 3 36 57 32
202 209 238 0 3 37 35 33
202 209 238 0 3 57 37 33
202 209 238 0 3 59 38 34
202 209 238 0 3 37 39 35
202 209 238 0 3 39 59 35
202 209 238 0 3 38 42 36
202 209 238 0 3 42 40 36
202 209 238 0 3 40 57 36
202 209 238 0 3 41 39 37
202 209 238 0 3 57 41 37
202 209 238 0 3 59 42 38
202 209 238 0 3 41 43 39
202 209 238 0 3 43 59 39
202 209 238 0 3 42 46 40
202 209 238 0 3 46 44 40
202 209 238 0 3 44 57 40
202 209 238 0 3 45 43 41
202 209 238 0 3 57 45 41
202 209 238 0 3 59 46 42
202 209 238 0 3 45 47 43
202 209 238 0 3 47 59 43
202 209 238 0 3 46 50 44
202 209 238 0 3 50 48 44
202 209 238 0 3 48 57 44
202 209 238 0 3 49 47 45
202 209 238 0 3 57 49 45
202 209 238 0 3 59 50 46
202 209 238 0 3 49 51 47
202 209 238 0 3 51 59 47
202 209 238 0 3 50 54 48
202 209 238 0 3 54 52 48
202 209 238 0 3 52 57 48
202 209 238 0 3 53 51 49
202 209 238 0 3 57 53 49
202 209 238 0 3 59 54 50
202 209 238 0 3 53 55 51
202 209 238 0 3 55 59 51
202 209 238 0 3 54 58 52
202 209 238 0 3 58 56 52
202 209 238 0 3 56 57 52
202 209 238 0 3 62 55 53
202 209 238 0 3 57 62 53
202 209 238 0 3 59 58 54
202 209 238 0 3 62 61 55
202 209 238 0 3 61 59 55
202 209 238 0 3 65 63 56
202 209 238 0 3 58 65 56
202 209 238 0 3 63 57 56
202 209 238 0 3 72 68 57
202 209 238 0 3 68 64 57
202 209 238 0 3 64 62 57
202 209 238 0 3 84 80 57
202 209 238 0 3 80 76 57
202 209 238 0 3 76 72 57
202 209 238 0 3 96 92 57
202 209 238 0 3 92 88 57
202 209 238 0 3 88 84 57
202 209 238 0 3 108 104 57
202 209 238 0 3 104 100 57
202 209 238 0 3 100 96 57
202 209 238 0 3 115 116 57
202 209 238 0 3 116 112 57
202 209 238 0 3 112 108 57
202 209 238 0 3 103 107 57
202 209 238 0 3 107 111 57
202 209 238 0 3 111 115 57
202 209 238 0 3 91 95 57
202 209 238 0 3 95 99 57
202 209 238 0 3 99 103 57
202 209 238 0 3 79 83 57
202 209 238 0 3 83 87 57
202 209 238 0 3 87 91 57
202 209 238 0 3 67 71 57
202 209 238 0 3 71 75 57
202 209 238 0 3 75 79 57
202 209 238 0 3 63 67 57
202 209 238 0 3 59 65 58
202 209 238 0 3 61 66 59
202 209 238 0 3 77 73 59
202 209 238 0 3 73 69 59
202 209 238 0 3 69 65 59
202 209 238 0 3 89 85 59
202 209 238 0 3 85 81 59
202 209 238 0 3 81 77 59
202 209 238 0 3 101 97 59
202 209 238 0 3 97 93 59
202 209 238 0 3 93 89 59
202 209 238 0 3 113 109 59
202 209 238 0 3 109 105 59
202 209 238 0 3 105 101 59
202 209 238 0 3 114 118 59
202 209 238 0 3 118 117 59
202 209 238 0 3 117 113 59
202 209 238 0 3 102 106 59
202 209 238 0 3 106 110 59
202 209 238 0 3 110 114 59
202 209 238 0 3 90 94 59
202 209 238 0 3 94 98 59
202 209 238 0 3 98 102 59
202 209 238 0 3 78 82 59
202 209 238 0 3 82 86 59
202 209 238 0 3 86 90 59
202 209 238 0 3 66 70 59
202 209 238 0 3 70 74 59
202 209 238 0 3 74 78 59
202 209 238 0 3 64 61 62
202 209 238 0 3 64 66 61
202 209 238 0 3 65 69 63
202 209 238 0 3 69 67 63
202 209 238 0 3 68 66 64
202 209 238 0 3 68 70 66
202 209 238 0 3 69 73 67
202 209 238 0 3 73 71 67
202 209 238 0 3 72 70 68
202 209 238 0 3 72 74 70
202 209 238 0 3 73 77 71
202 209 238 0 3 77 75 71
202 209 238 0 3 76 74 72
202 209 238 0 3 76 78 74
202 209 238 0 3 77 81 75
202 209 238 0 3 81 79 75
202 209 238 0 3 80 78 76
202 209 238 0 3 80 82 78
202 209 238 0 3 81 85 79
202 209 238 0 3 85 83 79
202 209 238 0 3 84 82 80
202 209 238 0 3 84 86 82
202 209 238 0 3 85 89 83
202 209 238 0 3 89 87 83
202 209 238 0 3 88 86 84
202 209 238 0 3 88 90 86
202 209 238 0 3 89 93 87
202 209 238 0 3 93 91 87
202 209 238 0 3 92 90 88
202 209 238 0 3 92 94 90
202 209 238 0 3 93 97 91
202 209 238 0 3 97 95 91
202 209 238 0 3 96 94 92
202 209 238 0 3 96 98 94
202 209 238 0 3 97 101 95
202 209 238 0 3 101 99 95
202 209 238 0 3 100 98 96
202 209 238 0 3 100 102 98
202 209 238 0 3 101 105 99
202 209 238 0 3 105 103 99
202 209 238 0 3 104 102 100
202 209 238 0 3 104 106 102
202 209 238 0 3 105 109 103
202 209 238 0 3 109 107 103
202 209 238 0 3 108 106 104
202 209 238 0 3 108 110 106
202 209 238 0 3 109 113 107
202 209 238 0 3 113 111 107
202 209 238 0 3 112 110 108
202 209 238 0 3 112 114 110
202 209 238 0 3 113 117 111
202 209 238 0 3 117 115 111
202 209 238 0 3 116 114 112
202 209 238 0 3 116 118 114
202 209 238 0 3 117 118 115
202 209 238 0 3 118 116 115
