ply
format ascii 1.0
comment Created in Blender version 4.0.2
element vertex 429
property float x
property float y
property float z
property float nx
property float ny
property float nz
property float s
property float t
element face 768
property list uchar uint vertex_indices
end_header
-5.2622495 0.7646116 -0.1474512 -0.03309508 0.98227787 0.18448529 0.03125 1
-5.320951 0.76027954 -0.3161374 0.23279943 0.94010335 -0.24901825 0 0.9166667
-5.3935647 0.7718766 -0.24326265 -0.07166139 0.98254436 0.17167182 0 1
-5.3112574 0.72229147 -0.06667246 -0.27648902 0.7659853 0.58036214 0.03125 0.083333336
-5.3935647 0.7718766 -0.24326265 -0.07166139 0.98254436 0.17167182 0 0
-5.461093 0.7304876 -0.17659286 -0.35387358 0.7645743 0.5387018 0 0.083333336
-5.345867 0.638517 -0.016652685 -0.44662797 0.35153684 0.8227669 0.03125 0.16666667
-5.5054417 0.64720285 -0.13399202 -0.54124606 0.35483572 0.76232827 0 0.16666667
-5.514727 0.54433846 -0.12687501 -0.5913457 -0.14161082 0.79388696 0 0.25
-5.486462 0.44945672 -0.15714881 -0.4914789 -0.60699284 0.6245064 0 0.33333334
-5.356806 0.5357357 -0.010794651 -0.50029415 -0.15299731 0.85223085 0.03125 0.25
-5.4282193 0.3879812 -0.2167016 -0.26144457 -0.92126197 0.2879635 0 0.41666666
-5.341141 0.44148758 -0.050667997 -0.4237914 -0.61952156 0.6607526 0.03125 0.33333334
-5.3556056 0.3763842 -0.28957626 0.040451 -0.9901943 -0.13371232 0 0.5
-5.303072 0.38102633 -0.12558869 -0.23603383 -0.926217 0.29395595 0.03125 0.41666666
-5.2880774 0.4177731 -0.35624608 0.328712 -0.78567207 -0.52408767 0 0.5833333
-5.2527976 0.37055248 -0.21548179 0.014065147 -0.9876649 -0.15594941 0.03125 0.5
-5.2437286 0.50105786 -0.39884695 0.5235163 -0.36325294 -0.77069956 0 0.6666667
-5.2037897 0.41287258 -0.2962606 0.258939 -0.7806626 -0.5687851 0.03125 0.5833333
-5.1582413 0.5994283 -0.3521385 0.48883364 0.16566882 -0.8565019 0.03125 0.75
-5.234443 0.60392225 -0.40596402 0.57673895 0.16034226 -0.8010384 0 0.75
-5.173906 0.6936765 -0.31226516 0.41118464 0.6411454 -0.6479658 0.03125 0.8333333
-5.262708 0.698804 -0.3756902 0.4719206 0.63867986 -0.6077655 0 0.8333333
-5.211975 0.75413775 -0.23734447 0.21937427 0.9390137 -0.2648175 0.03125 0.9166667
-5.0923924 0.7493595 -0.07439254 0.023434691 0.9788305 0.20332676 0.0625 1
-5.1270394 0.7058065 0.012903962 -0.1494982 0.7580049 0.63488495 0.0625 0.083333336
-5.2622495 0.7646116 -0.1474512 -0.03309508 0.98227787 0.18448529 0.03125 0
-5.153877 0.6213647 0.06645146 -0.28254882 0.3384688 0.89755505 0.0625 0.16666667
-5.1657133 0.51866055 0.07190192 -0.3409491 -0.16916586 0.92473596 0.0625 0.25
-5.159377 0.42521325 0.027794931 -0.3096261 -0.63340676 0.709174 0.0625 0.33333334
-5.136566 0.36606205 -0.054051083 -0.19664259 -0.9318663 0.30488843 0.0625 0.41666666
-5.103393 0.35705638 -0.15170558 -0.031649247 -0.98251414 -0.18347818 0.0625 0.5
-5.16918 0.4966469 -0.34628043 0.4325586 -0.35758677 -0.8276623 0.03125 0.6666667
-5.068746 0.4006094 -0.23900214 0.14139268 -0.7676846 -0.62503487 0.0625 0.5833333
-5.030072 0.5877553 -0.2980002 0.33621532 0.17624487 -0.92514706 0.0625 0.75
-5.0364084 0.68120265 -0.25389323 0.30476612 0.6463136 -0.6995687 0.0625 0.8333333
-5.0592194 0.74035394 -0.17204718 0.19004127 0.93945324 -0.28515264 0.0625 0.9166667
-4.8903127 0.72853136 -0.01928508 0.05550907 0.9764017 0.20870662 0.09375 1
-4.9151444 0.68398845 0.07081096 -0.06853742 0.7515589 0.65609586 0.09375 0.083333336
-5.0923924 0.7493595 -0.07439254 0.023434691 0.9788305 0.20332676 0.0625 0
-4.9363933 0.5989833 0.1259523 -0.17417428 0.32811466 0.9284417 0.09375 0.16666667
-4.948366 0.49629283 0.13136387 -0.23353484 -0.1815644 0.9552465 0.09375 0.25
-4.9478545 0.40343288 0.08559562 -0.2310906 -0.6437554 0.72950405 0.09375 0.33333334
-4.9349957 0.34528518 0.00091113895 -0.16740786 -0.93607795 0.309407 0.09375 0.41666666
-4.913235 0.3374304 -0.09999846 -0.059134364 -0.9790376 -0.19490688 0.09375 0.5
-5.0419087 0.48505107 -0.29254967 0.27616143 -0.3429617 -0.8978375 0.0625 0.6666667
-4.8884034 0.38197315 -0.19009455 0.06503783 -0.7584486 -0.64847976 0.09375 0.5833333
-4.8551817 0.56966877 -0.25064757 0.23218718 0.18529876 -0.9548579 0.09375 0.75
-4.8556933 0.66252875 -0.20487931 0.22959945 0.65167856 -0.72291017 0.09375 0.8333333
-4.868552 0.72067654 -0.12019484 0.16478479 0.9408295 -0.29611772 0.09375 0.9166667
-4.660622 0.70409167 0.021218117 0.07228524 0.97510254 0.20964198 0.125 1
-4.6785088 0.65882015 0.112588376 -0.017155822 0.747122 0.6644655 0.125 0.083333336
-4.8903127 0.72853136 -0.01928508 0.05550907 0.9764017 0.20870662 0.09375 0
-4.695522 0.5733705 0.1685069 -0.10189895 0.32079422 0.9416516 0.125 0.16666667
-4.707103 0.47063896 0.17399035 -0.1594655 -0.1902912 0.9686898 0.125 0.25
-4.7101483 0.37815225 0.12756948 -0.17468297 -0.65110826 0.73860943 0.125 0.33333334
-4.7038426 0.32069215 0.041682698 -0.14348258 -0.9393272 0.3115719 0.125 0.41666666
-4.689875 0.31365502 -0.060656708 -0.07399183 -0.977051 -0.19974142 0.125 0.5
-4.8671546 0.4669783 -0.24523595 0.17181082 -0.3318942 -0.92753834 0.09375 0.6666667
-4.6719885 0.35892653 -0.15202701 0.0154074775 -0.75232786 -0.65860873 0.125 0.5833333
-4.6433945 0.5471077 -0.2134291 0.15902717 0.19204754 -0.96841526 0.125 0.75
-4.640349 0.63959444 -0.16700824 0.17427967 0.6560961 -0.7342782 0.125 0.8333333
-4.6466546 0.6970546 -0.081121445 0.14244738 0.94246614 -0.30243415 0.125 0.9166667
-4.408503 0.67794645 0.049328174 0.079066336 0.9746868 0.20912701 0.15625 1
-4.421203 0.632143 0.1412995 0.015496723 0.7443248 0.667638 0.15625 0.083333336
-4.660622 0.70409167 0.021218117 0.07228524 0.97510254 0.20964198 0.125 0
-4.434759 0.5463388 0.19761863 -0.05212827 0.31577942 0.94739956 0.15625 0.16666667
-4.445539 0.4435251 0.20319492 -0.10579819 -0.1964541 0.9747884 0.15625 0.25
-4.4506545 0.35125065 0.15653421 -0.13130298 -0.65648514 0.7428236 0.15625 0.33333334
-4.4487348 0.2942403 0.07013916 -0.121861994 -0.94200957 0.31267834 0.15625 0.41666666
-4.440294 0.28776997 -0.032840725 -0.07989099 -0.9761792 -0.2017217 0.15625 0.5
-4.6549754 0.4443761 -0.20794559 0.10078227 -0.32418334 -0.94061047 0.125 0.6666667
-4.4275937 0.33357334 -0.1248121 -0.016470542 -0.74851674 -0.6629113 0.15625 0.5833333
-4.403258 0.5221913 -0.18670762 0.10559407 0.1968721 -0.9747262 0.15625 0.75
-4.3981423 0.6144657 -0.14004692 0.13124576 0.6595918 -0.7400764 0.15625 0.8333333
-4.400062 0.6714761 -0.053651866 0.12149514 0.9441622 -0.30626264 0.15625 0.9166667
-4.13957 0.65201163 0.06684611 0.07847793 0.9749218 0.20825167 0.1875 1
-4.148177 0.6058178 0.15909585 0.035348374 0.74274933 0.6686359 0.1875 0.083333336
-4.408503 0.67794645 0.049328174 0.079066336 0.9746868 0.20912701 0.15625 0
-4.158694 0.51972365 0.21562174 -0.01717931 0.31241614 0.94979 0.1875 0.16666667
-4.168302 0.4167982 0.22127771 -0.06506846 -0.20086314 0.977456 0.1875 0.25
-4.174427 0.3246201 0.17454827 -0.09559965 -0.6605539 0.74466723 0.1875 0.33333334
-4.1754284 0.26788843 0.08795451 -0.100662276 -0.9443471 0.3131704 0.1875 0.41666666
-4.1710377 0.26180437 -0.015300844 -0.0788593 -0.97610456 -0.20248733 0.1875 0.5
-4.4140377 0.41937748 -0.1811313 0.051462963 -0.31903625 -0.9463442 0.15625 0.6666667
-4.162431 0.30799818 -0.10755062 -0.035923388 -0.74634445 -0.66458976 0.1875 0.5833333
-4.142306 0.49701777 -0.16973259 0.06490556 0.20022926 -0.9775968 0.1875 0.75
-4.136181 0.5891959 -0.123003155 0.095629536 0.66232675 -0.74308705 0.1875 0.8333333
-4.1351795 0.64592755 -0.03640939 0.10058311 0.9458461 -0.30863923 0.1875 0.9166667
-3.859705 0.6282159 0.075420775 0.07164022 0.97561467 0.20747006 0.21875 1
-3.8649032 0.58173597 0.16778181 0.045554064 0.74205846 0.6687856 0.21875 0.083333336
-4.13957 0.65201163 0.06684611 0.07847793 0.9749218 0.20825167 0.1875 0
-3.8725517 0.49540123 0.22440137 0.0073036877 0.31023344 0.95063233 0.21875 0.16666667
-3.8806007 0.3923449 0.23010826 -0.032855228 -0.2040454 0.97840995 0.21875 0.25
-3.8868935 0.30018085 0.18337336 -0.06422202 -0.66371524 0.7452232 0.21875 0.33333334
-3.8897443 0.24360435 0.09671925 -0.078466944 -0.94644123 0.31319612 0.21875 0.41666666
-3.8883886 0.23777501 -0.0066352226 -0.0717791 -0.9765827 -0.20281489 0.21875 0.5
-4.151914 0.39409223 -0.16407657 0.016712483 -0.31574968 -0.94869536 0.1875 0.6666667
-3.8831904 0.28425485 -0.09899628 -0.045890063 -0.7453426 -0.6651004 0.21875 0.5833333
-3.867493 0.47364596 -0.16132286 0.032681074 0.20245351 -0.9787464 0.21875 0.75
-3.8612 0.5658101 -0.11458798 0.0642442 0.664432 -0.7445822 0.21875 0.8333333
-3.8583493 0.6223866 -0.02793384 0.0785068 0.9474697 -0.31006086 0.21875 0.9166667
-3.574968 0.6084905 0.07664248 0.058706883 0.9765745 0.20701624 0.25 1
-3.5771708 0.561807 0.16902082 0.047607772 0.7419704 0.66874015 0.25 0.083333336
-3.859705 0.6282159 0.075420775 0.07164022 0.97561467 0.20747006 0.21875 0
-3.581929 0.4752757 0.22565706 0.023768293 0.30888024 0.9508039 0.25 0.16666667
-3.5879679 0.3720827 0.23137556 -0.0063895173 -0.20634513 0.97845846 0.25 0.25
-3.5936694 0.27987844 0.18464407 -0.034811847 -0.6661889 0.7449702 0.25 0.33333334
-3.5975058 0.22336897 0.09798426 -0.053944778 -0.9482934 0.312777 0.25 0.41666666
-3.598449 0.21769592 -0.005383488 -0.058696993 -0.97739285 -0.20312005 0.25 0.5
-3.5914881 0.3509107 -0.15439816 -0.02402765 -0.31294993 -0.9494657 0.25 0.6666667
-3.875542 0.3705896 -0.15561591 -0.0076575708 -0.31383067 -0.9494481 0.21875 0.6666667
-3.5854492 0.4541037 -0.16011672 0.0062032766 0.20375219 -0.97900283 0.25 0.75
-3.5797477 0.54630804 -0.113385245 0.03479674 0.6659586 -0.74517673 0.25 0.8333333
-3.5759113 0.60281754 -0.0267254 0.054027736 0.9489503 -0.31076437 0.25 0.9166667
-3.2915761 0.5947561 0.07208006 0.039036732 0.97754955 0.20705783 0.28125 1
-3.2909937 0.5479421 0.16441682 0.041889623 0.7421912 0.6688778 0.28125 0.083333336
-3.574968 0.6084905 0.07664248 0.058706883 0.9765745 0.20701624 0.25 0
-3.2926555 0.46126586 0.22100684 0.033503972 0.30805594 0.9507782 0.28125 0.16666667
-3.2961168 0.35795212 0.22668685 0.016185459 -0.20798637 0.9779977 0.28125 0.25
-3.3004496 0.2656838 0.17993492 -0.0054206154 -0.66804695 0.7440993 0.28125 0.33333334
-3.3044934 0.20918402 0.093278185 -0.025567815 -0.9497858 0.31185433 0.28125 0.41666666
-3.5962462 0.26437944 -0.09776187 -0.047769573 -0.74516225 -0.6651702 0.25 0.5833333
-3.3071644 0.2035919 -0.010063749 -0.038913656 -0.9782662 -0.20366913 0.28125 0.5
-3.306085 0.33708206 -0.15899062 -0.03364401 -0.31286606 -0.9492012 0.28125 0.6666667
-3.3026237 0.4403958 -0.16467069 -0.01635038 0.20422275 -0.97878796 0.28125 0.75
-3.298291 0.5326642 -0.11791876 0.0053747566 0.666852 -0.74517083 0.28125 0.8333333
-3.2942472 0.589164 -0.031262044 0.025665598 0.95011526 -0.3108412 0.28125 0.9166667
-3.0159218 0.58889914 0.063298956 0.011083663 0.9781163 0.20776391 0.3125 1
-3.0159218 0.58889914 0.063298956 0.011083663 0.9781163 0.20776391 0.3125 0
-3.2915761 0.5947561 0.07208006 0.039036732 0.97754955 0.20705783 0.28125 0
-3.0125892 0.54203284 0.15555082 0.027731115 0.74230134 0.6694922 0.3125 0.083333336
-3.0107367 0.4552897 0.21203236 0.036915164 0.30743816 0.95085174 0.3125 0.16666667
-3.0108607 0.35191244 0.21760936 0.03623185 -0.20911638 0.9772194 0.3125 0.25
-3.0129282 0.25960103 0.17078748 0.025908506 -0.6691965 0.7426337 0.3125 0.33333334
-3.0163848 0.20309007 0.08411263 0.008700792 -0.9506002 0.31029612 0.3125 0.41666666
-3.0236375 0.244388 -0.11144267 -0.027515497 -0.7459138 -0.6654739 0.3125 0.5833333
-3.307747 0.25040582 -0.102400556 -0.041885857 -0.74548304 -0.66520727 0.28125 0.5833333
-3.02549 0.3311311 -0.16792427 -0.036853705 -0.3133568 -0.9489202 0.3125 0.6666667
-3.025366 0.43450832 -0.17350133 -0.036293384 0.20385183 -0.97832876 0.3125 0.75
-3.0232985 0.5268198 -0.12667945 -0.02593922 0.666892 -0.74470276 0.3125 0.8333333
-3.019842 0.58333075 -0.0400046 -0.00857774 0.9506046 -0.31028596 0.3125 0.9166667
-2.754649 0.5927243 0.051872294 -0.027912421 0.9774405 0.20935866 0.34375 1
-2.754649 0.5927243 0.051872294 -0.027912421 0.9774405 0.20935866 0.34375 0
-2.7484167 0.54590976 0.14400005 0.0033041316 0.7415559 0.6708828 0.34375 0.083333336
-2.742346 0.4592419 0.20030102 0.03359589 0.3065412 0.9512643 0.34375 0.16666667
-2.7380633 0.35594338 0.20568937 0.054890033 -0.2098205 0.97619796 0.34375 0.25
-2.7367163 0.2636929 0.15872136 0.061563265 -0.6692708 0.7404637 0.34375 0.33333334
-3.020305 0.19752172 -0.01919077 -0.010836929 -0.97876585 -0.20469444 0.3125 0.5
-2.7386658 0.20720883 0.071982 0.051870286 -0.9500121 0.3078741 0.34375 0.41666666
-2.7496216 0.24844062 -0.123414785 -0.0027354334 -0.7457784 -0.6661885 0.34375 0.5833333
-2.7556922 0.33510846 -0.17971581 -0.033142474 -0.31412646 -0.9488024 0.34375 0.6666667
-2.759975 0.438407 -0.18510422 -0.054665875 0.2024843 -0.9777585 0.34375 0.75
-2.761322 0.53065753 -0.13813624 -0.06145337 0.66554445 -0.74382395 0.34375 0.8333333
-2.7593725 0.58714163 -0.051396858 -0.05164666 0.9496533 -0.30901662 0.34375 0.9166667
-2.514808 0.6078415 0.039390773 -0.08269632 0.9737271 0.21217188 0.375 1
-2.514808 0.6078415 0.039390773 -0.08269632 0.9737271 0.21217188 0.375 0
-2.5052931 0.56125015 0.13135098 -0.034952186 0.73842484 0.6734293 0.375 0.083333336
-2.4938695 0.47494626 0.18737872 0.022149634 0.30445743 0.9522684 0.375 0.16666667
-2.4835978 0.37205493 0.19246142 0.07331726 -0.21011339 0.9749241 0.375 0.25
-2.4772303 0.2801458 0.14523713 0.10496322 -0.66732985 0.7373287 0.375 0.33333334
-2.7433894 0.2016261 -0.031287003 0.028366685 -0.9780461 -0.2064487 0.34375 0.5
-2.476473 0.2238458 0.058359627 0.10873725 -0.94637614 0.3042176 0.375 0.41666666
-2.4910443 0.26483178 -0.13685267 0.036244262 -0.7436614 -0.66757333 0.375 0.5833333
-2.5024679 0.35113567 -0.19288047 -0.020861786 -0.31460252 -0.9489942 0.375 0.6666667
-2.5127397 0.454027 -0.19796321 -0.0723866 0.199732 -0.97717315 0.375 0.75
-2.519107 0.54593617 -0.15073894 -0.10438581 0.66161835 -0.7425394 0.375 0.8333333
-2.5198643 0.60223615 -0.063861415 -0.1081598 0.9455826 -0.30687928 0.375 0.9166667
-2.3041575 0.6353737 0.027468551 -0.16127054 0.9628352 0.21665688 0.40625 1
-2.3041575 0.6353737 0.027468551 -0.16127054 0.9628352 0.21665688 0.40625 0
-2.2906342 0.58933973 0.11920704 -0.09333622 0.7294263 0.67766196 0.40625 0.083333336
-2.2720222 0.50403535 0.17483726 -0.0002554451 0.29922146 0.9541836 0.40625 0.16666667
-2.253309 0.40231773 0.17945309 0.09300221 -0.20984752 0.97330093 0.40625 0.25
-2.2395084 0.3114421 0.13181771 0.16159429 -0.661026 0.7327564 0.40625 0.33333334
-2.4815295 0.21824047 -0.04489242 0.08363263 -0.9742784 -0.20925365 0.375 0.5
-2.2343185 0.25575843 0.04469507 0.1873925 -0.93575495 0.29874167 0.40625 0.41666666
-2.2526531 0.29622108 -0.15030904 0.09638833 -0.7362163 -0.6698469 0.40625 0.5833333
-2.271265 0.38152552 -0.20593932 0.0034762041 -0.31338137 -0.949621 0.40625 0.6666667
-2.2899783 0.4832431 -0.2105552 -0.09032968 0.19477072 -0.97668064 0.40625 0.75
-2.303779 0.57411885 -0.16291985 -0.15964013 0.65240145 -0.74086934 0.40625 0.8333333
-2.3089688 0.62980247 -0.075797185 -0.18561879 0.9345171 -0.30368346 0.40625 0.9166667
-2.1316464 0.67514825 0.01772232 -0.2764219 0.93474346 0.22326162 0.4375 1
-2.1316464 0.67514825 0.01772232 -0.2764219 0.93474346 0.22326162 0.4375 0
-2.1128514 0.63041186 0.109173834 -0.1822223 0.706181 0.6841809 0.4375 0.083333336
-2.084055 0.5476146 0.16424954 -0.038529467 0.28623527 0.9573843 0.4375 0.16666667
-2.0529728 0.44894177 0.16819195 0.116305895 -0.208342 0.9711162 0.4375 0.25
-2.0279336 0.3608327 0.11994474 0.24073654 -0.6441757 0.72600514 0.4375 0.33333334
-2.2391298 0.2501872 -0.0585705 0.16359463 -0.9631407 -0.21353428 0.40625 0.5
-2.0156465 0.30689615 0.03243568 0.30172318 -0.90801275 0.29064772 0.4375 0.41666666
-2.0381987 0.34632057 -0.16233882 0.19019364 -0.7147068 -0.6730681 0.4375 0.5833333
-2.0669951 0.42911786 -0.21741459 0.046613116 -0.30654323 -0.9507147 0.4375 0.6666667
-2.0980773 0.5277907 -0.22135708 -0.1091864 0.1859356 -0.97647643 0.4375 0.75
-2.1231165 0.6158998 -0.17310987 -0.2347366 0.63148904 -0.7389995 0.4375 0.8333333
-2.1354036 0.6698364 -0.08560076 -0.29583275 0.90711325 -0.29938012 0.4375 0.9166667
-2.0075514 0.7235004 0.011593383 -0.46031597 0.8566585 0.23290649 0.46875 1
-2.0075514 0.7235004 0.011593383 -0.46031597 0.8566585 0.23290649 0.46875 0
-1.9814868 0.6818435 0.102715835 -0.32446852 0.64139074 0.6952253 0.46875 0.083333336
-1.9378465 0.6053339 0.15711963 -0.10105689 0.25154632 0.9625549 0.46875 0.16666667
-1.8883243 0.51447225 0.16022737 0.14633496 -0.20297542 0.9681876 0.46875 0.25
-1.8461894 0.43360472 0.11120631 0.35219303 -0.6007896 0.71764326 0.46875 0.33333334
-2.019404 0.30158433 -0.07088728 0.28330687 -0.93352395 -0.21970493 0.4375 0.5
-1.8227319 0.38439977 0.023191605 0.46494126 -0.83963007 0.28080413 0.46875 0.41666666
-1.850302 0.42169866 -0.17135575 0.3305989 -0.65741587 -0.67713267 0.46875 0.5833333
-1.8939422 0.49820825 -0.22575966 0.117499396 -0.28233448 -0.952093 0.46875 0.6666667
-1.9434645 0.58906996 -0.22886741 -0.12865534 0.16956769 -0.9770847 0.46875 0.75
-1.9855994 0.6699375 -0.17984638 -0.34336242 0.5792619 -0.73929554 0.46875 0.8333333
-2.0090568 0.71914244 -0.09183167 -0.46673512 0.8332166 -0.29649374 0.46875 0.9166667
-1.9120134 0.7932093 0.00912727 -0.5686296 0.79017156 0.22866856 0.5 1
-1.8831447 0.7533095 0.10019083 -0.42347622 0.5919756 0.68573517 0.5 0.083333336
-1.8316847 0.6817001 0.15443042 -0.16370673 0.23584199 0.95790327 0.5 0.16666667
-1.771422 0.59756887 0.15731259 0.14121799 -0.1860541 0.97233814 0.5 0.25
-1.7185042 0.5234586 0.10806508 0.4083709 -0.55590284 0.7240202 0.5 0.33333334
-1.6871102 0.47922704 0.019883696 0.5624467 -0.77619034 0.28492486 0.5 0.41666666
-1.8242372 0.38004187 -0.080233306 0.4569401 -0.86000115 -0.22716422 0.46875 0.5
-1.6856521 0.47672606 -0.08360341 0.56624657 -0.79059815 -0.23306496 0.5 0.5
-1.7145208 0.5166258 -0.17466702 0.42082348 -0.59271556 -0.68672836 0.5 0.5833333
-1.7659808 0.5882352 -0.22890666 0.16292888 -0.23581032 -0.9580437 0.5 0.6666667
-1.8262434 0.6723665 -0.2317889 -0.13841727 0.18518509 -0.9729065 0.5 0.75
-1.8791614 0.7464769 -0.1825414 -0.40287822 0.5558605 -0.7271232 0.5 0.8333333
-1.7788159 0.8850702 -0.08767332 -0.4472928 0.856095 -0.25890282 0.53125 0.9166667
-1.9105554 0.7907084 -0.09436001 -0.56001735 0.77682465 -0.28796542 0.5 0.9166667
-1.7814745 0.8840927 0.015815668 -0.4611211 0.85170263 0.2489375 0.53125 0
-1.9120134 0.7932093 0.00912727 -0.5686296 0.79017156 0.22866856 0.5 0
-1.7183107 0.7581054 0.15772253 -0.16008501 0.2345879 0.95882285 0.53125 0.16666667
-1.6694132 0.6668539 0.15811671 0.08327542 -0.22115384 0.97167706 0.53125 0.25
-1.6257374 0.58831656 0.1067137 0.3069729 -0.62137336 0.7208765 0.53125 0.33333334
-1.5989863 0.5435374 0.017286848 0.44900772 -0.8518017 0.2698628 0.53125 0.41666666
-1.5963277 0.5445149 -0.086201996 0.4640078 -0.84570974 -0.26357514 0.53125 0.5
-1.6184741 0.5909871 -0.1760231 0.34634182 -0.6046246 -0.7172702 0.53125 0.5833333
-1.6594913 0.67050207 -0.22810894 0.13670848 -0.20033757 -0.97014207 0.53125 0.6666667
-1.7083889 0.76175356 -0.2285032 -0.10589888 0.25409436 -0.9613643 0.53125 0.75
-1.7520647 0.8402909 -0.17710018 -0.3182699 0.638839 -0.70042056 0.53125 0.8333333
-1.7814745 0.8840927 0.015815668 -0.4611211 0.85170263 0.2489375 0.53125 1
-1.5977232 0.95510864 -0.075896665 -0.2474214 0.94114447 -0.23028222 0.5625 0.9166667
-1.759328 0.8376204 0.105636716 -0.35681367 0.62479717 0.6944872 0.53125 0.083333336
-1.6015913 0.9511658 0.02748366 -0.2662877 0.92263484 0.27899078 0.5625 0
-1.5913435 0.89782476 0.11561811 -0.2153242 0.66320515 0.7167945 0.5625 0.083333336
-1.5697259 0.80937815 0.1648913 -0.10773963 0.22709191 0.9678953 0.5625 0.16666667
-1.5425308 0.7095252 0.16210052 0.027740113 -0.27349266 0.961474 0.5625 0.25
-1.517045 0.6250216 0.10799359 0.15438099 -0.7035905 0.69363326 0.5625 0.33333334
-1.5000978 0.5785096 0.017068345 0.23863128 -0.94240856 0.23435289 0.5625 0.41666666
-1.4962296 0.5824524 -0.08631182 0.2587773 -0.92138946 -0.28995842 0.5625 0.5
-1.5064775 0.63579345 -0.17444631 0.20843333 -0.6469183 -0.7335204 0.5625 0.5833333
-1.5280951 0.72423995 -0.22371957 0.100024775 -0.19824924 -0.97503453 0.5625 0.6666667
-1.5552902 0.82409286 -0.22092882 -0.036523923 0.29966807 -0.95334417 0.5625 0.75
-1.5807759 0.90859663 -0.1668219 -0.16360877 0.7146867 -0.68004054 0.5625 0.8333333
-1.6015913 0.9511658 0.02748366 -0.2662877 0.92263484 0.27899078 0.5625 1
-1.4007028 0.99047565 -0.060913857 -0.09356881 0.97509927 -0.20106313 0.59375 0.9166667
-1.4059567 0.9839183 0.042272355 -0.11937919 0.94332355 0.30965984 0.59375 0
-1.4048766 0.9268689 0.12865622 -0.11362587 0.6631093 0.7398481 0.59375 0.083333336
-1.397752 0.8346139 0.17509139 -0.07800534 0.20584396 0.9754709 0.59375 0.16666667
-1.3864919 0.73187304 0.16913562 -0.022135146 -0.30890793 0.9508343 0.59375 0.25
-1.3741134 0.6461754 0.11238478 0.03913484 -0.7424435 0.66876465 0.59375 0.33333334
-1.3639334 0.6004838 0.020045161 0.08982358 -0.9749122 0.2036613 0.59375 0.41666666
-1.3586795 0.60704106 -0.08314091 0.11659741 -0.94109637 -0.3174 0.59375 0.5
-1.3597597 0.6640904 -0.16952482 0.11179169 -0.6506991 -0.75106144 0.59375 0.5833333
-1.3668842 0.7563453 -0.21596006 0.07613145 -0.18528278 -0.97973174 0.59375 0.6666667
-1.3781444 0.8590863 -0.21000436 0.019333566 0.32736415 -0.9447005 0.59375 0.75
-1.3905228 0.9447839 -0.1532535 -0.042859633 0.7507067 -0.659244 0.59375 0.8333333
-1.4059567 0.9839183 0.042272355 -0.11937919 0.94332355 0.30965984 0.59375 1
-1.1897296 1.0002447 -0.043559518 0.013563901 0.98482704 -0.17300798 0.625 0.9166667
-1.1963044 0.99130213 0.059371527 -0.018938636 0.9409216 0.33809417 0.625 0
-1.2018815 0.9319875 0.14403932 -0.04638175 0.64782 0.76038027 0.625 0.083333336
-1.2049667 0.83819425 0.18775737 -0.061691213 0.1815094 0.9814523 0.625 0.16666667
-1.204733 0.73505414 0.17881146 -0.060857188 -0.335007 0.94024825 0.625 0.25
-1.2012433 0.65020347 0.11959866 -0.043895744 -0.76272774 0.6452284 0.625 0.33333334
-1.1954325 0.60637796 0.025984962 -0.0149949305 -0.98451084 0.17468151 0.625 0.41666666
-1.1888577 0.61532056 -0.07694593 0.018225197 -0.938971 -0.34351322 0.625 0.5
-1.1832806 0.6746352 -0.16161379 0.04656679 -0.6388676 -0.76790607 0.625 0.5833333
-1.1801955 0.76842844 -0.20533189 0.062053554 -0.16719009 -0.9839699 0.625 0.6666667
-1.1804291 0.87156856 -0.19638604 0.06050646 0.34767297 -0.93566155 0.625 0.75
-1.1839188 0.9564192 -0.13717324 0.042650145 0.7683919 -0.6385568 0.625 0.8333333
-1.1963044 0.99130213 0.059371527 -0.018938636 0.9409216 0.33809417 0.625 1
-0.96564025 0.99035394 -0.02438287 0.08729857 0.98537755 -0.14632155 0.65625 0.9166667
-0.9733984 0.97914743 0.07824373 0.048797976 0.9299771 0.36436433 0.65625 0
-0.9837712 0.9181433 0.16124289 -0.0026596182 0.6273752 0.77871263 0.65625 0.083333336
-0.99397916 0.82368743 0.20237517 -0.053560324 0.15687956 0.98616433 0.65625 0.16666667
-1.0012872 0.72108936 0.19061926 -0.09036072 -0.35674626 0.92982084 0.65625 0.25
-1.003737 0.63784015 0.12912515 -0.103013664 -0.7754128 0.62299544 0.65625 0.33333334
-1.0006722 0.59624624 0.0343701 -0.087831825 -0.985166 0.14742261 0.65625 0.41666666
-0.992914 0.60745275 -0.06825635 -0.048780564 -0.9284818 -0.36816 0.65625 0.5
-0.98254126 0.6684569 -0.15125555 0.0034656944 -0.6210035 -0.78380007 0.65625 0.5833333
-0.97233325 0.76291275 -0.19238791 0.054603744 -0.14691605 -0.98764074 0.65625 0.6666667
-0.96502525 0.8655108 -0.18063205 0.09085388 0.36542034 -0.92639816 0.65625 0.75
-0.9625755 0.94876003 -0.11913794 0.1027188 0.77921104 -0.6182872 0.65625 0.8333333
-0.9733984 0.97914743 0.07824373 0.048797976 0.9299771 0.36436433 0.65625 1
-0.7298881 0.96503794 -0.0038628913 0.13794975 0.9830445 -0.120802455 0.6875 0.9166667
-0.7386725 0.9516225 0.09841543 0.094248936 0.91644514 0.3889027 0.6875 0
-0.75250185 0.8891238 0.1797827 0.025437213 0.60563344 0.7953371 0.6875 0.083333336
-0.76767075 0.7942885 0.21843679 -0.050279375 0.13265902 0.9898856 0.6875 0.16666667
-0.7801146 0.69252765 0.20402037 -0.112698816 -0.3766262 0.91948444 0.6875 0.25
-0.7864991 0.6111078 0.1403963 -0.14494747 -0.78540975 0.6017654 0.6875 0.33333334
-0.7851136 0.57184553 0.044612624 -0.13814485 -0.9829236 0.12156146 0.6875 0.41666666
-0.7763292 0.585261 -0.057665553 -0.094024844 -0.91535324 -0.39151978 0.6875 0.5
-0.7624998 0.64775956 -0.13903287 -0.024565488 -0.6011537 -0.79875576 0.6875 0.5833333
-0.7473309 0.74259484 -0.17768703 0.05137953 -0.12576151 -0.99072915 0.6875 0.6666667
-0.73488706 0.8443558 -0.16327064 0.113379754 0.38255128 -0.9169513 0.6875 0.75
-0.7285025 0.92577565 -0.09964661 0.14498094 0.7879469 -0.59843135 0.6875 0.8333333
-0.7386725 0.9516225 0.09841543 0.094248936 0.91644514 0.3889027 0.6875 1
-0.4846286 0.92779636 0.017522056 0.17216797 0.9803577 -0.09621296 0.71875 0.9166667
-0.49427143 0.9121876 0.11941111 0.12411233 0.90264815 0.41209492 0.71875 0
-0.51055956 0.8482261 0.19917062 0.042926397 0.5839767 0.8106347 0.71875 0.083333336
-0.5291286 0.7530501 0.23542923 -0.049814124 0.10889692 0.99280405 0.71875 0.16666667
-0.54500294 0.65216196 0.2184715 -0.12933011 -0.39588043 0.9091492 0.71875 0.25
-0.5539291 0.57259464 0.15284123 -0.17420699 -0.79485536 0.58125454 0.71875 0.33333334
-0.5535154 0.53566813 0.05612399 -0.17223933 -0.9802887 0.09678765 0.71875 0.41666666
-0.5438725 0.5512768 -0.045764927 -0.12388239 -0.90190107 -0.4137964 0.71875 0.5
-0.5275844 0.6152383 -0.12552448 -0.042204592 -0.5809419 -0.8128501 0.71875 0.5833333
-0.5090153 0.7104143 -0.16178316 0.05072677 -0.104252666 -0.99325633 0.71875 0.6666667
-0.493141 0.8113024 -0.14482547 0.12994155 0.39984575 -0.90732497 0.71875 0.75
-0.4842148 0.89086974 -0.0791952 0.1743265 0.7965333 -0.5789171 0.71875 0.8333333
-0.49427143 0.9121876 0.11941111 0.12411233 0.90264815 0.41209492 0.71875 1
-0.23251575 0.88182724 0.039280403 0.19402732 0.9783232 -0.0723669 0.75 0.9166667
-0.24283355 0.8640162 0.14074126 0.14253725 0.8894595 0.43421772 0.75 0
-0.26078603 0.7985507 0.21890737 0.05294773 0.56283784 0.8248698 0.75 0.083333336
-0.28156286 0.7029722 0.25283438 -0.050857093 0.085457414 0.99504304 0.75 0.16666667
-0.29959688 0.60289085 0.2334315 -0.14111598 -0.4151428 0.8987451 0.75 0.25
-0.31005594 0.5251235 0.16589782 -0.19357657 -0.804687 0.5612549 0.75 0.33333334
-0.31013748 0.4905076 0.06832887 -0.1940602 -0.9782794 0.072870046 0.75 0.41666666
-0.2998197 0.50831866 -0.033131834 -0.14238316 -0.8890271 -0.43515265 0.75 0.5
-0.28186724 0.5737841 -0.11129801 -0.052460596 -0.5609854 -0.82616186 0.75 0.5833333
-0.26109043 0.66936255 -0.14522505 0.051490106 -0.08257371 -0.9952539 0.75 0.6666667
-0.24305639 0.769444 -0.12582225 0.14156194 0.41763794 -0.8975181 0.75 0.75
-0.23259732 0.84721136 -0.05828857 0.19368963 0.80576247 -0.5596706 0.75 0.8333333
-0.24283355 0.8640162 0.14074126 0.14253725 0.8894595 0.43421772 0.75 1
0.02346728 0.8302065 0.06090751 0.2059213 0.97733444 -0.04913234 0.78125 0.9166667
0.012684785 0.8101661 0.16190313 0.15204811 0.87717277 0.4554659 0.78125 0
-0.006245166 0.74312127 0.23848394 0.057491086 0.5422891 0.83822274 0.78125 0.083333336
-0.028250284 0.6470367 0.27013028 -0.052477535 0.062163983 0.9966853 0.78125 0.16666667
-0.047434337 0.5476581 0.24836257 -0.14842942 -0.4347709 0.88822466 0.78125 0.25
-0.058656972 0.47161388 0.17901349 -0.20462842 -0.81533283 0.5416268 0.78125 0.33333334
-0.058911107 0.43928006 0.08066499 -0.20595202 -0.97730154 0.049654257 0.78125 0.41666666
-0.048128627 0.45932043 -0.020330492 -0.15200724 -0.8770574 -0.45570177 0.78125 0.5
-0.029198691 0.52636516 -0.09691131 -0.057274424 -0.5414893 -0.8387543 0.78125 0.5833333
-0.0071935654 0.62244976 -0.12855774 0.05279827 -0.060762934 -0.9967548 0.78125 0.6666667
0.011990495 0.72182834 -0.106790066 0.14867863 0.43608955 -0.8875363 0.78125 0.75
0.023213156 0.79787266 -0.037440997 0.20470189 0.81596726 -0.5406429 0.78125 0.8333333
0.012684785 0.8101661 0.16190313 0.15204811 0.87717277 0.4554659 0.78125 1
0.28011087 0.7759602 0.081888914 0.20909764 0.97753793 -0.026415393 0.8125 0.9166667
0.2691159 0.7536491 0.18238431 0.1541002 0.86585164 0.47597688 0.8125 0
0.24985987 0.6849309 0.25738424 0.05783457 0.522264 0.85082054 0.8125 0.083333336
0.22750238 0.5882187 0.28679267 -0.053913 0.038835686 0.99779016 0.8125 0.16666667
0.20803413 0.48942637 0.26272961 -0.1512255 -0.45499662 0.8775584 0.8125 0.25
0.19667158 0.41502526 0.19164284 -0.20804587 -0.82700574 0.52228194 0.8125 0.33333334
0.19645932 0.38495106 0.092579894 -0.20914161 -0.97751135 0.027042165 0.8125 0.41666666
0.20745426 0.40726212 -0.007915348 -0.15419339 -0.8660879 -0.47551686 0.8125 0.5
0.22671029 0.47598022 -0.08291532 -0.05790609 -0.5224938 -0.8506745 0.8125 0.5833333
0.24906778 0.5726925 -0.11232379 0.053912297 -0.03879593 -0.9977917 0.8125 0.6666667
0.26853606 0.6714848 -0.0882608 0.15127379 0.45529884 -0.8773935 0.8125 0.75
0.2798986 0.74588597 -0.017174017 0.20807257 0.8273016 -0.52180266 0.8125 0.8333333
0.2691159 0.7536491 0.18238431 0.1541002 0.86585164 0.47597688 0.8125 1
0.53403 0.72209406 0.10170379 0.20392215 0.9789783 -0.0041507445 0.84375 0.9166667
0.5231385 0.69745815 0.20166601 0.1493761 0.8554626 0.49585328 0.84375 0
0.504235 0.6269607 0.27508762 0.054796696 0.50263906 0.862758 0.84375 0.083333336
0.4823847 0.5294914 0.30229554 -0.054426204 0.015292546 0.9984006 0.84375 0.16666667
0.46344236 0.4311671 0.2759994 -0.14904384 -0.47599348 0.8667273 0.84375 0.25
0.45248356 0.3583337 0.20324525 -0.20376813 -0.83982474 0.50316286 0.84375 0.33333334
0.4524447 0.33050683 0.103527516 -0.2039837 -0.9789616 0.0049754106 0.84375 0.41666666
0.4633362 0.35514265 0.0035654344 -0.14961559 -0.85612315 -0.49463966 0.84375 0.5
0.4822397 0.42564008 -0.06985621 -0.05516645 -0.5039751 -0.86195457 0.84375 0.5833333
0.50409 0.5231093 -0.09706418 0.054104164 -0.016626522 -0.9983968 0.84375 0.6666667
0.52303237 0.62143373 -0.0707681 0.14889976 0.47533646 -0.8671125 0.84375 0.75
0.53399116 0.69426715 0.001986038 0.20375437 0.8398434 -0.5031374 0.84375 0.8333333
0.5231385 0.69745815 0.20166601 0.1493761 0.8554626 0.49585328 0.84375 1
0.7816768 0.6716006 0.11982812 0.18994716 0.9816344 0.01772302 0.875 0.9166667
0.77130044 0.64457536 0.2192261 0.13790509 0.845909 0.51518935 0.875 0
0.7535225 0.57218575 0.29107088 0.04887816 0.4832521 0.87411577 0.875 0.083333336
0.73310673 0.4738287 0.31611177 -0.0531765 -0.008643468 0.9985478 0.875 0.16666667
0.7155234 0.37585878 0.2876392 -0.14092736 -0.49789435 0.8557106 0.875 0.25
0.7054841 0.30452695 0.21328232 -0.19097713 -0.85384536 0.48422715 0.875 0.33333334
0.70567876 0.27894652 0.11296497 -0.1900174 -0.98164076 -0.016580516 0.875 0.41666666
0.71605515 0.3059717 0.013567131 -0.1382926 -0.84712094 -0.51308995 0.875 0.5
0.7338331 0.37836123 -0.058277678 -0.04954663 -0.48588973 -0.87261456 0.875 0.5833333
0.75424886 0.4767183 -0.083318666 0.05254442 0.0057855984 -0.9986018 0.875 0.6666667
0.7718321 0.57468826 -0.054846134 0.14061244 0.49624208 -0.85672164 0.875 0.75
0.7818715 0.6460202 0.019510765 0.19094309 0.8536188 -0.48463976 0.875 0.8333333
0.77130044 0.64457536 0.2192261 0.13790509 0.845909 0.51518935 0.875 1
1.0193164 0.6274514 0.1357393 0.1657972 0.98537713 0.03928262 0.90625 0.9166667
1.0100126 0.59796715 0.23454271 0.11904078 0.83700424 0.53409106 0.90625 0
0.99431473 0.52357566 0.30480966 0.040338922 0.46389082 0.8849735 0.90625 0.083333336
0.9764288 0.42420998 0.32771227 -0.049063504 -0.033140823 0.9982457 0.90625 0.16666667
0.9611475 0.32649514 0.29711393 -0.12522674 -0.52076334 0.8444666 0.90625 0.25
0.9525654 0.25661373 0.22121328 -0.16791317 -0.869016 0.46542063 0.90625 0.33333334
0.952982 0.23329039 0.12034796 -0.1658402 -0.9854334 -0.037655123 0.90625 0.41666666
0.9622858 0.2627746 0.021544684 -0.11955074 -0.83897585 -0.5308739 0.90625 0.5
0.9779838 0.33716607 -0.048722338 -0.041279096 -0.46818736 -0.8826645 0.90625 0.5833333
0.9958697 0.43653172 -0.07162501 0.048160154 0.028434869 -0.99843484 0.90625 0.6666667
1.011151 0.53424656 -0.041026678 0.12479037 0.51797307 -0.8462453 0.90625 0.75
1.0197331 0.604128 0.034873944 0.16790691 0.8685505 -0.46629095 0.90625 0.8333333
1.0100126 0.59796715 0.23454271 0.11904078 0.83700424 0.53409106 0.90625 1
1.2429585 0.5925646 0.14892536 0.1288432 0.9898068 0.060678225 0.9375 0.9166667
1.2355126 0.56056255 0.24710083 0.091291144 0.82834756 0.5527261 0.9375 0
1.2231584 0.4840879 0.31578103 0.02923407 0.4442417 0.89542985 0.9375 0.083333336
1.2092061 0.38363197 0.33656326 -0.040489756 -0.058320507 0.9974764 0.9375 0.16666667
1.1973944 0.28611177 0.303879 -0.099222116 -0.544472 0.8328897 0.9375 0.25
1.1908882 0.21765782 0.22648594 -0.13145305 -0.88501006 0.44662884 0.9375 0.33333334
1.1914308 0.19661221 0.1251215 -0.12875067 -0.9899611 -0.058312695 0.9375 0.41666666
1.1988767 0.22861414 0.026946168 -0.09182296 -0.83141977 -0.5480053 0.9375 0.5
1.211231 0.30508873 -0.041734073 -0.030342963 -0.45080325 -0.8921074 0.9375 0.5833333
1.2251832 0.4055447 -0.06251636 0.039427944 0.051188737 -0.9979104 0.9375 0.6666667
1.236995 0.5030649 -0.029832158 0.0987846 0.5402608 -0.83567935 0.9375 0.75
1.2435012 0.5715189 0.047560897 0.13159272 0.8842872 -0.44801724 0.9375 0.8333333
1.2355126 0.56056255 0.24710083 0.091291144 0.82834756 0.5527261 0.9375 1
1.4482224 0.5697175 0.1589056 0.07444969 0.99382687 0.08225232 0.96875 0.9166667
1.443784 0.5351943 0.25640655 0.051890567 0.81901026 0.57142776 0.96875 0
1.4365517 0.4566543 0.32346722 0.015422568 0.4237777 0.90563494 0.96875 0.083333336
1.4284633 0.35514247 0.342119 -0.02496195 -0.08410873 0.9961439 0.96875 0.16666667
1.4216864 0.2578587 0.30736408 -0.058486834 -0.5683301 0.8207193 0.96875 0.25
1.4180365 0.19087012 0.22851503 -0.07641672 -0.90074646 0.42757013 0.96875 0.33333334
1.4184918 0.17212622 0.12669942 -0.07415372 -0.99413276 -0.0787481 0.96875 0.41666666
1.4229302 0.20664945 0.029198606 -0.052280314 -0.82373 -0.5645668 0.96875 0.5
1.4301625 0.28518933 -0.037862163 -0.01642473 -0.4336084 -0.90095174 0.96875 0.5833333
1.4382509 0.3867012 -0.056513976 0.024031868 0.07358276 -0.9969995 0.96875 0.6666667
1.4450278 0.483985 -0.021759104 0.0582417 0.5622225 -0.8249325 0.96875 0.75
1.4486778 0.55097365 0.05708996 0.07678506 0.8997484 -0.42960092 0.96875 0.8333333
1.443784 0.5351943 0.25640655 0.051890567 0.81901026 0.57142776 0.96875 1
1.63118 0.5613202 0.16528375 0.046426594 0.99340016 0.1048842 1 0.9166667
1.63118 0.5244473 0.2620225 0.03303809 0.80645865 0.59036666 1 0
1.63118 0.44414514 0.3273641 0.011947707 0.40202364 0.91555136 1 0.083333336
1.63118 0.34193063 0.34380057 -0.011011881 -0.109203294 0.9939584 1 0.16666667
1.63118 0.24519205 0.30692768 -0.029746104 -0.589568 0.80717075 1 0.25
1.63118 0.1798504 0.22662559 -0.0394778 -0.9124975 0.40717316 1 0.33333334
1.63118 0.16341391 0.12441109 -0.037789736 -0.9942721 -0.099974915 1 0.41666666
1.63118 0.20028675 0.02767248 -0.025078101 -0.8131991 -0.5814449 1 0.5
1.63118 0.28058884 -0.0376692 -0.0044983886 -0.41518417 -0.90972626 1 0.5833333
1.63118 0.38280335 -0.054105703 0.018626459 0.095508754 -0.9952544 1 0.6666667
1.63118 0.479542 -0.017232884 0.038037367 0.5817612 -0.8124697 1 0.75
1.63118 0.5448837 0.06306924 0.04828058 0.9110931 -0.40936333 1 0.8333333
1.63118 0.5244473 0.2620225 0.03303809 0.80645865 0.59036666 1 1
3 0 1 2
3 3 4 5
3 6 5 7
3 8 6 7
3 9 10 8
3 11 12 9
3 13 14 11
3 15 16 13
3 17 18 15
3 19 17 20
3 21 20 22
3 23 22 1
3 24 23 0
3 25 26 3
3 27 3 6
3 10 27 6
3 12 28 10
3 14 29 12
3 16 30 14
3 18 31 16
3 32 33 18
3 34 32 19
3 35 19 21
3 36 21 23
3 37 36 24
3 38 39 25
3 40 25 27
3 28 40 27
3 29 41 28
3 30 42 29
3 31 43 30
3 33 44 31
3 45 46 33
3 47 45 34
3 48 34 35
3 49 35 36
3 50 49 37
3 51 52 38
3 53 38 40
3 41 53 40
3 42 54 41
3 43 55 42
3 44 56 43
3 46 57 44
3 58 59 46
3 60 58 47
3 61 47 48
3 62 48 49
3 63 62 50
3 64 65 51
3 66 51 53
3 54 66 53
3 55 67 54
3 56 68 55
3 57 69 56
3 59 70 57
3 71 72 59
3 73 71 60
3 74 60 61
3 75 61 62
3 76 75 63
3 77 78 64
3 79 64 66
3 67 79 66
3 68 80 67
3 69 81 68
3 70 82 69
3 72 83 70
3 84 85 72
3 86 84 73
3 87 73 74
3 88 74 75
3 89 88 76
3 90 91 77
3 92 77 79
3 80 92 79
3 81 93 80
3 82 94 81
3 83 95 82
3 85 96 83
3 97 98 85
3 99 97 86
3 100 86 87
3 101 87 88
3 102 101 89
3 103 104 90
3 92 103 90
3 93 105 92
3 94 106 93
3 95 107 94
3 96 108 95
3 98 109 96
3 110 98 111
3 112 111 99
3 113 99 100
3 114 100 101
3 115 114 102
3 116 117 103
3 105 116 103
3 106 118 105
3 107 119 106
3 108 120 107
3 109 121 108
3 122 123 109
3 124 122 110
3 125 110 112
3 126 112 113
3 127 113 114
3 128 127 115
3 116 129 130
3 118 131 116
3 119 132 118
3 120 133 119
3 121 134 120
3 123 135 121
3 136 123 137
3 138 137 124
3 139 124 125
3 140 125 126
3 141 126 127
3 142 141 128
3 131 143 129
3 132 144 131
3 133 145 132
3 134 146 133
3 135 147 134
3 148 149 135
3 150 148 136
3 151 136 138
3 152 138 139
3 153 139 140
3 154 140 141
3 155 154 142
3 144 156 143
3 145 157 144
3 146 158 145
3 147 159 146
3 149 160 147
3 161 162 149
3 163 161 150
3 164 150 151
3 165 151 152
3 166 152 153
3 167 153 154
3 168 167 155
3 157 169 156
3 158 170 157
3 159 171 158
3 160 172 159
3 162 173 160
3 174 175 162
3 176 174 163
3 177 163 164
3 178 164 165
3 179 165 166
3 180 166 167
3 181 180 168
3 170 182 169
3 171 183 170
3 172 184 171
3 173 185 172
3 175 186 173
3 187 188 175
3 189 187 176
3 190 176 177
3 191 177 178
3 192 178 179
3 193 179 180
3 194 193 181
3 183 195 182
3 184 196 183
3 185 197 184
3 186 198 185
3 188 199 186
3 200 201 188
3 202 200 189
3 203 189 190
3 204 190 191
3 205 191 192
3 206 192 193
3 207 206 194
3 208 195 196
3 209 196 197
3 210 197 198
3 211 198 199
3 212 199 201
3 213 212 201
3 202 214 213
3 203 215 202
3 204 216 203
3 205 217 204
3 206 218 205
3 207 219 220
3 208 221 222
3 223 208 209
3 224 209 210
3 225 210 211
3 226 211 212
3 214 226 212
3 215 227 214
3 216 228 215
3 217 229 216
3 218 230 217
3 220 231 218
3 232 233 219
3 234 235 221
3 223 236 234
3 224 237 223
3 225 238 224
3 226 239 225
3 227 240 226
3 228 241 227
3 229 242 228
3 230 243 229
3 231 244 230
3 219 245 231
3 246 247 233
3 236 248 235
3 237 249 236
3 238 250 237
3 239 251 238
3 240 252 239
3 241 253 240
3 242 254 241
3 243 255 242
3 244 256 243
3 245 257 244
3 233 258 245
3 259 260 247
3 249 261 248
3 250 262 249
3 251 263 250
3 252 264 251
3 253 265 252
3 254 266 253
3 255 267 254
3 256 268 255
3 257 269 256
3 258 270 257
3 247 271 258
3 272 273 260
3 262 274 261
3 263 275 262
3 264 276 263
3 265 277 264
3 266 278 265
3 267 279 266
3 268 280 267
3 269 281 268
3 270 282 269
3 271 283 270
3 260 284 271
3 285 286 273
3 275 287 274
3 276 288 275
3 277 289 276
3 278 290 277
3 279 291 278
3 280 292 279
3 281 293 280
3 282 294 281
3 283 295 282
3 284 296 283
3 273 297 284
3 298 299 286
3 288 300 287
3 289 301 288
3 290 302 289
3 291 303 290
3 292 304 291
3 293 305 292
3 294 306 293
3 295 307 294
3 296 308 295
3 297 309 296
3 286 310 297
3 311 312 299
3 301 313 300
3 302 314 301
3 303 315 302
3 304 316 303
3 305 317 304
3 306 318 305
3 307 319 306
3 308 320 307
3 309 321 308
3 310 322 309
3 299 323 310
3 324 325 312
3 314 326 313
3 315 327 314
3 316 328 315
3 317 329 316
3 318 330 317
3 319 331 318
3 320 332 319
3 321 333 320
3 322 334 321
3 323 335 322
3 312 336 323
3 337 338 325
3 327 339 326
3 328 340 327
3 329 341 328
3 330 342 329
3 331 343 330
3 332 344 331
3 333 345 332
3 334 346 333
3 335 347 334
3 336 348 335
3 325 349 336
3 350 351 338
3 340 352 339
3 341 353 340
3 342 354 341
3 343 355 342
3 344 356 343
3 345 357 344
3 346 358 345
3 347 359 346
3 348 360 347
3 349 361 348
3 338 362 349
3 363 364 351
3 353 365 352
3 354 366 353
3 355 367 354
3 356 368 355
3 357 369 356
3 358 370 357
3 359 371 358
3 360 372 359
3 361 373 360
3 362 374 361
3 351 375 362
3 376 377 364
3 366 378 365
3 367 379 366
3 368 380 367
3 369 381 368
3 370 382 369
3 371 383 370
3 372 384 371
3 373 385 372
3 374 386 373
3 375 387 374
3 364 388 375
3 389 390 377
3 379 391 378
3 380 392 379
3 381 393 380
3 382 394 381
3 383 395 382
3 384 396 383
3 385 397 384
3 386 398 385
3 387 399 386
3 388 400 387
3 377 401 388
3 402 403 390
3 392 404 391
3 393 405 392
3 394 406 393
3 395 407 394
3 396 408 395
3 397 409 396
3 398 410 397
3 399 411 398
3 400 412 399
3 401 413 400
3 390 414 401
3 415 416 403
3 405 417 404
3 406 418 405
3 407 419 406
3 408 420 407
3 409 421 408
3 410 422 409
3 411 423 410
3 412 424 411
3 413 425 412
3 414 426 413
3 403 427 414
3 0 23 1
3 3 26 4
3 6 3 5
3 8 10 6
3 9 12 10
3 11 14 12
3 13 16 14
3 15 18 16
3 17 32 18
3 19 32 17
3 21 19 20
3 23 21 22
3 24 36 23
3 25 39 26
3 27 25 3
3 10 28 27
3 12 29 28
3 14 30 29
3 16 31 30
3 18 33 31
3 32 45 33
3 34 45 32
3 35 34 19
3 36 35 21
3 37 49 36
3 38 52 39
3 40 38 25
3 28 41 40
3 29 42 41
3 30 43 42
3 31 44 43
3 33 46 44
3 45 58 46
3 47 58 45
3 48 47 34
3 49 48 35
3 50 62 49
3 51 65 52
3 53 51 38
3 41 54 53
3 42 55 54
3 43 56 55
3 44 57 56
3 46 59 57
3 58 71 59
3 60 71 58
3 61 60 47
3 62 61 48
3 63 75 62
3 64 78 65
3 66 64 51
3 54 67 66
3 55 68 67
3 56 69 68
3 57 70 69
3 59 72 70
3 71 84 72
3 73 84 71
3 74 73 60
3 75 74 61
3 76 88 75
3 77 91 78
3 79 77 64
3 67 80 79
3 68 81 80
3 69 82 81
3 70 83 82
3 72 85 83
3 84 97 85
3 86 97 84
3 87 86 73
3 88 87 74
3 89 101 88
3 90 104 91
3 92 90 77
3 80 93 92
3 81 94 93
3 82 95 94
3 83 96 95
3 85 98 96
3 97 111 98
3 99 111 97
3 100 99 86
3 101 100 87
3 102 114 101
3 103 117 104
3 92 105 103
3 93 106 105
3 94 107 106
3 95 108 107
3 96 109 108
3 98 122 109
3 110 122 98
3 112 110 111
3 113 112 99
3 114 113 100
3 115 127 114
3 116 130 117
3 105 118 116
3 106 119 118
3 107 120 119
3 108 121 120
3 109 123 121
3 122 137 123
3 124 137 122
3 125 124 110
3 126 125 112
3 127 126 113
3 128 141 127
3 116 131 129
3 118 132 131
3 119 133 132
3 120 134 133
3 121 135 134
3 123 148 135
3 136 148 123
3 138 136 137
3 139 138 124
3 140 139 125
3 141 140 126
3 142 154 141
3 131 144 143
3 132 145 144
3 133 146 145
3 134 147 146
3 135 149 147
3 148 161 149
3 150 161 148
3 151 150 136
3 152 151 138
3 153 152 139
3 154 153 140
3 155 167 154
3 144 157 156
3 145 158 157
3 146 159 158
3 147 160 159
3 149 162 160
3 161 174 162
3 163 174 161
3 164 163 150
3 165 164 151
3 166 165 152
3 167 166 153
3 168 180 167
3 157 170 169
3 158 171 170
3 159 172 171
3 160 173 172
3 162 175 173
3 174 187 175
3 176 187 174
3 177 176 163
3 178 177 164
3 179 178 165
3 180 179 166
3 181 193 180
3 170 183 182
3 171 184 183
3 172 185 184
3 173 186 185
3 175 188 186
3 187 200 188
3 189 200 187
3 190 189 176
3 191 190 177
3 192 191 178
3 193 192 179
3 194 206 193
3 183 196 195
3 184 197 196
3 185 198 197
3 186 199 198
3 188 201 199
3 200 213 201
3 202 213 200
3 203 202 189
3 204 203 190
3 205 204 191
3 206 205 192
3 207 220 206
3 208 222 195
3 209 208 196
3 210 209 197
3 211 210 198
3 212 211 199
3 213 214 212
3 202 215 214
3 203 216 215
3 204 217 216
3 205 218 217
3 206 220 218
3 207 232 219
3 208 234 221
3 223 234 208
3 224 223 209
3 225 224 210
3 226 225 211
3 214 227 226
3 215 228 227
3 216 229 228
3 217 230 229
3 218 231 230
3 220 219 231
3 232 246 233
3 234 236 235
3 223 237 236
3 224 238 237
3 225 239 238
3 226 240 239
3 227 241 240
3 228 242 241
3 229 243 242
3 230 244 243
3 231 245 244
3 219 233 245
3 246 259 247
3 236 249 248
3 237 250 249
3 238 251 250
3 239 252 251
3 240 253 252
3 241 254 253
3 242 255 254
3 243 256 255
3 244 257 256
3 245 258 257
3 233 247 258
3 259 272 260
3 249 262 261
3 250 263 262
3 251 264 263
3 252 265 264
3 253 266 265
3 254 267 266
3 255 268 267
3 256 269 268
3 257 270 269
3 258 271 270
3 247 260 271
3 272 285 273
3 262 275 274
3 263 276 275
3 264 277 276
3 265 278 277
3 266 279 278
3 267 280 279
3 268 281 280
3 269 282 281
3 270 283 282
3 271 284 283
3 260 273 284
3 285 298 286
3 275 288 287
3 276 289 288
3 277 290 289
3 278 291 290
3 279 292 291
3 280 293 292
3 281 294 293
3 282 295 294
3 283 296 295
3 284 297 296
3 273 286 297
3 298 311 299
3 288 301 300
3 289 302 301
3 290 303 302
3 291 304 303
3 292 305 304
3 293 306 305
3 294 307 306
3 295 308 307
3 296 309 308
3 297 310 309
3 286 299 310
3 311 324 312
3 301 314 313
3 302 315 314
3 303 316 315
3 304 317 316
3 305 318 317
3 306 319 318
3 307 320 319
3 308 321 320
3 309 322 321
3 310 323 322
3 299 312 323
3 324 337 325
3 314 327 326
3 315 328 327
3 316 329 328
3 317 330 329
3 318 331 330
3 319 332 331
3 320 333 332
3 321 334 333
3 322 335 334
3 323 336 335
3 312 325 336
3 337 350 338
3 327 340 339
3 328 341 340
3 329 342 341
3 330 343 342
3 331 344 343
3 332 345 344
3 333 346 345
3 334 347 346
3 335 348 347
3 336 349 348
3 325 338 349
3 350 363 351
3 340 353 352
3 341 354 353
3 342 355 354
3 343 356 355
3 344 357 356
3 345 358 357
3 346 359 358
3 347 360 359
3 348 361 360
3 349 362 361
3 338 351 362
3 363 376 364
3 353 366 365
3 354 367 366
3 355 368 367
3 356 369 368
3 357 370 369
3 358 371 370
3 359 372 371
3 360 373 372
3 361 374 373
3 362 375 374
3 351 364 375
3 376 389 377
3 366 379 378
3 367 380 379
3 368 381 380
3 369 382 381
3 370 383 382
3 371 384 383
3 372 385 384
3 373 386 385
3 374 387 386
3 375 388 387
3 364 377 388
3 389 402 390
3 379 392 391
3 380 393 392
3 381 394 393
3 382 395 394
3 383 396 395
3 384 397 396
3 385 398 397
3 386 399 398
3 387 400 399
3 388 401 400
3 377 390 401
3 402 415 403
3 392 405 404
3 393 406 405
3 394 407 406
3 395 408 407
3 396 409 408
3 397 410 409
3 398 411 410
3 399 412 411
3 400 413 412
3 401 414 413
3 390 403 414
3 415 428 416
3 405 418 417
3 406 419 418
3 407 420 419
3 408 421 420
3 409 422 421
3 410 423 422
3 411 424 423
3 412 425 424
3 413 426 425
3 414 427 426
3 403 416 427
