ply
format ascii 1.0
comment Created in Blender version 4.1.1
element vertex 327
property float x
property float y
property float z
property float nx
property float ny
property float nz
property float u
property float v
element face 566
property list uchar uint vertex_indices
end_header
0.6220472 1.1389952 -2.3200378 -0.49678847 -0.78674316 -0.36638266 0.496445 0.10770297
0.56122947 1.1822262 -2.355056 -0.2990444 -0.9069656 -0.29662403 0.493186 0.13220102
0.7646916 0.9318228 -2.356036 -0.97661465 -0.15308516 -0.15095964 0.489621 0.8577
0.69313455 1.0982666 -2.354323 -0.65142715 -0.7042067 -0.2823748 0.521248 0.092890024
0.6393435 1.1727266 -2.4159229 -0.52272576 -0.82122535 -0.22879386 0.524079 0.12460399
0.7464025 1.0310783 -2.378932 -0.8991758 -0.40592793 -0.16341767 0.514117 0.883058
0.69313455 1.0982666 -2.354323 -0.80213195 -0.56066126 -0.20553155 0.523616 0.917995
0.49646926 1.2042036 -2.391926 -0.17284442 -0.94937813 -0.26230893 0.491962 0.15683198
0.5491822 1.2165842 -2.4714699 -0.30995205 -0.93157107 -0.1900132 0.523875 0.15972698
0.7146566 1.1085024 -2.466239 -0.8532451 -0.5201382 -0.03780402 0.556271 0.89907
0.7146566 1.1085024 -2.466239 -0.72150815 -0.689079 -0.06779536 0.551807 0.10493499
0.75467753 0.7687636 -2.433866 -0.96917754 0.23247504 0.08154896 0.489584 0.806249
0.76950336 0.99981123 -2.456111 -0.95812476 -0.27840355 -0.06699581 0.534679 0.861992
0.78034616 0.8908921 -2.455801 -0.99885625 0.046567466 0.010853701 0.519037 0.831419
0.63417935 1.1922531 -2.526558 -0.58077914 -0.8139043 -0.015981955 0.551638 0.147448
0.5540674 1.230299 -2.573745 -0.41803 -0.90763414 -0.038094506 0.543769 0.18021798
0.73010135 0.71658045 -2.5548892 -0.9322689 0.3168792 0.17453438 0.509062 0.765763
0.68308234 0.6255227 -2.535893 -0.79956794 0.58057904 0.15368508 0.477103 0.74243903
0.62037635 0.55111414 -2.5343652 -0.7017271 0.6828916 0.2030715 0.454044 0.71999204
0.7516682 1.040185 -2.546879 -0.8920826 -0.4150161 0.17874627 0.56817 0.860767
0.77807546 0.9509745 -2.53194 -0.98804945 -0.08563274 0.12816148 0.545114 0.833506
0.68881726 1.1170816 -2.591478 -0.7507077 -0.633941 0.18589446 0.583948 0.13842303
0.76069856 0.84158903 -2.569915 -0.95961726 0.16346878 0.22893836 0.539096 0.79223204
0.68881726 1.1170816 -2.591478 -0.81361735 -0.45371914 0.36354595 0.604928 0.87790203
0.5355904 1.2395658 -2.689341 -0.14552975 -0.97607684 -0.16154 0.568457 0.21751899
0.6063535 1.2036343 -2.623128 -0.6272652 -0.7761382 0.06440346 0.569462 0.17691702
0.5402434 0.49947456 -2.603316 -0.5782523 0.7715658 0.2651613 0.439856 0.67871
0.1968944 1.0081882 -2.6528692 0.73465604 0.23370239 -0.63691723 0.460646 0.324354
0.7623894 0.9550038 -2.5929132 -0.91775715 -0.10665681 0.3825522 0.565819 0.826492
0.29799628 1.119564 -2.7125192 0.6484863 -0.7366584 0.1918334 0.516543 0.297086
0.7341492 1.0145245 -2.616859 -0.7919707 -0.33108178 0.5129984 0.587971 0.84306
0.42808223 1.2086344 -2.734395 0.4817689 -0.8750787 0.046216205 0.559029 0.25184703
0.64940333 1.1287794 -2.658741 -0.8108868 -0.5849972 0.015519087 0.595726 0.16128099
0.70041347 0.9959441 -2.6642761 -0.8843013 -0.26209363 0.38641697 0.60243 0.82269096
0.20784426 0.8794356 -2.6874819 0.7188458 0.28879413 -0.6323438 0.448944 0.386252
0.69446254 0.66309077 -2.612568 -0.835558 0.48151934 0.26454106 0.507595 0.729823
0.64069533 0.60342795 -2.640073 -0.74786097 0.6281497 0.2147831 0.495308 0.700006
0.6077564 1.2022886 -2.6840482 -0.58960223 -0.7397763 -0.3241916 0.58655 0.19324303
0.64940333 1.1287794 -2.658741 -0.9473811 -0.31911847 0.02514812 0.630852 0.871087
0.7332604 0.89251906 -2.649518 -0.8823234 -0.02881445 0.46976084 0.570394 0.786349
0.6600125 1.1346521 -2.689779 -0.60157627 -0.42262733 -0.67785853 0.603339 0.16659099
0.6600125 1.1346521 -2.689779 -0.74510026 -0.21557431 -0.6311524 0.639333 0.867048
0.68508124 1.038146 -2.687869 -0.8479528 -0.20288989 -0.48970577 0.615272 0.829972
0.18861938 1.0074625 -2.7319932 0.71871454 -0.6432853 0.26388142 0.49498 0.35053903
0.70213914 0.7344189 -2.6790462 -0.93370736 0.30538887 0.18689108 0.547555 0.72636604
0.39901042 0.4136267 -2.619847 -0.4658612 0.7916353 0.39533135 0.382817 0.63382
0.15810633 0.9240237 -2.728492 0.732919 0.24636054 -0.63414204 0.481381 0.379502
0.23760533 0.75463206 -2.682053 0.5332629 0.12615962 0.8364894 0.426318 0.434816
0.46498227 0.4892054 -2.693449 -0.3455926 0.8131728 0.46831152 0.448001 0.62581503
0.6204674 1.229516 -2.737381 -0.42780784 -0.84366137 -0.32437015 0.606964 0.19786799
0.7042043 1.0682783 -2.6998172 -0.47473344 -0.08955077 -0.875562 0.634021 0.838243
0.2534454 0.7727385 -2.694882 0.89438206 0.40951124 -0.17994794 0.439446 0.434681
0.28019428 0.6933585 -2.6999621 0.92353874 0.3170295 0.21579719 0.433577 0.46783602
0.5806525 1.2542219 -2.777276 -0.15215787 -0.9859115 -0.06947307 0.604443 0.22522098
0.75694346 1.0238895 -2.728005 -0.61923265 -0.046904787 -0.7838053 0.639875 0.816151
0.71520543 1.1210423 -2.71514 -0.57070494 -0.18165001 -0.8008115 0.651219 0.837386
0.77703214 1.0956097 -2.7816272 -0.8416964 -0.2556016 -0.47562066 0.671395 0.812889
0.72096133 0.98482424 -2.712666 -0.5330942 0.117770165 -0.83781904 0.618874 0.80586
0.80515647 1.002675 -2.775913 -0.8865722 -0.12235503 -0.4461156 0.655266 0.791493
0.7107465 0.91270167 -2.71406 -0.88833857 0.05556363 -0.4558149 0.595699 0.77888
0.7087405 0.8521815 -2.700582 -0.9917679 0.025598861 0.12546395 0.581819 0.761322
0.36805844 1.149642 -2.833271 0.6387955 -0.75372946 0.15437642 0.569057 0.299658
0.71520543 1.1210423 -2.71514 -0.6568635 -0.46066967 -0.5969203 0.631358 0.153296
0.70040536 1.183011 -2.754043 -0.6189885 -0.67982376 -0.39331022 0.627827 0.17970699
0.77703214 1.0956097 -2.7816272 -0.7944716 -0.49273586 -0.35500175 0.661344 0.15258402
0.79173636 0.95866495 -2.7579532 -0.6810065 0.20760503 -0.7022324 0.639473 0.78126
0.16453838 0.79778486 -2.772495 0.6717528 0.3479282 -0.65398335 0.480812 0.42478
0.5662043 0.55542 -2.722502 -0.57804155 0.78305477 0.22955 0.49428 0.65388
0.3680303 0.4393492 -2.697174 -0.3719131 0.63459843 0.67746997 0.394577 0.596202
0.73294425 1.1768942 -2.801759 -0.6635773 -0.7116329 -0.23074591 0.649188 0.187159
0.75620437 0.88570505 -2.765794 -0.73262626 0.31934416 -0.60106415 0.612376 0.756149
0.29249835 0.6709452 -2.729707 0.84658664 0.4670217 -0.2553073 0.446903 0.483419
0.32105517 0.60312563 -2.719223 0.73769 0.42016858 0.5284618 0.432737 0.514933
0.64212537 0.63993365 -2.753731 -0.78039944 0.6169152 0.10194252 0.53709 0.679461
0.53790736 1.2518244 -2.8255382 0.13387498 -0.99018955 0.040024664 0.614036 0.247774
0.6621773 1.226201 -2.8483372 -0.4261536 -0.9046471 -0.0025863275 0.645467 0.22027999
0.25588536 1.0423918 -2.830051 0.71984535 -0.6532959 0.23457877 0.536429 0.34079403
0.7116082 0.79250914 -2.746283 -0.94681966 0.23077948 -0.22421704 0.580119 0.729915
0.23126245 0.74064356 -2.7477632 0.64461964 0.42278466 -0.63696057 0.462494 0.44909298
0.39512038 0.48589328 -2.714391 -0.23992991 0.39058083 0.88875204 0.420972 0.593004
0.47274613 1.2237368 -2.8803182 0.46418473 -0.8803867 0.09722096 0.612465 0.269746
0.7603233 1.1561775 -2.839687 -0.7528675 -0.65372145 -0.07641219 0.666146 0.18321103
0.8121636 0.92063624 -2.819777 -0.894746 0.28343558 -0.34509987 0.651607 0.754923
0.12234044 0.8274985 -2.806038 0.8015048 0.27786916 -0.52950805 0.502897 0.41915703
0.6860802 0.7094336 -2.7685041 -0.87711674 0.47673905 -0.058190774 0.561423 0.701333
0.3437674 0.5900908 -2.746457 0.71708155 0.69026333 -0.096594565 0.45023 0.52593696
0.33841538 0.52718073 -2.7295022 -0.046243835 0.01321755 0.9988428 0.417017 0.547889
0.40219522 0.5313578 -2.7335372 0.22227558 0.7514593 0.6212104 0.447003 0.577096
0.47715354 0.53226286 -2.793137 -0.20898482 0.9528963 0.21980458 0.490423 0.60073197
0.16383243 0.9181624 -2.844007 0.7908425 -0.4933805 0.36213785 0.523446 0.385509
0.82729316 0.9909182 -2.861302 -0.9919717 -0.085119516 -0.09352479 0.676909 0.76341903
0.33123422 0.47344592 -2.733324 -0.31354827 0.19606282 0.92911077 0.389549 0.56412804
0.7830503 0.8248263 -2.871986 -0.8385113 0.48670644 -0.24498105 0.642104 0.712309
0.7234285 0.7568045 -2.819758 -0.8417984 0.48327345 -0.24046251 0.594784 0.70181
0.18991327 0.6784592 -2.818792 0.6325561 0.45217797 -0.6288147 0.499283 0.45894003
0.27842426 0.62851435 -2.7811322 0.5757659 0.5262453 -0.6257472 0.474873 0.490215
0.36856246 0.54312617 -2.794343 0.35808346 0.8914999 -0.27749652 0.477751 0.560354
0.8066504 1.0864248 -2.864211 -0.85866565 -0.5090474 0.059700273 0.692373 0.16425198
0.8066504 1.0864248 -2.864211 -0.96276474 -0.21315719 -0.16627683 0.696213 0.789384
0.20812535 0.95500475 -2.886887 0.79975766 -0.53851706 0.26530552 0.542229 0.378478
0.66878724 0.6757594 -2.840809 -0.74937713 0.66160387 -0.026724879 0.570148 0.671787
0.25979638 0.5783835 -2.834656 0.5245342 0.6560596 -0.54263216 0.499925 0.50085604
0.58432937 0.6013728 -2.860218 -0.54948133 0.8242044 0.13695784 0.552792 0.62948096
0.41982532 1.1772041 -2.919363 0.63673675 -0.7553325 0.1550452 0.597355 0.30311
0.7562854 1.1517258 -2.910727 -0.73560804 -0.6491574 0.19358584 0.682832 0.198564
0.13194537 0.7275992 -2.852466 0.91916674 0.33591625 -0.2056523 0.514661 0.445987
0.34283948 1.1011839 -2.9318142 0.69634694 -0.69105583 0.19375934 0.585049 0.326401
0.119570255 0.80631167 -2.861205 0.96390504 -0.040702723 0.2631168 0.519214 0.42761803
0.5655606 1.2441988 -2.9585352 0.017073622 -0.99206364 0.12457206 0.655053 0.265315
0.25735736 1.0118866 -2.917448 0.76541096 -0.60453624 0.22063999 0.558961 0.35974097
0.1711564 0.86763674 -2.9123392 0.8879939 -0.35877478 0.28765875 0.540976 0.409347
0.3295195 0.5310698 -2.85213 0.24825816 0.963379 -0.101334885 0.50484 0.53157103
0.8105643 1.0420961 -2.935183 -0.8295939 -0.4462821 0.33556843 0.721602 0.17131901
0.8105643 1.0420961 -2.935183 -0.9739512 -0.16682042 0.15359032 0.70858 0.76029503
0.8224795 0.8903857 -2.9029212 -0.9609967 0.2714311 -0.053014487 0.670305 0.72434103
0.14135528 0.8074866 -2.897336 0.85531557 -0.18510105 0.4839141 0.530336 0.425835
0.65301824 0.65971285 -2.940854 -0.6192153 0.7840002 0.043772962 0.601374 0.63694704
0.26242638 0.5539866 -2.876473 0.46449798 0.88557214 0.001868174 0.511619 0.508008
0.40599036 0.52741057 -2.8557281 -0.047891293 0.99275154 0.11023085 0.51462 0.560247
0.6671002 1.2118025 -2.9787931 -0.51409495 -0.8420991 0.1630198 0.678116 0.24345201
0.4858396 1.2191477 -2.967279 0.44277114 -0.8757355 0.19246061 0.640977 0.28548002
0.20709229 0.92043597 -2.966561 0.8535949 -0.48611438 0.18726586 0.559917 0.39499098
0.18489838 0.62020785 -2.875339 0.7850365 0.61010146 -0.10720978 0.516237 0.476484
0.3380654 0.5484534 -2.9191022 0.122940466 0.9452754 0.30222526 0.531457 0.53464603
0.74507546 1.1215239 -2.987442 -0.7862767 -0.51994854 0.3337999 0.704731 0.20812201
0.8225906 0.9291306 -2.957427 -0.985366 0.015054356 0.16978605 0.693035 0.726618
0.15606427 0.7706042 -2.935784 0.9745241 -0.020897167 0.22330745 0.539987 0.43655002
0.7278173 0.73303324 -2.930047 -0.76965153 0.6334959 -0.07949516 0.626661 0.667525
0.4293673 1.1689882 -2.9867601 0.62937456 -0.74521124 0.22033577 0.626007 0.31184697
0.16717935 0.8291064 -2.965667 0.9637712 -0.24562687 0.103982955 0.553698 0.418015
0.7936852 0.8259936 -2.963213 -0.89919984 0.43726626 -0.015425813 0.669536 0.687111
0.22957945 0.5853568 -2.911353 0.58690894 0.74959326 0.30601937 0.523862 0.496903
0.47338033 0.5607205 -2.9193811 -0.26964533 0.93212086 0.24174824 0.550938 0.577482
0.2856896 1.0156279 -3.009953 0.7559096 -0.62589765 0.1919704 0.594475 0.370964
0.15313244 0.69209963 -2.91004 0.89820737 0.32287917 0.2982828 0.527708 0.459836
0.17188525 0.6931601 -2.947188 0.8891123 0.3688386 0.27099347 0.540572 0.45726198
0.25775242 0.58467203 -2.943036 0.47998354 0.82496566 0.29840812 0.536749 0.50566196
0.66202235 1.1922007 -3.0609689 -0.64923453 -0.75983596 0.033819836 0.697397 0.26519698
0.7313745 1.1001596 -3.047381 -0.8483626 -0.49614993 0.18470539 0.723087 0.21871
0.3897164 1.1077328 -3.072897 0.67291504 -0.7145697 0.19124714 0.618878 0.347134
0.7933395 0.9936686 -3.020399 -0.8534904 -0.4431918 0.2741079 0.74733 0.18422699
0.15905333 0.73192316 -2.995294 0.99210894 0.0877861 -0.08951818 0.554001 0.445023
0.20314336 0.6282874 -2.936248 0.7494707 0.59502906 0.29023114 0.533184 0.48264903
0.7933395 0.9936686 -3.020399 -0.9610789 -0.21149904 0.17775181 0.721979 0.732352
0.80536246 0.8643885 -3.0343962 -0.9830972 0.16814767 -0.072430626 0.702413 0.692675
0.20700026 0.64151293 -2.9678202 0.7696271 0.6355744 0.06098687 0.543099 0.476205
0.75926137 0.76249033 -3.035264 -0.79284483 0.59724385 -0.12123108 0.670018 0.647511
0.68824315 0.6894694 -3.019052 -0.617372 0.7866635 -0.003529625 0.634042 0.62277496
0.2793243 0.5850058 -2.992064 0.36483014 0.92417186 0.11316075 0.548975 0.50959396
0.4066012 0.5762072 -3.018067 -0.1050231 0.9706195 0.21648988 0.569152 0.547241
0.49764323 1.2035646 -3.036679 0.45786154 -0.8637157 0.21061341 0.655279 0.305431
0.58624434 1.2269297 -3.06843 0.012030843 -0.9999247 0.00241743 0.688162 0.285456
0.2290554 0.9182711 -3.074594 0.8361736 -0.5192007 0.1767606 0.585189 0.404392
0.17278147 0.82310015 -3.040814 0.9414172 -0.31864366 0.1104524 0.572555 0.431086
0.14787245 0.6868983 -3.043786 0.9547044 0.25551486 -0.15248495 0.564962 0.461025
0.18400025 0.6435252 -3.021131 0.735299 0.63879645 -0.22643852 0.558745 0.4734
0.57901835 0.62865263 -3.047871 -0.37855536 0.9154982 0.13623112 0.614268 0.58615804
0.69726014 1.156479 -3.121627 -0.7817759 -0.5711764 -0.25016788 0.729115 0.255485
0.76464534 1.0334979 -3.096131 -0.8700649 -0.49288356 -0.007264458 0.754744 0.21801603
0.6463373 1.2271396 -3.145997 -0.53774935 -0.80213124 -0.2596365 0.717996 0.29013002
0.29979634 1.0045167 -3.11091 0.7511503 -0.63464344 0.1816615 0.616219 0.38135302
0.31415343 0.5800057 -3.0533352 0.12366522 0.9863098 0.1090862 0.566939 0.513919
0.5091264 1.1931916 -3.135513 0.5607454 -0.8236596 0.08455448 0.676664 0.317855
0.15240026 0.73262316 -3.087434 0.98748285 -0.11166189 0.11139707 0.577759 0.453453
0.22613525 0.60621554 -3.075315 0.46115005 0.8828513 0.08896167 0.571068 0.48702502
0.61412835 1.2384006 -3.128305 -0.15401064 -0.9663363 -0.20609431 0.702876 0.29179198
0.7174032 0.7073756 -3.108864 -0.58150166 0.8080765 -0.09417108 0.666855 0.605227
0.76464534 1.0334979 -3.096131 -0.8793596 -0.4325153 -0.1991414 0.758098 0.741981
0.81521726 0.9068156 -3.0974822 -0.89047503 -0.15488404 -0.4278612 0.736174 0.66759
0.81422544 0.7981654 -3.122544 -0.7213712 0.5207954 -0.45650387 0.718136 0.635254
0.16278434 0.66115004 -3.097376 0.8518764 0.503581 0.14391957 0.57848 0.46883798
0.36568713 0.58432776 -3.082576 -0.03893183 0.9707016 0.23711357 0.582821 0.528629
0.42661119 0.606433 -3.138353 -0.1303274 0.96422076 0.23085272 0.605278 0.533617
0.57542634 1.236312 -3.170411 0.41155866 -0.91030663 -0.044285327 0.707693 0.32005298
0.7468965 1.092271 -3.1424642 -0.6283062 -0.5083502 -0.58890694 0.757003 0.24049401
0.19196129 0.81484705 -3.164073 0.9096923 -0.36809266 0.19226974 0.599103 0.44137
0.62120414 1.2568837 -3.242774 0.3038293 -0.9401984 -0.15399607 0.740962 0.33434403
0.26089835 0.92937094 -3.190528 0.8168642 -0.5453426 0.18797392 0.617004 0.41447198
0.6716182 1.2424718 -3.215408 -0.081204854 -0.8179567 -0.56951964 0.751474 0.314843
0.71478534 1.1843463 -3.180761 -0.2187176 -0.5467249 -0.8082416 0.754271 0.28191
0.7468965 1.092271 -3.1424642 -0.52598655 -0.34411144 -0.77776957 0.776877 0.758456
0.8074286 0.9827557 -3.134947 -0.52074337 -0.28642058 -0.80423224 0.765952 0.69984996
0.17014837 0.7148524 -3.18141 0.9511167 0.1051501 0.29038 0.595651 0.46011698
0.78086734 1.0922557 -3.152597 0.3599686 -0.16416039 -0.9184084 0.763819 0.25155598
0.87254834 0.87881666 -3.1401281 -0.31815812 0.26883957 -0.90912086 0.748689 0.64884603
0.65953755 0.6751614 -3.183938 -0.36479697 0.9278864 0.07713654 0.664321 0.578038
0.54245543 0.64054686 -3.194244 -0.22877336 0.94998723 0.21257263 0.639354 0.553056
0.29195714 0.60557085 -3.145259 0.16008928 0.9444322 0.28708753 0.591567 0.4971
0.20058131 0.64761835 -3.1744242 0.6303442 0.7038508 0.32750592 0.593719 0.47481698
0.7898414 0.73192126 -3.2189531 -0.4276367 0.8843379 -0.18727848 0.712599 0.60009396
0.24765539 0.8637753 -3.292397 0.83720106 -0.4448211 0.31816438 0.632993 0.438182
0.44043326 0.6302777 -3.233493 -0.10256617 0.95151734 0.2899914 0.624811 0.52230096
0.3432753 1.0183784 -3.2263951 0.7156727 -0.65930605 0.2304955 0.644314 0.39537197
0.29075027 0.94459444 -3.274037 0.75495005 -0.59153366 0.28308725 0.640125 0.41923898
0.19811225 0.7721968 -3.259426 0.9327427 -0.15328087 0.3263374 0.613035 0.455144
0.21490026 0.7130156 -3.282701 0.7528945 0.3980525 0.5241222 0.61542 0.46714097
0.24916148 0.6511622 -3.245124 0.3873954 0.7984803 0.46081892 0.60764 0.479815
0.34237742 0.63840204 -3.25395 0.10392247 0.90848255 0.40479583 0.61757 0.49538898
1.0278094 0.8142653 -3.298259 -0.40057853 0.9073068 -0.12779345 0.792356 0.565271
0.91915536 0.7998801 -3.21309 -0.37348032 0.78538257 -0.49364635 0.753538 0.60471296
1.0235856 0.8329955 -3.223701 -0.3272095 0.8515304 -0.4096707 0.789129 0.591188
0.8859446 0.7588902 -3.2858272 -0.3953793 0.9046726 -0.15887943 0.747422 0.577626
0.5992744 0.67183214 -3.263029 -0.2018848 0.9499166 0.23853923 0.66618 0.547727
1.0876782 0.8456355 -3.273261 -0.45328045 0.8794659 -0.14517793 0.803109 0.57008696
0.8299463 0.73440844 -3.3168392 -0.31959003 0.94732994 -0.020691203 0.728083 0.565486
0.6790216 0.69450575 -3.285802 -0.23181874 0.96504414 0.12226995 0.686135 0.555956
0.9563763 0.78347594 -3.315755 -0.35995278 0.9254545 -0.11818617 0.767308 0.567852
0.49399447 0.67109495 -3.309988 -0.1039208 0.9079975 0.40588304 0.653211 0.519199
0.4080603 0.64806277 -3.288922 -0.0010910588 0.893417 0.44922698 0.63229 0.505954
0.23332548 0.78970057 -3.335268 0.84850764 -0.10732079 0.5181862 0.634233 0.456836
0.75390315 0.7128878 -3.3192081 -0.2311575 0.97247505 0.029298142 0.709269 0.5553
0.58320117 0.69509417 -3.351298 -0.06026137 0.95132536 0.30223948 0.674915 0.52478504
0.79092956 0.7283545 -3.391556 -0.23792885 0.96055406 0.14396442 0.726104 0.543447
0.2987535 0.70932204 -3.3477921 0.34504682 0.6698948 0.6574068 0.632937 0.475213
0.39382815 0.6926213 -3.356317 0.09109326 0.8096184 0.57984483 0.644307 0.48946202
0.26673937 0.76799685 -3.3721552 0.58864266 0.26781422 0.7627419 0.639664 0.46318
0.6697924 0.70965105 -3.39715 -0.07494863 0.9767141 0.20102818 0.697505 0.521433
0.28419852 0.8415652 -3.3825269 0.7187062 -0.24376029 0.65118533 0.643771 0.450994
0.90393424 0.7645541 -3.398761 -0.33530283 0.9342994 0.1210646 0.754232 0.540551
1.0149553 0.80532557 -3.390732 -0.41382232 0.9054575 0.094328485 0.779075 0.547221
0.78260255 1.4239961 -3.369082 0.4338147 -0.7360603 0.5196345 0.813654 0.38795203
0.80657315 1.3529569 -3.457576 0.16221921 -0.64736736 0.744715 0.802333 0.40400302
0.87161946 1.4304916 -3.3903022 0.11902412 -0.7057881 0.6983527 0.830416 0.39982897
0.89335656 1.3289491 -3.4756222 -0.043133266 -0.5774786 0.8152656 0.811412 0.423936
0.5097363 0.7140427 -3.393004 0.08422413 0.88705254 0.45392084 0.674051 0.502276
1.1273015 0.86937624 -3.364494 -0.57154095 0.8121394 0.117347695 0.802611 0.543732
0.46155334 0.71066767 -3.383938 0.02909126 0.82576686 0.5632608 0.665611 0.49609703
0.73135924 0.72896296 -3.4542289 -0.15379485 0.94002146 0.3044778 0.720319 0.526127
0.55523515 0.7290774 -3.446497 0.1654319 0.9039619 0.39431596 0.686601 0.503194
0.9714081 1.2794515 -3.5003781 -0.12863012 -0.5206947 0.84399724 0.815236 0.443313
0.9646394 1.4017755 -3.411021 -0.12087184 -0.5898998 0.7983785 0.839895 0.41545898
1.0427516 1.2078725 -3.530509 -0.15342475 -0.39862603 0.9041893 0.816167 0.462025
1.0491312 1.3336278 -3.449748 -0.17582229 -0.52562255 0.8323506 0.833577 0.44221997
1.0703452 0.84565073 -3.456619 -0.52555174 0.7990545 0.29207426 0.791263 0.530958
0.37291455 0.7423764 -3.408864 0.27509618 0.56183046 0.78017217 0.661114 0.47749698
0.44741225 0.75233275 -3.433362 0.2591033 0.68853396 0.67733777 0.670197 0.48615003
0.82040524 0.75378805 -3.468536 -0.23283662 0.9106861 0.34123033 0.741875 0.53048
0.9763043 0.81725603 -3.49498 -0.35604805 0.83516806 0.41919455 0.770476 0.5279
0.3512094 0.804185 -3.427877 0.46683964 0.2314399 0.85352 0.658641 0.46657002
0.6575644 1.1861429 -2.7081962 -0.53598386 -0.5485333 -0.64174175 0.609627 0.18238097
0.9168036 0.94555765 -3.114367 0.3374145 0.40616998 -0.8492216 0.797571 0.668948
0.88409925 1.0145656 -3.09365 0.6741299 0.46123067 -0.5769014 0.804748 0.692488
0.94266915 0.9773589 -3.066333 0.6018666 0.47742322 -0.6401747 0.824148 0.67003703
0.4462645 1.1222335 -3.2279892 0.6877445 -0.7037914 0.17800324 0.67178 0.362643
0.80660033 1.1277477 -3.113092 0.630071 0.36255798 -0.6867039 0.810839 0.755521
0.8513653 1.0242101 -3.126683 0.59376615 0.30472925 -0.7447026 0.795472 0.70282996
0.9927833 0.8766385 -3.152095 -0.085403144 0.6846692 -0.7238331 0.800767 0.621106
1.0195901 0.93908983 -3.083672 0.25210544 0.66353303 -0.70439094 0.835744 0.64081204
0.54439425 1.2039844 -3.282593 0.6242123 -0.7716033 0.122423396 0.716879 0.363061
0.78086734 1.0922557 -3.152597 0.16273522 0.046018586 -0.985596 0.788761 0.766282
0.8499005 0.97204214 -3.138063 0.18845019 0.06829826 -0.979705 0.777934 0.68338
0.80660033 1.1277477 -3.113092 0.8435075 0.31173027 -0.4374006 0.783648 0.240197
0.74404216 1.1975337 -3.1768079 0.65467554 0.001880985 -0.75590765 0.774733 0.27959198
0.70493436 1.2760831 -3.233962 0.8443928 -0.28194764 -0.45552862 0.776343 0.32087302
0.73410916 1.2499219 -3.1627412 0.91055495 0.3598555 -0.20345436 0.783857 0.296112
1.0990746 0.87600523 -3.201488 -0.39149168 0.8370061 -0.38230252 0.82262 0.58559096
0.6996343 1.3259479 -3.221243 0.9817184 0.19022201 0.006673997 0.789098 0.33223498
0.7003906 1.3640891 -3.273582 0.9604731 -0.2657739 0.0827988 0.797453 0.35100698
0.4133165 1.036029 -3.365597 0.7609223 -0.5686265 0.31250763 0.67721 0.410043
0.7345402 1.437997 -3.244569 0.80430853 -0.56470174 0.18493159 0.821134 0.34561998
0.7251246 1.3924352 -3.339253 0.7540676 -0.5896557 0.28928906 0.804198 0.37271202
0.48152852 1.1276866 -3.350059 0.72080487 -0.663291 0.2012097 0.695551 0.390023
0.68338656 1.3111249 -3.332036 0.8020677 -0.59596306 0.038928334 0.773032 0.362437
1.1586912 0.88728815 -3.2681012 -0.49522606 0.85975933 -0.12476029 0.823841 0.55926096
0.32652545 0.9363337 -3.356701 0.71417236 -0.54145455 0.44360447 0.658669 0.431185
0.6218693 1.2490684 -3.387422 0.6262009 -0.7521393 0.20532654 0.754327 0.388709
0.5467074 1.1675397 -3.429037 0.656395 -0.6913179 0.302035 0.725236 0.40309602
0.7368624 1.3523074 -3.421238 0.58296514 -0.64342237 0.49614432 0.791672 0.392511
0.68411136 1.2728435 -3.456818 0.57949066 -0.6649743 0.47116852 0.771924 0.39585
0.33608127 0.87940127 -3.421042 0.6266538 -0.24351329 0.74027455 0.66368 0.448592
0.47899127 1.0887834 -3.44882 0.7314719 -0.5888346 0.3438353 0.706569 0.420893
0.3945763 0.9193192 -3.4519472 0.7316206 -0.23517615 0.639862 0.677271 0.44609302
0.4519174 1.0120794 -3.4954991 0.81699365 -0.38061872 0.43318674 0.698446 0.436405
1.2447803 0.9842387 -3.387995 -0.64944535 0.71639967 0.25493592 0.834814 0.52444696
1.1542423 0.9326506 -3.473671 -0.6758426 0.6181064 0.40147385 0.807024 0.51851
0.43949246 0.83392435 -3.489243 0.60328436 0.30871135 0.7353538 0.680127 0.46625602
0.49800134 0.77758795 -3.494981 0.4237796 0.6753078 0.6036308 0.686579 0.48312002
0.6411774 0.7295123 -3.480528 0.027036248 0.9204347 0.3899603 0.704931 0.506533
0.8934643 0.783434 -3.495188 -0.29566842 0.8597105 0.41650698 0.756239 0.52484
1.1937664 1.0394317 -3.501895 -0.6662089 0.2692943 0.6954468 0.824667 0.501848
1.1234462 1.0463239 -3.553975 -0.41090864 -0.024486773 0.9113476 0.809221 0.493711
1.1197093 0.96114737 -3.542525 -0.5776314 0.35091582 0.73702115 0.802931 0.505182
0.4673965 0.9267464 -3.543645 0.7176342 0.054399233 0.6942925 0.697813 0.45609403
0.5110915 0.8286486 -3.5505562 0.49818644 0.43374142 0.75078535 0.697227 0.47482598
1.0621974 0.88409716 -3.529848 -0.48484805 0.62635 0.61041635 0.789451 0.51405203
0.81012034 0.8006106 -3.5534 -0.22162002 0.71162176 0.6666926 0.743063 0.50871503
0.7008064 0.76111704 -3.530491 -0.07607923 0.82505226 0.5599113 0.720868 0.50561297
0.48061442 1.0102721 -3.5536342 0.7403506 -0.31902352 0.59169674 0.70659 0.442604
0.9493854 0.8546725 -3.55885 -0.20831048 0.5905514 0.7796511 0.768127 0.508488
0.90284324 0.8346358 -3.554223 -0.2344624 0.61370313 0.75392026 0.759735 0.509923
0.57504535 0.7636538 -3.525325 0.22497322 0.7694505 0.5977734 0.699407 0.49032998
1.0467036 0.9516497 -3.576498 -0.30789548 0.22322704 0.92486215 0.791465 0.500234
0.99262214 0.8773909 -3.5623071 -0.2805886 0.5393976 0.79392713 0.776825 0.507223
0.51612353 1.0009776 -3.5861971 0.50784373 -0.213917 0.8344665 0.717014 0.446046
0.6062825 0.8169194 -3.586015 0.19860494 0.5418541 0.8166702 0.713087 0.48452598
0.7040713 0.81893355 -3.5984 -0.016396254 0.61271185 0.7901363 0.727982 0.491553
0.94058824 0.9353457 -3.591803 -0.16289093 0.2001678 0.96612597 0.773252 0.49269003
0.9258144 1.0517322 -3.599215 -0.13641948 -0.12292486 0.982995 0.784219 0.475915
0.8429172 1.0008746 -3.611926 -0.12896778 -0.025615387 0.99131787 0.769423 0.472767
0.5476506 0.9106017 -3.601211 0.40778366 0.15626067 0.8996084 0.71325 0.466731
0.76264834 0.84953505 -3.605906 -0.24960528 0.41346002 0.8756414 0.739651 0.493787
1.0275853 1.0651828 -3.580275 -0.20738731 -0.14361265 0.96766 0.798126 0.48339802
0.83660626 0.8879786 -3.597904 -0.21625216 0.30995935 0.9258295 0.755165 0.49216098
0.7437155 0.93846995 -3.625452 -0.12110702 0.03811468 0.9919074 0.744473 0.47689903
0.7503302 1.0515786 -3.615684 -0.041359507 -0.25751355 0.9653891 0.754219 0.45857698
0.6724374 1.0266391 -3.624589 0.068871826 -0.22566085 0.9717684 0.741038 0.45225102
0.5910933 1.0259858 -3.610262 0.29258654 -0.29668558 0.9090494 0.729334 0.448027
0.7106683 0.86619097 -3.624866 -0.024781434 0.2967769 0.9546253 0.733266 0.484195
0.64522815 0.9076033 -3.626548 0.14460182 0.13902575 0.9796745 0.726327 0.473369
0.7561176 1.285759 -3.024552 0.8160857 0.39208016 -0.42459065 0.835134 0.28000897
0.79872155 1.1833124 -3.0372682 0.8304544 0.46492276 -0.30690774 0.817549 0.23631698
0.7367203 1.2622232 -3.083568 0.87817097 0.41119137 -0.24441229 0.815897 0.280195
0.7710402 1.198537 -3.096404 0.85357547 0.4845265 -0.19142365 0.800694 0.25215697
0.6975243 1.3300086 -3.150387 0.96883154 0.20075804 -0.14512636 0.810473 0.311634
0.72071624 1.347578 -3.0708442 0.94488186 0.12422079 -0.30293128 0.828945 0.29955602
0.7015264 1.4013053 -3.1430411 0.97100055 -0.18764672 -0.1481444 0.824405 0.32084203
0.68959737 1.3780318 -3.211302 0.9745788 -0.21143866 0.074093476 0.808974 0.33314598
0.6196315 1.2012502 -3.488278 0.50863415 -0.6730647 0.5369127 0.750654 0.41053098
0.7432625 1.278186 -3.49954 0.30428642 -0.58065385 0.75514954 0.776553 0.41532803
0.53955436 1.0913402 -3.539416 0.541955 -0.5862517 0.60215753 0.723968 0.431589
0.8268225 1.2283832 -3.5389621 0.03209157 -0.47485575 0.87947834 0.781999 0.43671697
0.6876142 1.1525375 -3.565987 0.22180237 -0.5164625 0.8270854 0.752615 0.43359202
0.9128492 1.2418052 -3.530672 -0.07297374 -0.4740682 0.8774589 0.800121 0.44585103
0.94264627 1.1610671 -3.565396 -0.10970713 -0.35994855 0.9264995 0.79706 0.462793
1.1229222 1.1607429 -3.530333 -0.30949098 -0.23429565 0.92158604 0.820483 0.47822303
1.2018874 1.1440593 -3.4956791 -0.42741734 -0.18481429 0.8849622 0.833611 0.486089
0.82956433 1.1078864 -3.593245 -0.036801398 -0.32210693 0.9459877 0.772021 0.456586
3 4 3 0
3 4 0 1
3 8 4 1
3 5 6 9
3 8 1 7
3 3 4 10
3 12 2 5
3 14 10 4
3 12 5 9
3 4 8 14
3 2 12 13
3 14 8 15
3 12 9 19
3 13 12 20
3 21 10 14
3 19 20 12
3 22 11 13
3 23 19 9
3 25 14 15
3 25 21 14
3 28 20 19
3 19 23 30
3 19 30 28
3 22 13 20
3 16 11 22
3 25 15 24
3 25 32 21
3 33 30 23
3 28 22 20
3 35 17 16
3 18 36 26
3 24 37 25
3 25 37 32
3 23 38 33
3 28 30 39
3 28 39 22
3 18 17 36
3 37 40 32
3 41 42 38
3 33 38 42
3 30 33 39
3 44 16 22
3 34 46 27
3 44 35 16
3 35 36 17
3 45 26 48
3 49 37 24
3 50 42 41
3 51 47 52
3 22 39 44
3 53 49 24
3 54 55 56
3 54 57 50
3 58 54 56
3 57 42 50
3 59 42 57
3 59 33 42
3 33 59 60
3 60 39 33
3 31 29 61
3 62 63 64
3 65 54 58
3 66 46 34
3 60 44 39
3 26 36 67
3 45 48 68
3 64 63 69
3 70 57 54
3 70 59 57
3 65 70 54
3 51 52 71
3 35 44 36
3 44 73 36
3 26 67 48
3 31 74 24
3 53 24 74
3 49 75 63
3 29 43 76
3 59 77 60
3 78 66 34
3 34 51 78
3 51 71 78
3 52 72 71
3 36 73 67
3 68 48 79
3 80 74 31
3 80 31 61
3 64 69 81
3 82 70 65
3 66 83 46
3 59 70 77
3 84 73 44
3 71 72 85
3 87 85 72
3 86 87 72
3 48 67 88
3 87 86 79
3 87 79 48
3 53 75 49
3 75 69 63
3 76 61 29
3 43 89 76
3 82 58 90
3 82 65 58
3 44 77 84
3 60 77 44
3 48 88 87
3 86 91 79
3 79 91 68
3 75 81 69
3 90 58 56
3 82 92 70
3 77 70 93
3 94 66 78
3 95 94 78
3 95 78 71
3 85 95 71
3 96 85 87
3 88 96 87
3 74 75 53
3 64 81 97
3 90 56 98
3 89 99 76
3 93 84 77
3 84 93 100
3 84 100 73
3 85 96 95
3 92 93 70
3 95 101 94
3 102 67 73
3 61 103 80
3 75 104 81
3 97 81 104
3 105 83 66
3 88 67 102
3 61 76 106
3 105 66 94
3 73 100 102
3 74 108 75
3 106 76 109
3 99 109 76
3 89 110 99
3 107 83 105
3 96 101 95
3 111 101 96
3 80 108 74
3 97 104 112
3 113 90 98
3 114 82 90
3 89 115 110
3 82 114 92
3 107 115 89
3 102 100 116
3 101 111 117
3 88 118 96
3 108 119 75
3 104 75 119
3 120 80 103
3 121 109 99
3 99 110 121
3 122 105 94
3 122 94 101
3 117 122 101
3 123 117 111
3 118 111 96
3 118 123 111
3 124 112 104
3 125 114 90
3 126 110 115
3 93 92 127
3 100 93 127
3 116 100 127
3 80 120 108
3 103 128 120
3 119 124 104
3 125 90 113
3 110 129 121
3 114 130 92
3 127 92 130
3 131 122 117
3 132 88 102
3 132 118 88
3 123 131 117
3 121 133 109
3 126 129 110
3 107 134 115
3 105 134 107
3 126 115 134
3 126 134 135
3 122 134 105
3 131 134 122
3 131 123 136
3 119 137 124
3 124 137 138
3 133 139 106
3 138 140 124
3 140 112 124
3 133 106 109
3 130 114 125
3 126 141 129
3 126 135 141
3 142 135 134
3 142 134 131
3 131 136 142
3 118 132 123
3 113 143 125
3 125 143 144
3 125 144 130
3 145 141 135
3 127 130 146
3 135 142 145
3 116 127 147
3 145 142 136
3 123 148 136
3 149 123 132
3 120 150 108
3 108 151 119
3 119 151 137
3 121 152 133
3 153 121 129
3 152 121 153
3 154 141 155
3 145 155 141
3 127 146 147
3 116 156 102
3 148 145 136
3 108 150 151
3 120 128 150
3 138 137 157
3 158 140 138
3 153 129 141
3 147 156 116
3 149 148 123
3 137 159 157
3 158 138 157
3 133 152 160
3 144 146 130
3 148 155 145
3 132 102 156
3 148 149 161
3 150 162 151
3 154 163 141
3 164 155 148
3 132 156 149
3 165 159 137
3 163 153 141
3 147 146 166
3 161 164 148
3 143 167 168
3 168 144 143
3 144 169 146
3 154 170 163
3 171 161 149
3 172 149 156
3 173 165 151
3 162 173 151
3 158 157 174
3 153 175 152
3 166 156 147
3 170 154 155
3 173 176 165
3 159 165 176
3 177 160 152
3 168 169 144
3 166 146 169
3 170 155 164
3 149 172 171
3 159 176 178
3 178 157 159
3 157 179 174
3 167 180 181
3 181 168 167
3 152 175 177
3 170 182 163
3 157 178 179
3 179 183 174
3 184 168 181
3 163 175 153
3 156 166 185
3 186 172 156
3 187 164 161
3 171 187 161
3 163 182 175
3 164 188 170
3 186 156 185
3 187 188 164
3 172 187 171
3 189 166 169
3 177 175 190
3 186 191 172
3 160 177 192
3 170 188 182
3 192 177 193
3 190 193 177
3 182 194 175
3 188 195 182
3 187 196 188
3 197 187 172
3 198 199 200
3 189 199 201
3 189 185 166
3 186 185 202
3 197 196 187
3 191 197 172
3 200 203 198
3 194 190 175
3 201 204 189
3 189 205 185
3 199 206 201
3 206 199 198
3 182 195 194
3 186 207 191
3 208 197 191
3 194 209 190
3 194 195 209
3 188 196 195
3 205 202 185
3 207 208 191
3 207 186 202
3 210 205 189
3 189 204 210
3 205 211 202
3 210 204 212
3 207 202 211
3 196 213 195
3 196 197 213
3 214 208 207
3 209 195 215
3 195 213 215
3 216 211 205
3 210 216 205
3 214 197 208
3 209 217 190
3 206 218 201
3 219 206 198
3 218 204 201
3 218 212 204
3 220 221 222
3 222 221 223
3 219 218 206
3 224 207 211
3 197 214 213
3 225 219 198
3 212 216 210
3 226 214 207
3 207 224 226
3 212 227 216
3 228 224 211
3 211 216 228
3 223 229 230
3 229 231 232
3 219 225 233
3 214 234 213
3 226 235 214
3 235 234 214
3 236 227 212
3 218 236 212
3 219 237 218
3 219 233 237
3 213 238 215
3 234 238 213
3 37 239 40
3 63 62 239
3 40 239 62
3 37 49 239
3 49 63 239
3 55 50 41
3 50 55 54
3 106 103 61
3 106 128 103
3 128 106 139
3 133 160 139
3 139 150 128
3 137 151 165
3 162 150 139
3 240 241 242
3 162 139 243
3 139 160 192
3 244 241 245
3 246 240 247
3 173 162 248
3 244 245 249
3 249 245 250
3 250 245 240
3 248 176 173
3 251 183 252
3 243 139 192
3 181 180 249
3 250 181 249
3 184 181 250
3 184 250 240
3 184 240 246
3 253 254 252
3 183 179 252
3 246 199 184
3 200 199 246
3 199 169 184
3 189 169 199
3 253 179 178
3 253 252 179
3 162 243 248
3 246 255 200
3 256 253 257
3 243 192 258
3 220 259 260
3 257 260 259
3 248 243 261
3 255 203 200
3 262 257 253
3 178 176 262
3 178 262 253
3 258 261 243
3 203 255 263
3 192 264 258
3 262 260 257
3 192 193 264
3 265 262 176
3 176 248 265
3 248 261 266
3 262 267 260
3 264 193 190
3 262 265 268
3 260 267 220
3 268 267 262
3 190 217 264
3 225 198 203
3 263 225 203
3 266 265 248
3 217 269 264
3 270 266 261
3 261 258 270
3 264 271 258
3 271 264 269
3 271 272 258
3 217 209 215
3 270 258 272
3 273 274 225
3 274 233 225
3 235 226 224
3 271 269 238
3 217 238 269
3 215 238 217
3 275 238 235
3 238 234 235
3 228 235 224
3 271 238 275
3 275 235 276
3 228 276 235
3 227 277 216
3 278 236 218
3 218 237 278
3 277 228 216
3 279 280 281
3 274 279 281
3 272 271 282
3 275 282 271
3 275 276 283
3 237 233 284
3 285 286 236
3 236 278 285
3 282 287 272
3 275 283 282
3 284 233 274
3 288 289 237
3 289 278 237
3 290 276 228
3 285 278 289
3 286 277 227
3 286 227 236
3 281 284 274
3 291 292 284
3 237 292 288
3 237 284 292
3 276 290 283
3 277 290 228
3 287 282 293
3 281 280 291
3 291 284 281
3 290 286 294
3 286 285 295
3 290 277 286
3 296 297 298
3 282 299 293
3 283 299 282
3 294 299 283
3 290 294 283
3 285 300 295
3 295 294 286
3 296 301 297
3 296 291 301
3 291 280 301
3 292 296 288
3 296 292 291
3 289 296 302
3 289 288 296
3 300 285 302
3 302 285 289
3 303 304 305
3 299 306 293
3 303 298 304
3 303 302 298
3 302 296 298
3 303 300 302
3 307 295 300
3 306 308 305
3 303 305 308
3 306 299 308
3 307 300 303
3 299 294 308
3 308 294 295
3 308 307 303
3 308 295 307
3 309 310 311
3 312 311 310
3 311 313 314
3 310 251 312
3 254 313 311
3 312 254 311
3 314 313 315
3 312 251 254
3 313 316 315
3 316 259 315
3 252 254 251
3 245 241 240
3 184 169 168
3 313 254 256
3 254 253 256
3 313 256 316
3 257 259 316
3 316 256 257
3 221 220 267
3 317 265 266
3 317 268 265
3 268 318 267
3 267 318 221
3 319 266 270
3 318 320 221
3 320 223 221
3 268 317 321
3 268 321 318
3 319 317 266
3 322 229 223
3 322 323 229
3 323 231 229
3 270 272 319
3 320 322 223
3 317 319 321
3 272 287 319
3 324 280 325
3 320 318 321
3 322 320 323
3 301 280 324
3 319 306 321
3 321 326 320
3 320 326 323
3 231 323 301
3 324 231 301
3 293 319 287
3 321 304 326
3 326 297 323
3 323 297 301
3 306 305 321
3 321 305 304
3 326 304 298
3 298 297 326
3 293 306 319
