ply
format ascii 1.0
comment Created in Blender version 4.1.1
element vertex 340
property float x
property float y
property float z
property float nx
property float ny
property float nz
property float u
property float v
element face 608
property list uchar uint vertex_indices
end_header
2.1718643 0.8027602 -2.605308 -0.062459804 -0.16870584 -0.9836855 0.777733 0.22547197
2.1464865 0.92894846 -2.644227 0.02833885 -0.4474928 -0.89383847 0.737397 0.22528797
2.2175424 0.93703943 -2.6603942 -0.35266912 -0.43671978 -0.82758707 0.737066 0.24503398
2.2546952 0.8156367 -2.630175 -0.5458361 -0.21239461 -0.8105254 0.777099 0.25158602
2.2315562 0.7301665 -2.606556 -0.3733852 0.060491756 -0.92570204 0.798005 0.23935801
2.1209114 0.6830407 -2.611705 -0.004799817 0.18734317 -0.9822828 0.810191 0.19950497
2.0694435 0.7658568 -2.609589 0.047394086 -0.042559225 -0.99796927 0.784892 0.18780297
2.1899521 0.6881133 -2.6073122 -0.08981853 0.24248336 -0.9659889 0.814257 0.22377801
2.2873414 0.91850764 -2.712959 -0.7995545 -0.29740098 -0.5217903 0.740677 0.273795
2.2403524 0.63300997 -2.6449351 -0.42965803 0.40500945 -0.8070696 0.836376 0.23991197
2.0963223 0.8717738 -2.629743 0.12890886 -0.31226376 -0.9412087 0.749013 0.204211
2.0694435 0.7658568 -2.609589 0.12765795 -0.18824868 -0.97378945 0.768169 0.916601
2.0073493 0.86182314 -2.647995 0.2290023 -0.39244494 -0.8908114 0.737628 0.89291203
2.0963223 0.8717738 -2.629743 0.22592656 -0.35911268 -0.90553594 0.727148 0.921173
1.9827735 0.73245054 -2.6120691 0.16665758 -0.12269263 -0.97835153 0.782371 0.887712
1.9398534 0.7926093 -2.635435 0.33418578 -0.28050536 -0.8997981 0.760862 0.87446404
1.9002712 0.6837092 -2.636283 0.50471866 -0.017056016 -0.8631154 0.797569 0.863517
2.2764995 0.7089272 -2.647634 -0.77762574 0.11805812 -0.61754394 0.813481 0.256176
2.2999914 0.79963785 -2.683445 -0.8911156 -0.060814053 -0.44968277 0.783382 0.27484602
2.0371926 0.66306216 -2.61196 -0.027159387 0.07383345 -0.9969007 0.802207 0.908641
1.9695423 0.64835936 -2.610068 0.16201013 0.110216625 -0.98061454 0.804448 0.88587797
1.9404042 0.58441836 -2.632947 0.2731979 0.31785858 -0.90792555 0.825131 0.877689
2.1542113 1.0297966 -2.715696 -0.026905147 -0.6383632 -0.769265 0.703357 0.23244703
2.0648663 0.99549013 -2.7060552 0.16837865 -0.5911022 -0.7888262 0.699517 0.20287102
2.0648663 0.99549013 -2.7060552 0.2651717 -0.51408756 -0.8157193 0.681747 0.894653
1.8866794 0.7934256 -2.6674361 0.60541844 -0.28551286 -0.742934 0.760973 0.854033
1.9244192 0.8808413 -2.685409 0.4443117 -0.43106532 -0.7853469 0.729105 0.861596
1.8408816 0.7312661 -2.692565 0.7580958 -0.1598082 -0.63225955 0.786331 0.83750904
2.3004272 0.7246199 -2.7077632 -0.99022484 0.11757937 -0.075032525 0.812872 0.285349
2.0371926 0.66306216 -2.61196 -0.08308067 0.21270943 -0.9735771 0.814538 0.171395
2.1724246 0.60310084 -2.6445441 -0.15776952 0.45730385 -0.87520397 0.845221 0.21526098
2.2543871 0.9919978 -2.715788 -0.56891596 -0.5097351 -0.6453718 0.712368 0.2626
1.9564116 0.9942122 -2.74224 0.36365336 -0.5540622 -0.7488466 0.688526 0.860528
1.8288796 0.6336308 -2.697693 0.7643513 0.10552168 -0.6361071 0.816121 0.834114
2.0865185 0.57823473 -2.645276 -0.16102518 0.3957348 -0.9041377 0.847754 0.18399101
2.2800186 0.6325217 -2.679878 -0.8094462 0.30548957 -0.50147086 0.847314 0.257882
2.0095322 0.58166033 -2.628759 -0.18654746 0.30714303 -0.9332005 0.838318 0.157866
1.8792665 0.5747786 -2.6688042 0.58822423 0.3365479 -0.7353419 0.827027 0.85092497
1.9830606 0.5064526 -2.6717172 0.101389326 0.6270759 -0.7723315 0.859162 0.88303
2.0095322 0.58166033 -2.628759 0.036291342 0.38159677 -0.9236162 0.829115 0.900174
2.2234643 1.04358 -2.746006 -0.3804384 -0.65447 -0.65340304 0.691034 0.256768
2.2962072 0.66618925 -2.7001982 -0.9783318 0.1438416 -0.14891775 0.836385 0.27684402
1.9233334 0.53096205 -2.664329 0.35466546 0.5590937 -0.7494176 0.84588 0.866538
2.0391753 0.52816397 -2.656272 0.007836355 0.5661297 -0.8242789 0.854552 0.9036
1.8993552 0.94106203 -2.7354212 0.56088287 -0.45606878 -0.6909499 0.708747 0.842124
1.8476222 0.86078745 -2.7473311 0.7542623 -0.3188992 -0.5739265 0.736499 0.820637
2.1502573 0.52567774 -2.687118 -0.21348804 0.5289981 -0.8213305 0.873451 0.199741
2.0391753 0.52816397 -2.656272 -0.2656374 0.43959472 -0.858017 0.863242 0.16253698
2.3232682 0.8629952 -2.770043 -0.97874385 -0.045172688 -0.20004974 0.750671 0.30296898
2.3125703 0.7856875 -2.739419 -0.9790552 0.20125784 -0.03075862 0.785052 0.298895
2.2354853 0.5337592 -2.709737 -0.41036427 0.5245435 -0.7459593 0.890515 0.235767
2.2799575 0.5803233 -2.712771 -0.7816099 0.27952677 -0.55762964 0.876689 0.256275
1.9115446 0.49372295 -2.7124 0.45430434 0.687399 -0.5666482 0.8643 0.854659
1.8415902 0.5449496 -2.7316961 0.7093711 0.50679916 -0.48984402 0.841225 0.83435
2.0742104 0.47864822 -2.699462 -0.21997161 0.5440291 -0.809719 0.88749 0.16976202
2.1867855 1.1184168 -2.810103 -0.24769202 -0.7119926 -0.6570504 0.660705 0.254278
2.2884395 0.6256781 -2.752389 -0.9836879 -0.17812654 -0.025083173 0.868264 0.29455602
2.0028021 1.1066103 -2.811434 0.39527547 -0.614672 -0.68259484 0.636924 0.855602
2.2802894 1.0269127 -2.792788 -0.77901703 -0.45763388 -0.42860672 0.692733 0.28492498
1.8767765 0.9953738 -2.800781 0.63475823 -0.4969414 -0.59171885 0.686592 0.823876
2.3262193 0.96806437 -2.860526 -0.956031 -0.19622342 -0.21794783 0.701578 0.31856102
2.2833636 0.68040186 -2.764518 -0.9165549 0.03825767 0.39807457 0.839282 0.30611598
2.3137743 0.5316344 -2.777568 -0.76233673 0.18276577 -0.6208376 0.907246 0.26940697
2.0742104 0.47864822 -2.699462 0.011980288 0.6734021 -0.7391793 0.879755 0.907627
2.0028021 1.1066103 -2.811434 0.1504039 -0.66908777 -0.727805 0.64249 0.19729102
2.0926325 1.1396656 -2.8232589 0.061555665 -0.70052737 -0.71096575 0.642582 0.22596002
1.9137404 1.1249838 -2.887058 0.5315887 -0.6112245 -0.58636 0.630838 0.816524
2.2825992 0.7419539 -2.786233 -0.8355055 0.37677443 0.39996445 0.809413 0.32565397
1.7951944 0.71411806 -2.76502 0.90646154 -0.10813745 -0.40820786 0.796326 0.805607
1.7977474 0.6069756 -2.755035 0.89615697 0.21207881 -0.38977596 0.826985 0.81877303
2.2519176 1.0969076 -2.832848 -0.61046493 -0.61023945 -0.50491625 0.663926 0.282803
2.3139675 0.81034094 -2.8177829 -0.9083018 0.3983781 0.12760448 0.767764 0.32726502
2.3066332 0.58857065 -2.76859 -0.8748924 -0.263139 -0.40659693 0.885521 0.28649902
2.1793191 0.45243555 -2.747903 -0.25013372 0.5811926 -0.7743696 0.910445 0.20553601
1.9910705 0.4310904 -2.747056 0.23427522 0.7357354 -0.6354593 0.895621 0.87219
1.7939346 0.84027296 -2.8252401 0.90504247 -0.21908376 -0.36455518 0.743412 0.793131
2.3449914 0.5929232 -2.825255 -0.68346554 -0.44769073 -0.576583 0.912617 0.308132
1.8056462 0.5486489 -2.806034 0.85505635 0.4427749 -0.26986855 0.846261 0.80792
2.0935376 0.39831072 -2.768229 0.07851644 0.70239234 -0.7074462 0.913825 0.901227
2.0935376 0.39831072 -2.768229 -0.18938607 0.5938253 -0.7819875 0.921087 0.16645199
2.1652234 1.1939459 -2.884772 -0.20884676 -0.72757745 -0.6534632 0.627641 0.25957698
1.8215272 0.9487725 -2.844841 0.831003 -0.36347184 -0.42109632 0.693685 0.796252
1.7747014 0.6429654 -2.828263 0.9846496 0.08871133 -0.15031794 0.820007 0.789761
2.2957313 0.6273013 -2.835746 -0.40136847 -0.8899362 -0.21660289 0.890285 0.332843
1.8893673 0.4452334 -2.8128371 0.6075156 0.6760308 -0.41702166 0.887636 0.832731
2.2697985 0.46668154 -2.781889 -0.48034546 0.51665515 -0.70875645 0.927557 0.244465
2.0103586 1.2142973 -2.919487 0.40948153 -0.68573856 -0.6017372 0.586784 0.83676803
2.2393062 1.1642256 -2.8986592 -0.5733962 -0.6218207 -0.5334377 0.636465 0.286776
1.8394153 1.0426655 -2.897072 0.80259377 -0.41923198 -0.4243675 0.661446 0.793186
1.7933824 0.90777117 -2.876381 0.93245745 -0.26749423 -0.24283709 0.712851 0.780876
2.3327982 0.8820239 -2.8887591 -0.98292106 0.18402475 0.001018346 0.725489 0.344769
1.7722943 0.7474833 -2.848508 0.98779714 -0.065339096 -0.14137739 0.776318 0.777981
2.2619522 0.7716618 -2.8680649 -0.5759943 0.7570153 0.30847755 0.780562 0.36113203
2.2223842 0.73697764 -2.848591 -0.5574357 0.5537866 0.6185353 0.812977 0.36953002
2.2226794 0.70121104 -2.836116 -0.68045634 -0.040868036 0.7316481 0.8369 0.369721
2.0103586 1.2142973 -2.919487 0.13592988 -0.72690284 -0.6731533 0.593097 0.21391499
1.8447874 1.1095829 -2.951891 0.76491684 -0.49217692 -0.41552874 0.635093 0.788236
1.7767823 0.84212786 -2.9130502 0.9896997 -0.1180225 -0.08102537 0.739511 0.756534
2.3416674 0.6283141 -2.867384 -0.24916326 -0.8864008 -0.3901425 0.919754 0.33248103
2.3766563 0.5362807 -2.863481 -0.8046112 -0.05051699 -0.59164923 0.945466 0.29877502
2.1027043 1.2537985 -2.945276 -0.009901105 -0.75851077 -0.65158534 0.58849 0.249327
2.2005093 1.2570381 -2.975264 -0.36491317 -0.70246303 -0.61105156 0.600293 0.27913398
2.3027246 1.0869646 -2.916865 -0.8657222 -0.38312986 -0.32208163 0.657531 0.31438798
2.3412626 0.9430991 -2.975659 -0.99710965 0.075687446 0.006611351 0.686856 0.357494
2.3003724 0.82036024 -2.9234672 -0.76986384 0.6174163 0.16157626 0.74247 0.374245
2.1653116 0.74475104 -2.910636 -0.38569745 0.8336026 0.39540377 0.804772 0.415111
2.2348025 0.6561852 -2.8482451 -0.59285206 -0.6821899 0.4279526 0.869934 0.368105
2.1345894 0.7148028 -2.899903 -0.5460103 0.27197185 0.79240394 0.825545 0.43841398
1.7756903 0.7051373 -2.945512 0.974503 0.030356657 0.22231157 0.797448 0.731338
1.8158724 0.49380308 -2.877279 0.83221924 0.5011309 -0.23723164 0.873071 0.795472
1.7979352 0.9641219 -2.948451 0.960573 -0.23965906 -0.14093596 0.678942 0.755532
2.1350033 0.67886263 -2.908637 -0.47546735 -0.49950978 0.7241691 0.849229 0.43369502
2.3035634 0.64930636 -2.9294262 -0.010286969 -0.9774138 -0.21108402 0.925817 0.366153
1.9404423 1.2588778 -3.0206232 0.5243564 -0.6538677 -0.54544234 0.560784 0.80543303
2.2864263 1.1920614 -2.9991221 -0.78423226 -0.44827342 -0.42898798 0.614085 0.310341
1.7796285 0.5736857 -2.89914 0.97435033 0.21790902 -0.056188084 0.84894 0.767578
1.8059313 0.4851418 -2.98309 0.9355213 0.352405 0.024709 0.905122 0.756279
2.2363064 0.7799826 -2.950701 -0.4481652 0.8664463 0.22004263 0.756574 0.40553802
2.2186863 0.7623854 -2.912428 -0.34525567 0.9200804 0.18506885 0.780532 0.397318
2.1463645 0.65267855 -2.936925 -0.24011792 -0.89144343 0.38428107 0.87753 0.436023
2.2180345 0.64587504 -2.9248772 -0.054352317 -0.9984918 -0.007731128 0.897956 0.40117198
1.8543422 0.4120608 -2.935117 0.7408765 0.60377604 -0.294205 0.912928 0.792693
1.8675182 1.1756134 -3.010575 0.72829574 -0.5729856 -0.37586272 0.594871 0.781828
1.8085515 1.0527754 -2.998447 0.95755357 -0.2243757 -0.18096042 0.646211 0.753366
1.7836301 0.89721495 -3.010133 0.99277174 -0.08892904 0.08059692 0.69325 0.722129
1.7734845 0.8156348 -2.972571 0.9927743 -0.0009128398 0.11999332 0.745964 0.72699296
2.1691182 0.75626856 -2.955044 -0.2902191 0.93084925 0.22201917 0.78707 0.439103
2.0363462 1.3097706 -3.020776 0.06261918 -0.7736839 -0.63046974 0.558442 0.23772198
2.1269581 1.3343534 -3.046338 -0.0989973 -0.7960517 -0.5970773 0.555894 0.26681602
2.2142003 1.3352938 -3.079279 -0.3855581 -0.7645287 -0.51656646 0.559119 0.295523
2.2605965 1.274807 -3.039704 -0.6105961 -0.59547746 -0.522091 0.58697 0.30263102
2.3210313 0.8760424 -3.010214 -0.8891302 0.43156 0.15232664 0.696463 0.389798
2.0177944 0.6875945 -2.966908 -0.45762366 -0.1349882 0.87883943 0.840765 0.520893
2.0194771 0.6511603 -3.0001302 -0.16735753 -0.80784196 0.56513965 0.872551 0.532723
2.0363462 1.3097706 -3.020776 0.32515064 -0.72601885 -0.6059486 0.544136 0.832138
1.8219464 1.1158228 -3.026817 0.88738436 -0.4129982 -0.20489366 0.620099 0.757132
2.3286202 1.1085196 -3.033734 -0.955754 -0.22217543 -0.19280127 0.630701 0.340725
2.1478484 0.7715531 -3.051521 -0.2672778 0.93476003 0.23406479 0.75058 0.470748
2.0398114 0.72174174 -2.971847 -0.40188062 0.71114767 0.57685435 0.816945 0.522774
2.0646484 1.3848563 -3.113954 -0.018198648 -0.83779293 -0.54568475 0.529072 0.25800902
2.3386152 1.0214958 -3.007801 -0.99241304 -0.09270713 -0.08075723 0.660353 0.35373503
2.2014916 0.65696436 -3.000753 0.1533677 -0.9724486 -0.17556185 0.925004 0.43647802
1.7832763 0.57765776 -2.985361 0.964727 0.06332872 0.25552168 0.872592 0.73122704
1.9786084 1.349413 -3.095143 0.37077603 -0.7434395 -0.5566172 0.526846 0.805251
2.0646484 1.3848563 -3.113954 0.21569376 -0.811689 -0.5428049 0.508541 0.827744
2.3044493 1.2409887 -3.080997 -0.8671758 -0.3699027 -0.33343366 0.58784 0.324508
1.8647945 1.230096 -3.096137 0.79299015 -0.4551353 -0.404992 0.565854 0.764447
1.7902792 0.8191615 -3.0291972 0.9067238 0.17452101 0.38391978 0.734954 0.697021
2.2652133 0.8110419 -3.02055 -0.5910258 0.78486884 0.18619747 0.723615 0.412704
1.8308094 0.72799116 -3.0371141 0.53595686 0.3329139 0.7758341 0.794596 0.671141
2.0879982 0.7425814 -2.987351 -0.25478646 0.92964244 0.26617438 0.794927 0.506472
1.8971212 0.6582671 -3.0286322 -0.08435831 -0.36695477 0.9264059 0.848991 0.634248
1.8940375 1.305772 -3.128934 0.68399304 -0.5724477 -0.45216924 0.536281 0.773606
2.2884672 1.3049308 -3.132436 -0.76535314 -0.55062443 -0.33323738 0.565693 0.32532197
1.9265063 0.7097855 -3.023731 -0.24597035 0.5280274 0.8128257 0.819531 0.611376
1.8119724 0.6268607 -3.025504 0.6769179 -0.20946637 0.70562446 0.85897 0.69481397
1.8236492 1.1469775 -3.112496 0.93816143 -0.30868876 -0.15673058 0.592613 0.73789704
2.3306196 1.1662093 -3.1066942 -0.96546227 -0.17306486 -0.19475925 0.603241 0.349873
1.8027976 1.0759306 -3.0865312 0.98433435 -0.17421862 -0.027086314 0.618492 0.72555697
2.3421304 1.0674354 -3.147247 -0.99911356 0.042087022 0.00089989475 0.618302 0.381796
1.7988303 0.98161703 -3.0915 0.99228996 0.0058061774 0.12380216 0.644469 0.700186
2.0003083 0.7425547 -3.055285 -0.13762365 0.92823046 0.34561232 0.769601 0.555508
1.9342992 1.3660384 -3.1576371 0.52818304 -0.7427924 -0.41143903 0.514508 0.785017
2.2453353 1.370742 -3.170784 -0.54325306 -0.7676969 -0.3398788 0.5437 0.31734103
1.7951453 0.9013739 -3.0750742 0.9337485 0.06904346 0.35120755 0.674009 0.692309
1.9207704 0.63267046 -3.056224 -0.0118647935 -0.73910534 0.67348534 0.885362 0.619624
2.0883315 0.6380864 -3.02448 -0.043175343 -0.9710832 0.23480469 0.905341 0.505528
1.9998634 1.4146062 -3.1900702 0.40654022 -0.81909865 -0.4047251 0.489993 0.79971397
2.1634624 1.4057456 -3.168044 -0.27661702 -0.8470876 -0.45379028 0.521734 0.297224
1.8403175 1.2498218 -3.162095 0.8512084 -0.40519735 -0.33355582 0.548857 0.745384
2.2353294 0.80458456 -3.0834632 -0.44466615 0.858745 0.25461552 0.713611 0.437411
1.8935835 0.7711049 -3.1043892 0.33272576 0.74626124 0.5765307 0.748152 0.62290096
2.0905535 1.4522659 -3.2233272 -0.016570479 -0.87899286 -0.47654682 0.495687 0.28838402
2.3312066 1.2297326 -3.1750531 -0.9580811 -0.23633417 -0.16194673 0.575661 0.352907
2.3295596 0.95354563 -3.106558 -0.95314974 0.26328522 0.1489512 0.652317 0.397282
1.8247135 0.86213595 -3.1179762 0.80726457 0.34845066 0.47634646 0.688632 0.657388
1.8149893 0.5369807 -3.058284 0.85941285 -0.028688092 0.5104768 0.913716 0.712535
1.9998634 1.4146062 -3.1900702 0.2526643 -0.8548663 -0.45317146 0.495694 0.25497
1.8838623 1.3379565 -3.197132 0.7361672 -0.6177381 -0.27650958 0.515031 0.756257
1.8251665 1.1978456 -3.163808 0.9397672 -0.21676628 -0.26429144 0.566142 0.72909296
2.2841694 0.85655695 -3.1069522 -0.74401784 0.597963 0.2981238 0.684315 0.426292
2.0408924 0.76368815 -3.116026 -0.12619331 0.9463522 0.29747745 0.731356 0.526617
2.0977614 0.79143244 -3.170155 -0.19062755 0.9109405 0.365853 0.702536 0.51115596
1.9506104 0.61064917 -3.0801072 -0.043892026 -0.7905619 0.6108071 0.915013 0.60457397
1.9184344 1.3804733 -3.2337632 0.6228882 -0.74390936 -0.24209325 0.49441 0.765116
1.8073676 1.0671226 -3.180029 0.9970319 0.008069333 0.076565504 0.599594 0.693264
1.9635303 0.76370054 -3.1256862 0.10647246 0.93012303 0.351475 0.734041 0.576775
1.8635724 0.5985499 -3.076142 0.3672309 -0.5439219 0.7545133 0.900502 0.663889
2.2940376 1.3456908 -3.237496 -0.7846709 -0.59872895 -0.16067153 0.540083 0.34052002
1.8374083 1.2780792 -3.2249842 0.87472284 -0.45313728 -0.17183286 0.528524 0.731287
1.8822124 0.8701754 -3.21546 0.654519 0.56371194 0.50381917 0.667592 0.621836
2.2074974 0.8298674 -3.171361 -0.44601986 0.810435 0.37981758 0.682519 0.46310502
2.3256552 1.2842742 -3.2284641 -0.9335985 -0.33356524 -0.13087462 0.554005 0.352625
2.2830236 0.9212752 -3.2165022 -0.74228346 0.5777093 0.33951023 0.639677 0.43719298
2.2351305 1.415804 -3.304153 -0.66356283 -0.7261842 -0.17983557 0.507347 0.337188
1.9608042 1.4375554 -3.294779 0.63924176 -0.7106847 -0.2937637 0.460572 0.77004004
1.8085282 1.1487094 -3.233258 0.9991562 -0.0029895324 -0.040963933 0.563613 0.695873
1.8275883 0.96958166 -3.211484 0.91223156 0.28494748 0.29434422 0.623726 0.653529
1.9263084 0.7964955 -3.171321 0.36471802 0.7695816 0.5241422 0.705848 0.600973
2.1411722 0.84040076 -3.255004 -0.2607287 0.8439525 0.46879077 0.664018 0.49634397
2.1580374 1.4661227 -3.2805462 -0.3969548 -0.83829725 -0.37374398 0.491525 0.31772
1.8633173 1.3300496 -3.262952 0.8061796 -0.5746388 -0.14094247 0.501928 0.73625696
1.8135965 1.2165881 -3.21727 0.9648985 -0.21245636 -0.15437974 0.546232 0.715591
2.3452604 1.1505128 -3.213854 -0.99965954 -0.021829424 -0.014293368 0.585193 0.38172
2.3248932 1.001999 -3.224888 -0.9265757 0.3191291 0.19903277 0.620058 0.41412902
1.9992425 0.7885619 -3.182498 0.042985108 0.87784225 0.47701707 0.698644 0.55880904
2.0364006 1.4745055 -3.283084 0.2697857 -0.884309 -0.38106874 0.467284 0.287982
2.3413002 1.2129041 -3.305542 -0.9974143 -0.057207946 0.04349648 0.552434 0.38751
1.8220394 1.0617753 -3.288582 0.9508249 0.24681972 0.1871146 0.569723 0.65480196
2.3324273 1.0959617 -3.308139 -0.96003354 0.20831554 0.18692295 0.58184 0.41361398
2.1000755 1.5034305 -3.334615 -0.05999986 -0.93792284 -0.34161502 0.463114 0.313164
1.8736203 1.3624259 -3.3337932 0.7951868 -0.5732463 -0.19765262 0.475164 0.726676
2.3256242 1.2980548 -3.322465 -0.94090754 -0.3386564 0.0022037968 0.532685 0.37239897
2.0428255 0.84159094 -3.271946 0.050881937 0.83813626 0.5430826 0.660134 0.540035
1.9608042 1.4375554 -3.294779 0.48673457 -0.81518626 -0.31394395 0.455308 0.26295698
2.2111804 0.9230128 -3.32814 -0.51031786 0.72991645 0.45475024 0.612141 0.47368097
1.9523313 0.83652025 -3.239627 0.32361093 0.74861944 0.5786579 0.6659 0.58256304
2.2950141 1.3547832 -3.340673 -0.8076988 -0.5895832 0.003774155 0.51664 0.36077303
1.8075435 1.2091905 -3.296515 0.9884989 -0.15084603 -0.010740384 0.531929 0.693771
1.8115623 1.136551 -3.348705 0.9762456 0.19026807 0.10364665 0.53728 0.665958
2.2887223 1.0072967 -3.336759 -0.78915274 0.5035248 0.35171124 0.596119 0.43827498
1.8622262 0.97488695 -3.30131 0.762554 0.49208206 0.41996032 0.600433 0.621536
2.0127842 1.4999477 -3.377979 0.3800618 -0.8858951 -0.26597548 0.440483 0.29417598
1.9201806 1.4343406 -3.370965 0.54749656 -0.79927707 -0.24779749 0.427578 0.259277
2.1723182 1.495413 -3.3853922 -0.53842074 -0.8062379 -0.24511947 0.467303 0.33501297
1.9201806 1.4343406 -3.370965 0.7389107 -0.63336307 -0.22991793 0.448616 0.744279
1.8283656 1.2771369 -3.32644 0.93027204 -0.35903668 -0.07540952 0.503804 0.702744
1.9341543 1.4633266 -3.4364042 0.5478733 -0.81788737 -0.17577004 0.415529 0.279696
2.2311232 1.4480678 -3.4648151 -0.8284667 -0.5541836 -0.080767795 0.4712 0.36601198
2.2799203 1.3654853 -3.453161 -0.8804581 -0.47030675 0.06004169 0.490679 0.384857
1.8206694 1.2901078 -3.407103 0.95250356 -0.2663301 -0.14766563 0.480404 0.681764
1.9483774 0.9360171 -3.359425 0.4474432 0.72662675 0.5213521 0.59982 0.579094
2.1155093 0.89988905 -3.3567572 -0.1702063 0.82752943 0.53499985 0.608255 0.50655
1.8117473 1.2007457 -3.432004 0.9936338 0.1037181 0.04398075 0.503102 0.65209
2.1128561 1.543626 -3.453538 -0.11472574 -0.94563943 -0.3043093 0.435149 0.33530498
2.3133233 1.3116227 -3.410677 -0.91799456 -0.37445873 0.13063964 0.513833 0.386676
2.0307286 1.5384532 -3.505972 0.42348462 -0.8910375 -0.16344087 0.412417 0.32151097
2.1878211 1.5159847 -3.50351 -0.7143758 -0.6680862 -0.20815413 0.445352 0.35879397
1.8482034 1.3639556 -3.4355612 0.84444976 -0.51115006 -0.16009432 0.45204 0.693231
2.3216584 1.1876842 -3.4417162 -0.95519274 0.14322796 0.25902244 0.535273 0.41944802
1.8561065 1.0506412 -3.3915782 0.8112265 0.50559044 0.29375136 0.550387 0.625027
2.0436194 0.90061766 -3.3605342 0.14630835 0.8184864 0.5555843 0.611468 0.536551
1.9341543 1.4633266 -3.4364042 0.7314858 -0.67195606 -0.115773484 0.423673 0.74471796
2.3306324 1.253461 -3.408123 -0.98163265 -0.11333963 0.1534651 0.525093 0.40297502
2.2873085 1.1104804 -3.473828 -0.83768135 0.39387566 0.37835428 0.54268 0.44212902
1.9352882 1.4705869 -3.497893 0.57504183 -0.81588376 -0.060502697 0.395234 0.290976
1.8018196 1.2664052 -3.49849 0.99539447 -0.05282677 -0.07999539 0.46261 0.647225
2.3031275 1.2780753 -3.5066 -0.96523476 -0.12405658 0.23006937 0.501726 0.41636598
1.8327634 1.1224109 -3.448169 0.897349 0.36879772 0.24239016 0.517032 0.62806
2.2264054 1.03327 -3.4861522 -0.63703805 0.63483095 0.4372324 0.548604 0.46669298
1.9065673 1.0222045 -3.4524322 0.605265 0.68232137 0.40998998 0.545977 0.591501
2.0561292 0.9562617 -3.444188 0.09454154 0.8402423 0.53390515 0.569124 0.533483
2.1640246 1.5563012 -3.5449781 -0.59213346 -0.7694192 -0.23952468 0.430254 0.361337
1.9352882 1.4705869 -3.497893 0.70523876 -0.7089133 0.008955677 0.404012 0.73191404
1.8738544 1.4071456 -3.480709 0.762695 -0.64195484 -0.07867827 0.428796 0.70332
2.1228921 1.575184 -3.547177 -0.07517348 -0.9676096 -0.24099919 0.419245 0.354302
1.8865693 1.0776511 -3.507602 0.6533079 0.6325615 0.41599843 0.516025 0.59186196
2.1536171 0.9729691 -3.4572072 -0.27174655 0.82892156 0.48892006 0.564238 0.496022
1.8742826 1.4072534 -3.5375462 0.74040395 -0.6716728 -0.025644606 0.412638 0.692201
1.8177965 1.3314906 -3.5221992 0.90246177 -0.41068673 -0.12999693 0.440898 0.662561
2.2854474 1.3322593 -3.544532 -0.9504023 -0.2707345 0.1530959 0.483133 0.41001898
1.9635384 1.4918605 -3.559823 0.5909492 -0.8054604 -0.044861723 0.383861 0.31400597
2.2314255 1.4606878 -3.59264 -0.9081402 -0.41863608 -0.00501525 0.445614 0.39473498
1.9635384 1.4918605 -3.559823 0.68152434 -0.73176 -0.0072017093 0.37785 0.733774
2.2616403 1.3833019 -3.579041 -0.94029945 -0.323462 0.1058734 0.464074 0.40813
1.8562086 1.142665 -3.5517511 0.7516861 0.57237345 0.32765347 0.486896 0.598898
1.9784691 1.0247718 -3.523509 0.34021258 0.7901775 0.50977916 0.526746 0.555031
2.1710994 1.0167266 -3.528338 -0.36739445 0.79681855 0.47968897 0.543671 0.48933703
2.1082466 1.5854837 -3.618715 0.09172828 -0.98599625 -0.13927454 0.397825 0.36935002
2.0406072 1.5536596 -3.600516 0.508639 -0.8575664 -0.07659129 0.38887 0.343558
2.2705085 1.2346202 -3.60306 -0.8858909 0.20553446 0.4158762 0.488818 0.446909
2.1679494 1.5720311 -3.631125 -0.5823522 -0.8018203 -0.13397808 0.412101 0.383295
1.8931754 1.4295112 -3.598723 0.64820975 -0.72823644 -0.22247642 0.386034 0.68511
1.8090322 1.3411123 -3.6007211 0.8696662 -0.4008289 -0.28812635 0.419171 0.63625896
1.7939785 1.2613059 -3.601304 0.96898454 0.24425633 -0.037519682 0.441355 0.615901
1.8206794 1.2035543 -3.579874 0.839179 0.5093405 0.19065897 0.461657 0.606079
2.0982935 1.0195972 -3.5545561 -0.015211204 0.85550296 0.51757437 0.534296 0.515337
2.2031815 1.5211898 -3.619389 -0.87351215 -0.48339447 -0.057500105 0.428023 0.391634
1.7811024 1.2898961 -3.651108 0.99437773 0.10450117 0.017097743 0.419626 0.606068
1.9874475 1.5168544 -3.633054 0.476508 -0.84309775 -0.2492514 0.369846 0.330464
2.2772496 1.306985 -3.598803 -0.95357084 -0.0730543 0.29217413 0.477211 0.430856
2.0808914 1.5835029 -3.6780572 0.30163163 -0.92566216 -0.22840306 0.380186 0.37486303
1.8538992 1.4760352 -3.639761 -0.15121587 0.048037846 -0.9873328 0.340055 0.68139803
1.9874475 1.5168544 -3.633054 0.5869848 -0.7058922 -0.39644048 0.356266 0.730953
1.9179876 1.4652787 -3.635149 0.5108196 -0.68190545 -0.5235154 0.362855 0.702649
2.1692765 1.0651542 -3.6004992 -0.45602217 0.7067686 0.5408531 0.517171 0.48834598
2.0412743 1.0719405 -3.630085 0.20112018 0.7812458 0.59093624 0.501304 0.524596
2.1458704 1.5973445 -3.71765 -0.4209042 -0.88661253 -0.19172335 0.383934 0.40017903
1.8464434 1.4184886 -3.641419 0.44891748 -0.35030916 -0.8220442 0.371023 0.656134
1.9543502 1.1126786 -3.633361 0.41790155 0.72420007 0.5485368 0.48895 0.551948
2.0373466 1.5711318 -3.695826 0.22832815 -0.79455775 -0.56262267 0.365226 0.36194903
1.7276952 1.4873515 -3.708801 0.75234306 0.34070957 0.5638235 0.320067 0.570939
1.7347224 1.4227401 -3.661926 0.8345671 0.5443441 0.08477739 0.341513 0.60272396
1.7808082 1.3599273 -3.672327 0.975337 0.12805101 -0.17977917 0.38091 0.604757
2.2142122 1.1579448 -3.643389 -0.71777743 0.43779728 0.5414139 0.490863 0.47136402
1.9520905 1.5253154 -3.66463 0.36996755 -0.5256147 -0.76606345 0.343289 0.716982
1.9520905 1.5253154 -3.66463 0.23011796 -0.8027708 -0.5500952 0.352761 0.329414
1.7889445 1.4146138 -3.655888 0.19716391 0.21477976 -0.95655423 0.355772 0.628989
2.2462094 1.411316 -3.655731 -0.9556993 -0.24376264 0.16498107 0.443081 0.42220402
1.7945435 1.257619 -3.6644151 0.7119693 0.6529207 0.2584457 0.428785 0.595214
1.8960016 1.1800433 -3.673091 0.523964 0.6724534 0.5227507 0.45945 0.561809
2.1088455 1.0806428 -3.6509361 -0.09847569 0.7714117 0.6286704 0.501308 0.504412
2.2224114 1.4516994 -3.7156072 -0.9611061 -0.17390677 0.21454962 0.426335 0.42437202
2.2505085 1.3472816 -3.671451 -0.93258417 -0.033402693 0.3594038 0.454939 0.437912
1.8406146 1.2393333 -3.688133 0.5759335 0.63187915 0.5186803 0.43821 0.577157
2.0765831 1.6595889 -3.759115 -0.7070006 -0.40329447 -0.5809506 0.34907 0.40811002
2.0389674 1.6003362 -3.722481 -0.20241253 -0.6052214 -0.76989365 0.353541 0.37243497
2.1930845 1.549986 -3.724282 -0.871819 -0.48981628 -0.0034034343 0.405306 0.409989
2.0991604 1.6230174 -3.761203 -0.45366344 -0.73113376 -0.5095418 0.362919 0.403539
1.7888834 1.4044849 -3.7403731 0.75007045 0.3457301 0.5637952 0.35897 0.56556404
2.1464283 1.1333123 -3.693383 -0.3892971 0.5946721 0.7034293 0.486465 0.49058902
1.8034132 1.3005239 -3.70443 0.7519592 0.34727758 0.5603175 0.410264 0.582265
2.1497076 1.6131984 -3.825274 -0.7487436 -0.6626245 0.017654037 0.370888 0.425317
2.1921985 1.5342294 -3.80722 -0.94675976 -0.21268786 0.24168135 0.39894 0.42897898
1.7929056 1.5261756 -3.796724 0.69055647 0.26805857 0.6717711 0.333885 0.533744
1.8650296 1.3245889 -3.774632 0.53210336 0.42827752 0.7303728 0.410992 0.54882896
2.2094386 1.3250858 -3.747602 -0.80556065 0.20831484 0.5546864 0.439157 0.45460403
1.9832704 1.1938602 -3.744895 0.2544594 0.6528604 0.71345896 0.451169 0.52581096
2.0640662 1.1580621 -3.726381 0.029883616 0.6605769 0.7501634 0.464155 0.508078
2.0900185 1.6900913 -3.834126 -0.8073598 -0.5894486 0.026844433 0.345242 0.43282598
1.8521101 1.4264966 -3.817269 0.5741001 0.34017256 0.7447763 0.375935 0.534317
1.9365242 1.262478 -3.7787821 0.36303318 0.5292716 0.7668627 0.427937 0.527968
2.1425464 1.2418615 -3.770684 -0.4346896 0.47909915 0.76256734 0.447492 0.480345
2.1876013 1.4518863 -3.821539 -0.8487134 0.11294382 0.516652 0.40938 0.443578
2.1682174 1.5829908 -3.8606482 -0.85717136 -0.35732332 0.3709141 0.375196 0.43708098
1.8730671 1.5131141 -3.867399 0.5253939 0.33925042 0.7803015 0.354559 0.514064
2.0457356 1.2926017 -3.825039 0.0040175566 0.50296766 0.86429584 0.422586 0.49717999
2.1583445 1.5357658 -3.8743951 -0.68944633 0.066819705 0.7212481 0.383738 0.446069
2.1400163 1.3688651 -3.84109 -0.49205503 0.36943534 0.7882889 0.416324 0.466218
1.9566905 1.4197465 -3.8688822 0.26161176 0.37595245 0.88894266 0.386433 0.507302
2.0755775 1.6474944 -3.908515 -0.508147 -0.33429977 0.79374444 0.352415 0.44931298
2.1340964 1.461424 -3.8802052 -0.48346844 0.21781574 0.84782934 0.397613 0.461039
2.1351593 1.5991021 -3.894321 -0.59086365 -0.3353819 0.73375684 0.365941 0.44553602
1.9284604 1.5242587 -3.904556 0.21596932 0.36715674 0.90473926 0.360217 0.49686098
2.0707471 1.4109565 -3.882755 -0.07082141 0.34072793 0.9374907 0.400448 0.482751
2.0777724 1.5283729 -3.909364 -0.17846581 0.14719132 0.97287446 0.374528 0.465649
1.9916704 1.5733358 -3.924093 -0.05404098 0.20710884 0.9768242 0.357164 0.47441798
2.1661303 0.39289576 -2.787424 -0.16982847 0.57083577 -0.80330867 0.932786 0.19350302
1.9473732 0.32910258 -2.9239979 0.6432343 0.67219985 -0.36660197 0.943877 0.825845
2.0213482 0.35308558 -2.82935 0.2586909 0.7467886 -0.61268735 0.927606 0.863782
3 0 1 2
3 2 3 0
3 3 4 0
3 0 5 6
3 4 7 0
3 8 3 2
3 0 7 5
3 4 9 7
3 0 10 1
3 11 12 13
3 6 10 0
3 14 15 12
3 14 16 15
3 14 12 11
3 17 4 3
3 18 17 3
3 19 14 11
3 17 9 4
3 16 20 21
3 22 2 1
3 22 1 23
3 13 12 24
3 10 23 1
3 25 26 15
3 3 8 18
3 25 15 16
3 27 25 16
3 28 17 18
3 5 29 6
3 30 5 7
3 30 7 9
3 2 31 8
3 26 32 12
3 12 32 24
3 15 26 12
3 16 33 27
3 5 34 29
3 5 30 34
3 17 35 9
3 34 36 29
3 21 37 16
3 38 21 39
3 2 22 40
3 40 31 2
3 41 17 28
3 33 16 37
3 41 35 17
3 42 21 38
3 38 39 43
3 26 44 32
3 45 26 25
3 45 25 27
3 46 34 30
3 42 37 21
3 34 47 36
3 45 44 26
3 48 18 8
3 49 28 18
3 50 30 9
3 50 9 51
3 9 35 51
3 52 53 37
3 52 37 42
3 34 54 47
3 40 22 55
3 49 18 48
3 41 56 35
3 53 33 37
3 56 51 35
3 50 46 30
3 46 54 34
3 24 32 57
3 40 58 31
3 59 32 44
3 31 58 8
3 8 58 60
3 60 48 8
3 45 59 44
3 61 41 28
3 61 56 41
3 51 62 50
3 52 42 38
3 63 38 43
3 23 64 65
3 23 65 22
3 22 65 55
3 59 66 32
3 49 67 28
3 61 28 67
3 33 68 27
3 33 69 68
3 32 66 57
3 70 58 40
3 71 49 48
3 27 68 45
3 51 56 72
3 62 51 72
3 46 50 73
3 74 52 38
3 73 54 46
3 74 38 63
3 70 40 55
3 68 75 45
3 71 67 49
3 72 76 62
3 77 69 53
3 74 63 78
3 73 79 54
3 80 55 65
3 75 81 45
3 69 82 68
3 56 83 72
3 83 76 72
3 53 52 84
3 50 62 85
3 86 57 66
3 55 80 87
3 87 70 55
3 59 88 66
3 59 45 81
3 75 89 81
3 90 48 60
3 90 71 48
3 68 91 75
3 71 92 67
3 92 93 67
3 94 67 93
3 82 91 68
3 94 61 67
3 77 53 84
3 73 50 85
3 95 65 64
3 96 66 88
3 88 59 81
3 97 89 75
3 83 98 76
3 99 62 76
3 100 101 80
3 70 102 58
3 90 60 103
3 104 71 90
3 75 91 97
3 92 71 104
3 92 105 93
3 61 94 106
3 106 56 61
3 106 83 56
3 77 82 69
3 100 80 65
3 101 87 80
3 102 70 87
3 102 60 58
3 105 107 93
3 82 108 91
3 93 107 94
3 77 84 109
3 110 81 89
3 97 110 89
3 108 97 91
3 94 107 111
3 112 98 83
3 100 65 95
3 66 113 86
3 114 87 101
3 111 106 94
3 77 115 82
3 115 109 116
3 117 118 92
3 92 118 105
3 92 104 117
3 106 111 119
3 83 120 112
3 83 106 120
3 109 121 116
3 66 96 122
3 114 102 87
3 123 96 88
3 88 110 123
3 88 81 110
3 97 124 110
3 97 125 124
3 126 105 118
3 120 106 119
3 95 127 100
3 128 101 100
3 128 129 101
3 129 130 101
3 130 114 101
3 113 66 122
3 104 90 131
3 118 117 126
3 108 125 97
3 132 111 107
3 132 133 111
3 111 133 119
3 115 108 82
3 127 128 100
3 86 113 134
3 122 96 135
3 102 114 136
3 123 135 96
3 131 90 103
3 117 137 126
3 105 138 107
3 107 138 132
3 139 128 127
3 140 102 136
3 140 60 102
3 140 103 60
3 112 120 141
3 115 142 108
3 113 143 134
3 144 134 143
3 114 130 145
3 113 122 146
3 125 147 124
3 104 148 117
3 108 147 125
3 149 147 108
3 150 138 105
3 150 105 126
3 137 150 126
3 151 133 132
3 143 113 152
3 153 130 129
3 130 153 145
3 148 104 131
3 154 132 138
3 155 149 108
3 116 142 115
3 146 152 113
3 156 122 135
3 157 136 114
3 158 156 135
3 123 158 135
3 159 140 136
3 110 160 123
3 124 160 110
3 137 161 150
3 161 154 138
3 150 161 138
3 154 151 132
3 108 142 155
3 152 162 143
3 163 153 129
3 124 164 160
3 148 137 117
3 151 149 155
3 149 151 154
3 165 133 151
3 119 166 120
3 166 141 120
3 167 144 143
3 168 128 139
3 146 169 152
3 114 145 157
3 156 146 122
3 157 159 136
3 147 164 124
3 170 137 148
3 154 171 149
3 133 166 119
3 168 139 172
3 167 143 162
3 168 129 128
3 173 157 145
3 174 131 103
3 147 149 175
3 116 176 142
3 172 139 177
3 163 129 168
3 178 162 152
3 179 146 156
3 123 160 158
3 164 147 175
3 131 180 148
3 181 161 137
3 181 137 182
3 165 183 133
3 133 183 166
3 142 176 155
3 178 184 162
3 184 167 162
3 173 145 153
3 158 185 156
3 174 180 131
3 170 148 180
3 149 171 175
3 181 186 161
3 171 154 161
3 187 151 155
3 165 151 187
3 188 153 163
3 169 189 152
3 179 169 146
3 160 185 158
3 174 103 140
3 160 164 175
3 171 190 175
3 191 182 137
3 170 191 137
3 161 186 171
3 176 187 155
3 192 153 188
3 173 153 192
3 174 140 159
3 193 180 174
3 170 180 191
3 187 183 165
3 194 163 168
3 184 195 167
3 152 189 178
3 156 196 179
3 196 156 185
3 175 197 160
3 171 198 190
3 186 198 171
3 199 182 191
3 200 168 172
3 200 194 168
3 201 184 178
3 169 179 202
3 203 159 157
3 204 174 159
3 205 198 186
3 181 205 186
3 206 172 177
3 194 188 163
3 189 201 178
3 207 173 192
3 202 189 169
3 202 179 196
3 203 157 173
3 208 196 185
3 209 159 203
3 209 204 159
3 197 185 160
3 174 204 193
3 182 205 181
3 210 200 172
3 184 211 195
3 201 211 184
3 188 212 192
3 207 203 173
3 190 197 175
3 182 213 205
3 214 206 177
3 185 197 208
3 191 193 215
3 191 180 193
3 205 216 198
3 213 182 199
3 188 194 217
3 218 189 202
3 196 219 218
3 208 219 196
3 209 220 204
3 204 220 193
3 190 221 197
3 198 216 190
3 213 216 205
3 191 215 199
3 206 210 172
3 222 214 223
3 206 214 222
3 210 224 200
3 211 225 195
3 224 194 200
3 212 188 217
3 226 201 189
3 207 192 212
3 206 222 210
3 218 226 189
3 227 222 223
3 194 224 228
3 217 194 229
3 226 211 201
3 226 230 211
3 209 203 207
3 216 231 190
3 216 213 231
3 232 213 199
3 199 215 232
3 218 233 226
3 219 233 218
3 220 215 193
3 210 222 234
3 234 224 210
3 217 229 235
3 235 212 217
3 197 221 208
3 221 190 231
3 234 222 236
3 234 237 224
3 237 228 224
3 194 228 229
3 225 211 238
3 226 233 230
3 239 209 207
3 208 240 219
3 208 221 240
3 213 241 231
3 241 213 232
3 227 236 222
3 238 242 225
3 243 207 212
3 239 207 243
3 230 238 211
3 212 235 243
3 244 209 239
3 244 220 209
3 240 221 231
3 245 236 227
3 238 230 246
3 247 243 235
3 233 246 230
3 219 248 233
3 240 248 219
3 220 244 249
3 250 240 231
3 251 241 232
3 252 237 234
3 253 242 254
3 242 238 254
3 229 247 235
3 215 220 249
3 251 231 241
3 255 252 234
3 240 256 248
3 250 256 240
3 255 234 236
3 215 249 257
3 215 257 232
3 254 258 253
3 238 246 259
3 260 247 229
3 239 243 247
3 257 251 232
3 236 245 261
3 237 262 228
3 253 258 263
3 229 228 264
3 248 265 233
3 248 256 265
3 266 250 231
3 251 266 231
3 257 249 267
3 236 268 255
3 236 261 269
3 264 228 262
3 229 264 260
3 270 239 247
3 266 256 250
3 236 269 268
3 255 271 252
3 272 263 258
3 273 258 259
3 274 273 259
3 274 259 246
3 233 275 246
3 233 265 275
3 239 270 244
3 257 276 251
3 268 271 255
3 277 237 252
3 262 237 277
3 278 273 274
3 251 276 266
3 267 276 257
3 277 252 271
3 269 261 279
3 273 272 258
3 260 280 247
3 268 269 281
3 263 272 283
3 283 272 284
3 280 260 264
3 246 275 274
3 267 249 285
3 276 286 266
3 268 287 271
3 288 284 272
3 288 272 273
3 289 265 256
3 289 256 266
3 269 279 281
3 281 279 290
3 293 273 278
3 270 247 280
3 244 270 294
3 294 249 244
3 294 285 249
3 267 285 276
3 288 282 295
3 283 284 295
3 288 295 284
3 298 264 262
3 293 288 273
3 299 278 274
3 300 275 265
3 265 289 300
3 301 286 276
3 285 301 276
3 290 279 296
3 302 262 277
3 288 297 282
3 293 297 288
3 264 303 280
3 304 299 274
3 275 304 274
3 306 290 296
3 307 277 271
3 292 297 293
3 298 303 264
3 270 280 303
3 300 304 275
3 266 286 289
3 281 287 268
3 281 290 308
3 271 287 307
3 307 302 277
3 291 292 309
3 298 262 302
3 285 294 310
3 308 287 281
3 306 308 290
3 293 309 292
3 278 311 293
3 299 311 278
3 310 301 285
3 306 305 308
3 312 307 287
3 313 302 307
3 311 309 293
3 299 304 311
3 291 309 314
3 298 302 303
3 311 315 309
3 270 303 316
3 311 304 315
3 316 294 270
3 289 317 300
3 301 318 286
3 316 303 302
3 309 315 320
3 321 315 304
3 294 316 322
3 300 321 304
3 317 321 300
3 318 317 289
3 289 286 318
3 318 301 310
3 307 312 313
3 323 302 313
3 322 318 310
3 322 310 294
3 305 319 308
3 308 312 287
3 319 312 308
3 309 320 314
3 324 313 312
3 325 314 320
3 316 302 323
3 317 318 326
3 327 313 324
3 323 313 327
3 328 316 323
3 328 322 316
3 320 315 329
3 315 321 329
3 317 326 321
3 326 318 322
3 323 331 328
3 330 312 319
3 326 322 328
3 330 332 312
3 332 324 312
3 332 327 324
3 325 329 333
3 331 323 327
3 320 329 325
3 334 328 331
3 326 334 329
3 334 326 328
3 329 321 326
3 327 332 335
3 336 333 329
3 335 331 327
3 335 334 331
3 335 332 330
3 336 335 330
3 336 329 335
3 329 334 335
3 258 254 259
3 254 238 259
3 73 337 79
3 115 77 109
3 121 84 338
3 74 78 339
3 52 74 84
3 84 121 109
3 84 74 339
3 33 53 69
3 21 20 39
3 20 14 19
3 16 14 20
3 20 19 39
3 218 202 196
