ply
format ascii 1.0
comment Created in Blender version 4.1.1
element vertex 368
property float x
property float y
property float z
property float nx
property float ny
property float nz
property float u
property float v
element face 655
property list uchar uint vertex_indices
end_header
1.3895142 1.538373 -1.7682579 -0.32733208 -0.4217723 -0.8455542 0.172109 0.20525998
1.3569744 1.4558592 -1.738029 -0.21288665 -0.099907726 -0.97195566 0.174363 0.16571999
1.2482035 1.5412302 -1.7481909 -0.09799009 -0.23981851 -0.9658598 0.114469 0.173253
1.2733982 1.4348583 -1.7293439 -0.05212961 -0.005383428 -0.9986259 0.148671 0.14071703
1.3302534 1.3684187 -1.740958 -0.11185467 0.24882415 -0.9620681 0.18443 0.127065
1.4143126 1.3784533 -1.7595239 -0.33667845 0.1797635 -0.9243012 0.217136 0.14860201
1.2537296 1.3610649 -1.7451389 0.08211912 0.33905622 -0.9371752 0.159976 0.10763502
1.3084843 1.6142025 -1.781446 -0.5032973 -0.63898057 -0.5817178 0.112625 0.22094297
1.3781784 1.5897665 -1.814903 -0.23759988 -0.8548519 -0.46127486 0.160177 0.24732202
1.4840524 1.4442139 -1.7863178 -0.42794326 -0.043298148 -0.9027679 0.233277 0.18457401
1.4479973 1.5796509 -1.828202 -0.22862618 -0.8093721 -0.5409684 0.202542 0.25200802
1.5079963 1.5293016 -1.8164508 -0.42861813 -0.39472836 -0.8126967 0.235779 0.22748101
1.3815534 1.2870922 -1.783778 -0.22528215 0.43288898 -0.87284315 0.218123 0.10347599
1.2882774 1.2787552 -1.7780399 0.0070955395 0.43766204 -0.8991116 0.190289 0.07766801
1.4992664 1.3153801 -1.816736 -0.39017734 0.31164277 -0.86639506 0.268847 0.13357699
1.6086414 1.4741249 -1.8604529 -0.5572355 -0.20149955 -0.80553496 0.298586 0.219352
1.5960214 1.3940992 -1.847321 -0.5070794 0.081515126 -0.85803604 0.29365 0.18405002
1.1926682 1.2988672 -1.791676 0.21676499 0.43943262 -0.8717292 0.148418 0.068323016
1.4142754 1.5923796 -1.8792329 0.27847964 -0.9600545 -0.027282393 0.187005 0.28919297
1.5178545 1.5830927 -1.866468 -0.3185859 -0.76861626 -0.554736 0.240367 0.26689398
1.4229853 1.1887321 -1.8576939 -0.27395183 0.47924793 -0.83382964 0.262041 0.06404102
1.3323214 1.2037001 -1.824476 -0.1665834 0.510147 -0.84380096 0.230079 0.049749017
1.3641303 1.5642986 -1.89557 0.452332 -0.8276686 0.33220553 0.148652 0.31009197
1.5315464 1.213048 -1.878964 -0.37282604 0.40942723 -0.8326885 0.299824 0.090991974
1.4757602 1.6137991 -1.9266069 0.039517228 -0.98362935 -0.17581734 0.232413 0.311491
1.5948493 1.5414639 -1.881367 -0.53279597 -0.513449 -0.6726802 0.284762 0.24829203
1.5714924 1.579812 -1.905829 -0.4501149 -0.76587695 -0.45916128 0.273972 0.275945
1.5329754 1.6043329 -1.9198339 -0.25767648 -0.9203124 -0.2943262 0.25586 0.29828
1.4233215 1.6014223 -1.954983 0.56899506 -0.8219659 0.024833355 0.213652 0.33389503
1.6431172 1.5624609 -1.9523039 -0.5002214 -0.7337195 -0.45981967 0.326276 0.27261198
1.6968625 1.5053034 -1.94628 -0.63320327 -0.43127424 -0.64269435 0.357468 0.24812001
1.7151325 1.4028778 -1.930332 -0.6191199 -0.070617534 -0.78211486 0.368379 0.204997
1.6374304 1.2969093 -1.8947089 -0.47237563 0.26877132 -0.8394184 0.334087 0.15154201
1.3323214 1.2037001 -1.824476 -0.14526086 0.6911923 -0.70792127 0.134318 0.923605
1.4229853 1.1887321 -1.8576939 -0.19270049 0.6985657 -0.6891099 0.164224 0.931207
1.3266485 1.1391478 -1.886339 -0.07456954 0.80488974 -0.58872056 0.146258 0.895369
1.3904545 1.55616 -1.95115 0.76916546 -0.6008851 0.21753535 0.178155 0.34715497
1.3977044 1.1068497 -1.9426699 -0.067205705 0.86079586 -0.50449365 0.177995 0.885857
1.5852792 1.589139 -1.9503438 -0.37885016 -0.8827095 -0.27802247 0.295696 0.291916
1.6111534 1.1701479 -1.9456539 -0.3984459 0.42244574 -0.8141133 0.343854 0.08976197
1.5315464 1.213048 -1.878964 -0.27275717 0.6402558 -0.7181058 0.200732 0.951486
1.4969685 1.1179104 -1.950654 -0.18041788 0.7643755 -0.6190149 0.213523 0.90166
1.6111534 1.1701479 -1.9456539 -0.27193955 0.6414634 -0.7173378 0.240279 0.94548297
1.3347495 1.49055 -1.9879708 0.36057398 -0.803662 0.4734065 0.130489 0.40238798
1.3652751 1.5161657 -1.958468 0.48563537 -0.7354009 0.47259256 0.150138 0.379214
1.7039483 1.2341251 -1.9535689 -0.45968997 0.3613794 -0.8112275 0.376077 0.1293
1.5503194 1.6101303 -1.9840279 -0.20199397 -0.9713292 -0.12537184 0.284173 0.31968302
1.3629901 1.4774742 -2.03668 0.7665841 -0.5611155 0.31224725 0.16421 0.434587
1.7456963 1.304389 -1.9569409 -0.5839603 0.15163642 -0.7974941 0.395385 0.16684198
1.4471414 1.6095095 -2.0152578 0.42102334 -0.8963934 0.1386298 0.244126 0.36306
1.5022414 1.6165533 -2.040236 0.100216664 -0.993267 0.058114555 0.278874 0.356178
1.4025795 1.5564156 -2.047041 0.80305094 -0.570693 0.17151906 0.222114 0.400562
1.7239082 1.5628071 -2.043412 -0.4970131 -0.7495797 -0.4371594 0.390684 0.29647797
1.6315963 1.59202 -2.01338 -0.3142528 -0.915488 -0.2512508 0.33258 0.306821
1.5663393 1.0902119 -2.003664 -0.13733292 0.7911495 -0.5960052 0.24487 0.89977
1.3128722 1.0994387 -1.9617999 0.0500037 0.95590603 -0.28938442 0.145733 0.861295
1.2403004 1.122345 -1.9243529 0.035541784 0.8817049 -0.47046056 0.114279 0.87032
1.5802372 1.6132011 -2.0845659 -0.108248495 -0.9941144 -0.004337919 0.32953 0.356255
1.7927206 1.457181 -2.016819 -0.6543863 -0.3396726 -0.6755746 0.403199 0.23915398
1.7727225 1.2270403 -2.004075 -0.6062546 0.32636237 -0.72521937 0.418635 0.13650203
1.7073243 1.1620369 -1.995156 -0.4793259 0.43960398 -0.7596019 0.402165 0.09491998
1.3712351 1.0823412 -2.021056 0.16624773 0.97732645 -0.13112864 0.179656 0.84844
1.8003123 1.3299227 -2.001196 -0.6795061 0.04912395 -0.7320235 0.416427 0.18311697
1.6556284 1.0879936 -2.034982 -0.2667386 0.72092867 -0.6396189 0.281303 0.909697
1.7073243 1.1620369 -1.995156 -0.3500493 0.62141335 -0.7009358 0.294152 0.948745
1.4478142 1.0687885 -2.030948 0.035994045 0.95962673 -0.27896395 0.223682 0.856297
1.6632693 1.6021452 -2.0917149 -0.18736929 -0.9675357 -0.16960959 0.370518 0.33539498
1.8572686 1.4397116 -2.0672488 -0.6613669 -0.30094412 -0.6870419 0.432034 0.23430902
1.8514192 1.3428545 -2.048065 -0.6772402 0.027011763 -0.735266 0.437903 0.18838203
1.8277051 1.5438871 -2.1257598 -0.53229976 -0.66430914 -0.5247383 0.436802 0.291184
1.4462225 1.5798368 -2.113484 0.6180263 -0.75797856 0.20859529 0.268304 0.41386002
1.3232806 1.4121904 -2.0704799 0.6194785 -0.62364787 0.47677013 0.13667 0.497773
1.8283331 1.2102823 -2.063917 -0.6418284 0.35081318 -0.68189913 0.446561 0.13151997
1.5172493 1.059227 -2.061517 0.06702712 0.95222574 -0.29794875 0.253247 0.860632
1.5064914 1.6117239 -2.13847 0.2445544 -0.9606175 0.13193627 0.306517 0.401789
1.3725955 1.4706821 -2.116535 0.8932467 -0.3861421 0.2302271 0.208807 0.47272402
1.9052942 1.3545227 -2.100599 -0.74454445 -0.0127992295 -0.6674502 0.469078 0.198713
1.8859966 1.2511663 -2.0989928 -0.68519646 0.2566678 -0.6816358 0.470647 0.152102
1.3049896 1.0965395 -2.044211 0.19855562 0.9668128 0.1607752 0.155535 0.81711
1.2508914 1.098443 -1.991919 0.096938714 0.993222 0.06413274 0.123281 0.840534
1.7576802 1.1283445 -2.054761 -0.4000512 0.66009367 -0.6357951 0.326031 0.937497
1.7159483 1.6115017 -2.164922 -0.09103524 -0.9533173 -0.28792122 0.412328 0.35021102
1.3987052 1.5144739 -2.138742 0.8121595 -0.50464374 0.29279983 0.241958 0.45200002
1.3392284 1.3757696 -2.1401649 0.74939185 -0.39811546 0.5290708 0.167748 0.559584
1.9024932 1.452136 -2.121752 -0.7129443 -0.35984546 -0.6018485 0.465194 0.24372602
1.7576802 1.1283445 -2.054761 -0.59092325 0.45290068 -0.6676007 0.437017 0.08463299
1.4122102 1.0690413 -2.088537 0.27104318 0.95752347 0.09840964 0.219187 0.826872
1.5865362 1.0446186 -2.083587 0.04417724 0.9227146 -0.38294402 0.276613 0.872928
1.5508935 1.6043367 -2.1807709 -0.057915643 -0.93771356 0.3425479 0.339907 0.40956402
1.6182292 1.6004696 -2.175125 0.100436516 -0.9887213 0.111097604 0.372061 0.384327
1.3600175 1.0906572 -2.0929859 0.36268008 0.8965643 0.25423527 0.190626 0.802976
1.7265275 1.0544186 -2.115088 -0.3680155 0.7971757 -0.4786183 0.334988 0.901617
1.6545112 1.0325537 -2.110915 -0.14094393 0.89612263 -0.4208314 0.309804 0.884241
1.9461772 1.4937611 -2.2134268 -0.70720094 -0.48705414 -0.5124892 0.510652 0.27141798
1.9448202 1.2475882 -2.166559 -0.7565361 0.22074261 -0.6155695 0.506214 0.15803498
1.8697746 1.1300097 -2.159967 -0.6098174 0.46253932 -0.6435683 0.492036 0.09530097
1.7987354 1.100955 -2.1149979 -0.6096276 0.46499377 -0.6419774 0.46486 0.08127397
1.2385495 1.1136599 -2.057751 0.22350147 0.9150012 0.33588672 0.125302 0.807148
1.4575555 1.5670853 -2.201751 0.69296134 -0.66146356 0.2868284 0.299057 0.44885898
1.9599054 1.3796167 -2.1710439 -0.79106647 -0.10673963 -0.60234576 0.50289 0.21569997
1.4683392 1.0593519 -2.1308289 0.28789625 0.95086265 0.11391257 0.257478 0.818136
1.6160715 1.017971 -2.160459 0.13129605 0.984998 -0.111983515 0.311857 0.852533
1.7870185 1.6236029 -2.217985 -0.25742865 -0.88896745 -0.37877083 0.45368 0.353395
1.4180481 1.5018005 -2.200101 0.8478719 -0.42212364 0.32081917 0.268792 0.487826
1.8696163 1.5935459 -2.2460968 -0.5186245 -0.768399 -0.3749556 0.491645 0.326142
1.3196924 1.1294079 -2.13388 0.38033673 0.73034894 0.56739265 0.177984 0.76419
1.2377145 1.1477289 -2.113703 0.31275645 0.7294131 0.6083912 0.127422 0.771054
1.7987354 1.100955 -2.1149979 -0.4980167 0.7272393 -0.4723372 0.351534 0.931198
1.3820455 1.4125185 -2.199235 0.85198635 -0.27899134 0.4430385 0.23255 0.540768
1.4063365 1.0984755 -2.162312 0.45306224 0.75277275 0.4775646 0.235781 0.779276
1.4973443 1.5929785 -2.212827 0.2390587 -0.8587251 0.4532572 0.320747 0.43701798
1.6429646 1.6123991 -2.259815 0.46030045 -0.88465434 -0.0742304 0.410095 0.41604298
1.5645354 1.5708447 -2.227747 0.07250466 -0.85777324 0.50888914 0.365905 0.43194902
1.5763953 1.5539274 -2.276702 0.65104884 -0.73409814 0.1929643 0.381569 0.45637703
2.0101984 1.4032936 -2.2432969 -0.8034373 -0.20712027 -0.5582022 0.536968 0.22670299
1.5452201 1.0382404 -2.1736329 0.32602593 0.9432101 0.06373207 0.293386 0.824863
1.6864464 1.016798 -2.184363 -0.15140142 0.9815627 -0.11667174 0.342646 0.865452
1.7240646 1.6433325 -2.277933 0.12658988 -0.98048455 -0.15041627 0.457775 0.39793903
1.4352844 1.499567 -2.253099 0.8036316 -0.39219344 0.4476165 0.296951 0.49649101
1.3099415 1.2736807 -2.180302 0.5634179 -0.21167432 0.79859513 0.160021 0.65225196
1.2743862 1.3459988 -2.1268759 0.36639544 -0.42960125 0.8253467 0.102365 0.582233
2.0153954 1.2994986 -2.248744 -0.8172912 0.13293093 -0.56068206 0.544944 0.18555301
1.2822793 1.1956663 -2.166491 0.4601027 0.39136022 0.7969583 0.162854 0.711334
1.7720244 1.0445032 -2.184983 -0.397733 0.86777276 -0.2979578 0.364468 0.892374
1.3645604 1.3077793 -2.215072 0.7236197 -0.15679534 0.6721531 0.210993 0.62447
1.9405572 1.1582918 -2.198597 -0.70064217 0.44009137 -0.5616228 0.522438 0.12388599
1.4788005 1.0867491 -2.2248058 0.5403198 0.7193882 0.43650335 0.280531 0.774885
1.8697746 1.1300097 -2.159967 -0.49573228 0.7557018 -0.4279769 0.377534 0.942282
1.8008044 1.6405382 -2.291334 -0.24132693 -0.9587389 -0.15026976 0.485139 0.373366
1.4688523 1.5321522 -2.26599 0.42546466 -0.5936915 0.6830156 0.321482 0.482284
1.5179703 1.556201 -2.252709 -0.014986294 -0.69304377 0.7207397 0.343038 0.46116
1.5382273 1.522089 -2.2801468 0.31971428 -0.68802786 0.6514602 0.365341 0.47641098
1.9615152 1.5559864 -2.314996 -0.6362286 -0.67961514 -0.36515248 0.549951 0.309973
1.8651192 1.6236639 -2.346184 -0.3698912 -0.92620426 -0.0729803 0.527306 0.366633
2.0398304 1.4559164 -2.327483 -0.82196283 -0.39116064 -0.4139691 0.579078 0.257033
1.4191134 1.4187422 -2.265698 0.841817 -0.17353384 0.5111068 0.281186 0.560085
1.4097884 1.19557 -2.249327 0.6382077 0.322087 0.6992502 0.26304 0.699106
1.9808862 1.178216 -2.25934 -0.79059774 0.44156393 -0.42423633 0.548854 0.13813502
1.9163363 1.0995998 -2.247073 -0.7086537 0.6180281 -0.34036922 0.537539 0.09338099
1.8197925 1.0397816 -2.2613358 -0.31784758 0.91946536 -0.2314226 0.393949 0.888069
1.6648104 1.6304617 -2.351074 0.39790666 -0.9142153 0.07668591 0.457232 0.440171
1.4486825 1.4545774 -2.297134 0.631429 -0.2861893 0.7206893 0.320771 0.53550303
1.9163363 1.0995998 -2.247073 -0.48836187 0.7944416 -0.36106145 0.418738 0.93436
1.6249425 1.0227995 -2.2412329 0.17617162 0.95169115 0.25149035 0.344504 0.83025503
1.5964882 1.5802059 -2.346109 0.72699153 -0.6829989 0.07068117 0.419837 0.468292
1.5358822 1.4760408 -2.339736 0.7598614 -0.5034081 0.41132817 0.377962 0.526198
2.0553954 1.3675165 -2.304704 -0.87603545 -0.10378933 -0.47094557 0.573463 0.218377
1.4138224 1.3214025 -2.274942 0.78294647 -0.017539984 0.62184167 0.274768 0.625445
1.7143233 1.0220652 -2.262003 -0.021414865 0.99302185 0.11596966 0.371479 0.854161
1.4948232 1.464673 -2.315312 0.45858583 -0.47547093 0.75075054 0.354285 0.537856
2.0696695 1.2969751 -2.337473 -0.89554054 0.14518707 -0.42062783 0.590746 0.18785
2.0413473 1.2141037 -2.332391 -0.8204749 0.37835476 -0.42856577 0.582933 0.152233
1.7549703 1.6474905 -2.357951 0.007813236 -0.99597454 0.08929583 0.489217 0.412722
1.4798343 1.2841349 -2.347661 0.7331988 0.113241374 0.6705191 0.343524 0.656
1.5211675 1.1127853 -2.3029568 0.5489807 0.56449187 0.6164164 0.329871 0.758292
1.9378126 1.097147 -2.3303878 -0.69143564 0.64774305 -0.31991526 0.57398 0.09469801
1.5580113 1.0555754 -2.268203 0.41556627 0.8050803 0.42326158 0.333044 0.796706
1.9496462 1.5866728 -2.375896 -0.51016665 -0.85340744 -0.10689127 0.572021 0.332671
1.5588925 1.519681 -2.362149 0.8771245 -0.45563066 0.15183328 0.408882 0.504687
1.6279423 1.5942736 -2.4147 0.57280785 -0.7344159 0.36403897 0.465941 0.47713298
2.0284483 1.5291119 -2.4035408 -0.71459997 -0.62648016 -0.31123856 0.603952 0.293837
1.4586675 1.3753614 -2.324128 0.721426 -0.1290286 0.6803647 0.328571 0.59624803
1.8785775 1.0527964 -2.315191 -0.49152565 0.8697619 -0.04378211 0.427603 0.895521
1.6314056 1.0706663 -2.337179 0.37783784 0.77619165 0.50474256 0.377256 0.800188
2.0942934 1.3587904 -2.3954139 -0.94506514 -0.06389551 -0.32057643 0.617243 0.21803403
1.9966834 1.1320906 -2.360913 -0.6861957 0.6275385 -0.36787352 0.590039 0.11128199
1.9378126 1.097147 -2.3303878 -0.5306277 0.8453174 -0.062231336 0.451069 0.921797
1.7470105 1.0311899 -2.3365588 0.12352843 0.9679907 0.21848285 0.403347 0.849042
1.8211806 1.0311394 -2.343257 -0.18041588 0.9748526 0.13081427 0.423853 0.87151504
1.7923925 1.6352606 -2.419489 -0.1057028 -0.93678916 0.33354613 0.524027 0.41862297
1.8780205 1.6134367 -2.412577 -0.31697932 -0.89178467 0.32286873 0.552566 0.38897598
1.5175202 1.382513 -2.384323 0.7987672 -0.16388142 0.57889026 0.384106 0.590863
1.9548123 1.5799074 -2.42221 -0.36617795 -0.9303615 -0.018468553 0.586951 0.35060298
1.5840924 1.5339537 -2.427439 0.7798422 -0.48777437 0.39232934 0.453694 0.51433504
1.5431173 1.1897459 -2.376952 0.64055985 0.4219802 0.64157295 0.378184 0.712362
1.8609436 1.0630407 -2.399811 -0.23881711 0.9427223 0.23289713 0.457523 0.87167597
1.7104843 1.0763178 -2.412088 0.35057786 0.79923445 0.48817983 0.42203 0.808986
1.6986544 1.6231642 -2.426055 0.26186046 -0.8728723 0.41173178 0.492902 0.452689
1.8690894 1.580204 -2.4587512 -0.03648883 -0.9003992 0.43353182 0.582992 0.41206998
1.9459126 1.5896807 -2.4698339 -0.06374944 -0.93905 -0.33781794 0.611497 0.360402
1.5525334 1.4579248 -2.4206738 0.8880548 -0.24598905 0.38839164 0.430015 0.55745
2.0975592 1.4376268 -2.448262 -0.91063464 -0.2839267 -0.30021682 0.632136 0.250359
1.5396535 1.2930384 -2.41922 0.77617335 0.13299723 0.6163332 0.399634 0.65465903
2.0921652 1.2429171 -2.4313629 -0.92205447 0.2678637 -0.27940032 0.629586 0.16823
2.0471284 1.1606121 -2.409713 -0.77212906 0.56755793 -0.28582284 0.617543 0.12793797
1.7372682 1.5978689 -2.477254 0.07114377 -0.71022534 0.7003703 0.525015 0.46553302
1.8129084 1.6073303 -2.4569058 -0.19945693 -0.70830804 0.67713845 0.546951 0.43073398
2.0202973 1.5643253 -2.4692779 -0.5519688 -0.7584448 -0.34654284 0.633056 0.317002
2.0855033 1.5100288 -2.515977 -0.8460566 -0.46953598 -0.2524366 0.662807 0.27818
1.7813156 1.0479221 -2.394693 0.05085697 0.90412337 0.424234 0.433009 0.839856
1.8740494 1.5785933 -2.495709 0.4295675 -0.8374195 -0.33793533 0.608944 0.407368
1.5788033 1.3763227 -2.482383 0.81372494 -0.0076984507 0.58119917 0.454423 0.607594
1.6372974 1.148901 -2.4387069 0.5782258 0.59483254 0.5584166 0.419754 0.754004
1.9388163 1.0854349 -2.425078 -0.31381053 0.9487666 -0.036945272 0.478611 0.892804
1.9966834 1.1320906 -2.360913 -0.49962604 0.8499121 -0.16740137 0.468576 0.935375
1.6464484 1.5471134 -2.486117 0.47580346 -0.57882285 0.6622501 0.496398 0.505109
1.7820303 1.560318 -2.4937792 -0.12681314 -0.5595405 0.8190438 0.566785 0.46267402
1.8079875 1.534606 -2.511138 0.4085476 -0.8758867 0.25673234 0.592166 0.47051603
2.1292055 1.3239689 -2.532494 -0.982837 0.07919534 -0.16661197 0.67037 0.19929701
2.0055225 1.1101389 -2.452951 -0.3974467 0.91340965 -0.087856926 0.501989 0.913188
1.9112175 1.6247778 -2.52811 0.07991921 -0.7988115 -0.59624916 0.655079 0.40069598
1.9961784 1.6065702 -2.524275 -0.3846059 -0.8117525 -0.43947268 0.662404 0.34844202
2.0496643 1.5704746 -2.533862 -0.6997101 -0.6413853 -0.3146913 0.670734 0.315022
1.5937135 1.251647 -2.4712691 0.7348688 0.3139447 0.6011709 0.437312 0.683319
2.0055225 1.1101389 -2.452951 -0.653848 0.74311876 -0.14232828 0.629364 0.09680903
1.7380283 1.4996376 -2.535681 0.11947383 -0.6300748 0.76728857 0.569668 0.515851
1.5874364 1.4764175 -2.4785872 0.76800424 -0.28872576 0.57167035 0.470175 0.551847
2.1084292 1.2152128 -2.5341282 -0.9311548 0.35709384 -0.07372091 0.669655 0.15547103
1.8554776 1.5981703 -2.523573 0.44539467 -0.56454986 -0.6949151 0.634758 0.43238997
1.8238094 1.619276 -2.560403 0.48438895 -0.5602917 -0.6718933 0.661454 0.45648402
1.7097886 1.5424967 -2.51604 0.10437595 -0.54145163 0.8342276 0.530679 0.50132
1.6171453 1.4566507 -2.518713 0.6532175 -0.27179796 0.7067056 0.4964 0.56757
2.1267602 1.4275904 -2.550874 -0.96402574 -0.21160948 -0.16085967 0.676403 0.23891002
2.0668442 1.1591911 -2.489856 -0.76666987 0.62656873 -0.14010327 0.651298 0.13322097
1.7161124 1.1301384 -2.490456 0.46377635 0.71930265 0.5172187 0.466249 0.779318
1.6682913 1.2050695 -2.527626 0.65739226 0.51264596 0.5522948 0.478996 0.72625697
1.7825015 1.0848694 -2.4602551 0.17852803 0.8821193 0.43588227 0.463861 0.819084
1.7965024 1.5499182 -2.547955 0.6801868 -0.4275034 -0.59547186 0.61736 0.48691702
1.6402934 1.3958483 -2.5568962 0.7088753 -0.1714277 0.6841844 0.525 0.605564
1.8735564 1.6705942 -2.591401 0.15090092 -0.69423777 -0.7037492 0.693669 0.430292
1.7790692 1.6489716 -2.626368 0.5775591 -0.49324545 -0.6504878 0.694344 0.48155802
2.0346563 1.605319 -2.581976 -0.6571742 -0.69000834 -0.30333218 0.700153 0.337807
1.7531264 1.4875803 -2.5590582 0.6783463 -0.73370355 0.039056823 0.589557 0.530933
1.6389754 1.3001842 -2.553473 0.78802097 0.19971217 0.58235556 0.505415 0.671726
1.9569023 1.0906668 -2.507101 -0.19831446 0.96925014 0.14568941 0.513424 0.887241
1.9782612 1.6629286 -2.605509 -0.4287375 -0.70809263 -0.5610606 0.708629 0.37394297
1.6685255 1.4796429 -2.541555 0.3662027 -0.47121325 0.8024049 0.526299 0.549057
1.7491534 1.1592484 -2.5645661 0.51489115 0.6971295 0.4988963 0.508147 0.781534
1.7872903 1.1141834 -2.525913 0.31782004 0.84413713 0.43176726 0.495454 0.81053
2.0182602 1.1189518 -2.5405812 -0.28541705 0.9325583 0.22107023 0.53621 0.906009
2.0182602 1.1189518 -2.5405812 -0.5973315 0.8015631 0.026298648 0.66514 0.102675974
1.8723085 1.0891066 -2.5068932 0.049564127 0.95814997 0.28194362 0.503835 0.854602
1.7448633 1.567831 -2.603736 0.72527504 -0.31940788 -0.60988086 0.657765 0.518571
2.0758703 1.5578566 -2.590129 -0.8436504 -0.49944293 -0.19700412 0.70657 0.30102903
2.1155136 1.4892311 -2.647474 -0.957628 -0.274036 -0.08861592 0.722593 0.26184702
1.6955311 1.4308538 -2.586543 0.7776791 -0.49026394 0.39351812 0.573421 0.586908
1.9112356 1.7185516 -2.630899 -0.10551459 -0.6348289 -0.7654142 0.727501 0.419506
1.7206233 1.4816151 -2.6063452 0.8379416 -0.3135921 -0.4466698 0.613941 0.569558
1.7240913 1.2472849 -2.639985 0.7288543 0.51251113 0.45398644 0.553464 0.73535097
2.0767715 1.1620817 -2.567061 -0.7338169 0.6712237 0.10474483 0.678951 0.130153
1.9716394 1.7494802 -2.6828542 -0.50359005 -0.61933583 -0.6023456 0.762516 0.39442003
1.8410094 1.7242079 -2.6453362 0.28918594 -0.6003232 -0.7456431 0.729804 0.455128
2.0635636 1.603982 -2.6501 -0.8056622 -0.51604116 -0.2908778 0.734225 0.32518
1.8970306 1.7682924 -2.6704812 -0.04616866 -0.6861562 -0.7259877 0.759653 0.428209
2.0435555 1.6792603 -2.7071261 -0.79155535 -0.49134797 -0.3633419 0.763367 0.35388303
1.7615492 1.7248535 -2.692306 0.5324261 -0.49735838 -0.6849504 0.747182 0.490825
1.7131832 1.5740252 -2.655838 0.82731205 -0.28714296 -0.48280805 0.681134 0.541537
1.6956875 1.504035 -2.65232 0.8945323 -0.13752042 -0.42532337 0.651272 0.578953
2.1385753 1.3777075 -2.630693 -0.99436647 -0.07545828 0.07443994 0.712844 0.22145301
1.6719983 1.3437471 -2.607489 0.86429846 0.047888484 0.5006944 0.556637 0.664691
1.8312886 1.1274843 -2.584752 0.258445 0.86373365 0.4326319 0.528709 0.82223403
1.8364084 1.7905035 -2.705974 0.24741325 -0.69109863 -0.6790945 0.771272 0.454857
1.7076643 1.6241655 -2.692415 0.77956253 -0.2630973 -0.56838536 0.708675 0.541312
2.1406143 1.3099642 -2.629177 -0.97675264 0.19602829 0.08675997 0.707671 0.19327998
2.0364382 1.1470976 -2.623764 -0.6563268 0.69351155 0.29711422 0.699774 0.11185199
1.9137123 1.8238163 -2.733536 -0.16203545 -0.75245035 -0.6384065 0.789782 0.42294902
1.6860945 1.3985071 -2.6680312 0.99837494 0.05350135 -0.019622935 0.608378 0.652037
2.1048496 1.2299528 -2.635035 -0.84888464 0.4720918 0.2377483 0.709903 0.15916097
1.7868683 1.1660318 -2.61518 0.4843327 0.7083111 0.51353407 0.538384 0.795313
1.9848235 1.7968016 -2.748557 -0.6237963 -0.62701404 -0.46661732 0.792499 0.38974398
1.7711623 1.7961597 -2.746554 0.4744385 -0.6556516 -0.58739173 0.787144 0.484994
2.0295293 1.7429905 -2.7689 -0.8405416 -0.4810241 -0.24921001 0.796475 0.361597
1.6948144 1.6839361 -2.7314281 0.77419823 -0.3103177 -0.55165195 0.745673 0.533479
2.1045945 1.5763893 -2.757749 -0.9372421 -0.32859504 -0.11663007 0.779472 0.29306
1.8432782 1.1729212 -2.671383 0.29860407 0.81930023 0.48947185 0.571101 0.814213
1.8164766 1.8572321 -2.7899232 0.34237036 -0.7108625 -0.61437523 0.818195 0.46484798
2.1205142 1.3885994 -2.712907 -0.9742247 0.14390309 0.17371893 0.744169 0.21809
2.1179893 1.3087721 -2.691886 -0.8684117 0.24099264 0.43334004 0.732391 0.18645298
1.9968956 1.145709 -2.6682582 -0.20633283 0.8609819 0.46490517 0.586445 0.881606
1.9421194 1.120388 -2.605897 -0.015980761 0.93053037 0.36586598 0.55235 0.867877
2.0364382 1.1470976 -2.623764 -0.3078565 0.9072035 0.28671598 0.570858 0.901574
1.9506252 1.8631687 -2.8112502 -0.532968 -0.7372196 -0.415274 0.820051 0.41341698
1.7183244 1.7504349 -2.751041 0.6904131 -0.51119095 -0.51187253 0.77575 0.512697
1.6751583 1.5123892 -2.715591 0.9518482 -0.048493225 -0.30271024 0.685866 0.604114
1.7883313 1.2147446 -2.698863 0.5413111 0.7506663 0.37879077 0.586442 0.782502
1.7663834 1.2648573 -2.7379541 0.58684444 0.63609594 0.50099444 0.617847 0.751192
1.6707962 1.7011442 -2.795023 0.8845185 -0.31805912 -0.3412703 0.776076 0.55476
1.6618435 1.600666 -2.760723 0.92068475 -0.100875854 -0.37704596 0.732523 0.580976
2.0745184 1.6673384 -2.814044 -0.91379684 -0.405124 -0.029153273 0.809064 0.32207602
1.8258612 1.2190905 -2.735721 0.3186814 0.7383202 0.5944119 0.607216 0.800206
1.9509861 1.1712723 -2.705042 0.012513825 0.7863364 0.6176718 0.601965 0.854213
2.0326355 1.1875639 -2.6995902 -0.31800857 0.6709937 0.66980445 0.611771 0.892066
2.0326355 1.1875639 -2.6995902 -0.6985963 0.6025985 0.38579574 0.739093 0.128349
1.7230742 1.7980413 -2.8074322 0.68585676 -0.587252 -0.42980877 0.806492 0.513965
2.1295054 1.4597769 -2.7594151 -0.99966687 -0.0033469372 -0.025589872 0.765139 0.24522
1.6746643 1.4221497 -2.7519932 0.96978295 0.24323979 -0.01885274 0.673665 0.659307
1.7072775 1.3377686 -2.7386012 0.8528818 0.47056124 0.22619615 0.637446 0.698627
1.8829405 1.8960857 -2.811517 -0.09373157 -0.7992256 -0.59367734 0.835284 0.44360697
2.0078804 1.8031654 -2.8217149 -0.8449664 -0.5003411 -0.18891959 0.822027 0.38180202
2.0684092 1.2483721 -2.724643 -0.7591762 0.44241595 0.47740924 0.750994 0.15552402
1.8961694 1.2175512 -2.752211 0.069047935 0.7340515 0.6755744 0.623667 0.825365
1.9853733 1.8520098 -2.858965 -0.75514215 -0.6259341 -0.19485074 0.840682 0.39911598
1.6562746 1.4943199 -2.7946072 0.9783255 0.16416223 -0.12621452 0.715091 0.64144003
2.1120775 1.3808527 -2.7752252 -0.90072787 0.4275051 0.0769972 0.766574 0.21478999
2.0576146 1.3069601 -2.76864 -0.7550406 0.5414649 0.36976966 0.770335 0.17621303
1.8844182 1.9355564 -2.883028 -0.26614138 -0.8888261 -0.37303743 0.864125 0.447689
1.6372755 1.6036444 -2.8439531 0.95848155 -0.03420404 -0.28309554 0.764155 0.602438
1.7576082 1.3210506 -2.803584 0.55822456 0.7040124 0.43903527 0.659625 0.739762
1.8252022 1.923543 -2.860923 0.27539474 -0.81828034 -0.50455433 0.855441 0.46718
1.7442272 1.8723421 -2.874353 0.62306535 -0.63602215 -0.4552639 0.84165 0.506063
1.6589901 1.75531 -2.8863401 0.8557018 -0.38529304 -0.34543255 0.818928 0.555672
2.0421875 1.7239857 -2.886094 -0.95250493 -0.28999698 0.09293044 0.849782 0.348495
2.0817654 1.3430958 -2.819109 -0.71428037 0.6451873 0.27117702 0.786385 0.19331598
1.9903176 1.2310648 -2.754466 -0.2600942 0.6024712 0.75457233 0.637337 0.863482
2.0684092 1.2483721 -2.724643 -0.40294096 0.5183201 0.7543095 0.639353 0.901769
2.0576146 1.3069601 -2.76864 -0.4056566 0.65819323 0.63421166 0.666232 0.893619
1.8431814 1.2697268 -2.79503 0.24864064 0.76193035 0.59803003 0.650539 0.786904
1.9483783 1.905406 -2.9302912 -0.6816157 -0.70889 -0.18131426 0.873223 0.421313
2.1268604 1.5014687 -2.828304 -0.97911036 -0.096511595 0.17896494 0.796327 0.25568599
2.1192272 1.4138479 -2.828714 -0.91996926 0.28042498 0.27389476 0.789041 0.22447997
1.6916444 1.3948679 -2.8064532 0.8391962 0.50122356 0.21100865 0.683836 0.6946
1.9470184 1.2689056 -2.7975821 -0.1580219 0.7900948 0.59226614 0.658506 0.841473
2.1033752 1.577054 -2.860531 -0.9344682 -0.23581068 0.2667628 0.816825 0.27969003
1.6595614 1.470623 -2.8666182 0.90012825 0.43555325 -0.0078991 0.735809 0.66980803
1.8021514 1.9540024 -2.9395962 0.32566208 -0.8574336 -0.39843687 0.876977 0.475798
2.0127242 1.8155928 -2.927291 -0.90109956 -0.43106112 -0.04696715 0.867666 0.38101602
1.7390354 1.3714457 -2.8733082 0.5912386 0.71906376 0.3652179 0.697927 0.737111
1.8420913 1.3186483 -2.87224 0.21086957 0.7981732 0.5643168 0.691786 0.79651403
1.9201043 1.2899504 -2.8458142 -0.016685486 0.8513849 0.5242761 0.679621 0.829669
2.0082853 1.3050671 -2.840469 -0.27164903 0.88529605 0.3774357 0.688153 0.86472
2.0082853 1.3050671 -2.840469 -0.44275 0.7614686 0.47343224 0.805255 0.16316998
2.0712316 1.6447935 -2.8893151 -0.8415306 -0.31317776 0.4401657 0.840044 0.30952197
1.8810556 1.9665108 -2.966549 -0.23720372 -0.9139847 -0.32919058 0.888611 0.447383
1.6897333 1.8789492 -2.974905 0.739702 -0.5566091 -0.37818956 0.867487 0.52718997
2.0972822 1.4673338 -2.8951511 -0.8136384 0.10886392 0.5710878 0.819168 0.23827702
1.6226776 1.5559292 -2.902261 0.9553887 0.20058277 -0.21679236 0.777119 0.635484
2.0654032 1.3621559 -2.8760362 -0.6136535 0.58038175 0.5353377 0.807717 0.19815898
1.6122935 1.7435417 -3.00635 0.9097864 -0.303474 -0.28318244 0.85945 0.58451104
1.6127522 1.6503668 -2.930125 0.9558093 -0.103382684 -0.27521 0.817679 0.601383
2.0713165 1.5618906 -2.9222932 -0.70174545 -0.12154955 0.70198214 0.840898 0.27232897
1.6926663 1.4370203 -2.931535 0.64272124 0.7146523 0.27600998 0.75018 0.70998
2.0388253 1.7167177 -2.973422 -0.9998512 0.0058086724 0.016244074 0.881548 0.335419
2.0324023 1.6217556 -2.937113 -0.7474876 -0.031925946 0.6635081 0.864544 0.29668498
1.7999585 1.3550329 -2.91224 0.27049485 0.76880366 0.57945967 0.71799 0.771605
1.7646902 1.3994951 -2.942029 0.2947739 0.7319191 0.6143312 0.746423 0.747312
1.9661243 1.3346167 -2.902759 -0.03244996 0.79044116 0.6116779 0.712107 0.846321
2.0325754 1.7721605 -3.0151172 -0.97050756 -0.23993368 -0.023384897 0.902089 0.353271
2.0279791 1.6594219 -2.958313 -0.966202 0.19034493 0.17384614 0.875922 0.310279
1.6156065 1.5622978 -2.9632201 0.95430374 0.29750592 -0.028187683 0.806011 0.653076
1.6426914 1.4956303 -2.9307451 0.8636516 0.50047576 0.060249012 0.774285 0.678383
2.0417092 1.3956938 -2.925994 -0.5051597 0.43757284 0.74387085 0.830164 0.205764
1.9661243 1.3346167 -2.902759 -0.23859778 0.6638268 0.7088054 0.835556 0.16622299
2.0135891 1.5336924 -2.9557352 -0.35639948 -0.041226357 0.9334237 0.860263 0.250848
1.9922044 1.5639744 -2.9605489 -0.5607375 0.15679526 0.8130122 0.87839 0.25717902
2.0402033 1.4676371 -2.947474 -0.47066134 0.10263918 0.87632364 0.842156 0.230959
2.0096853 1.6086063 -3.01543 -0.87708193 0.47868183 0.039887033 0.905199 0.286838
1.9821422 1.5756235 -2.980898 -0.8090074 0.52925295 0.25573105 0.889955 0.26338297
1.7314532 1.451127 -2.996474 0.26383543 0.8256511 0.49868932 0.789338 0.73814404
1.8716075 1.3852615 -2.945949 0.016927004 0.64456916 0.7643587 0.738909 0.803077
1.9921682 1.85989 -3.0350242 -0.86298877 -0.5034458 -0.042342138 0.914221 0.393274
2.0341833 1.680645 -3.043807 -0.97207826 0.2329218 0.028484248 0.912933 0.311961
1.5973094 1.6351242 -2.999127 0.986504 0.048953574 -0.15624756 0.838812 0.627404
1.9473603 1.5128479 -2.973673 -0.41960612 0.26516688 0.86811125 0.891474 0.22776997
1.9807966 1.3988409 -2.950412 -0.17542674 0.4143563 0.89304787 0.854032 0.197133
1.8716075 1.3852615 -2.945949 -0.055556692 0.44486114 0.8938747 0.885907 0.168149
1.9632075 1.546483 -3.016462 -0.7090694 0.7034637 0.0485754 0.913243 0.255643
1.6197894 1.5581713 -3.029792 0.8738238 0.47181457 0.117570765 0.833102 0.668399
1.8981764 1.5004101 -3.005206 -0.59842014 0.6611076 0.45258155 0.912282 0.215357
1.8843625 1.4561052 -2.9760451 -0.2245622 0.51857376 0.82501704 0.772112 0.80391
1.8981764 1.5004101 -3.005206 -0.34129542 0.69384426 0.6341116 0.79061 0.81768
1.8142903 1.4415894 -2.985994 -0.0994358 0.7165005 0.6904633 0.773533 0.77334297
1.8843625 1.4561052 -2.9760451 -0.23228492 0.39180523 0.89024293 0.905043 0.19469202
1.9573843 1.4552317 -2.9662461 -0.15856732 0.17602153 0.97153115 0.871132 0.21202898
1.6600025 1.4915066 -2.988842 0.7025908 0.661697 0.26176965 0.798236 0.70244896
1.8123653 1.4789677 -3.0492039 -0.1622329 0.84307146 0.5127484 0.809551 0.785043
1.6928046 1.4934607 -3.059467 0.44267 0.80732125 0.39022514 0.827663 0.721865
1.9316652 1.5275221 -3.049385 -0.64717907 0.7499174 0.13705143 0.930639 0.23966497
1.9847386 1.588995 -3.073832 -0.794718 0.5903177 0.14123842 0.92987 0.274534
3 0 1 2
3 3 2 1
3 4 3 1
3 1 5 4
3 3 4 6
3 7 8 0
3 0 9 1
3 10 0 8
3 11 9 0
3 9 5 1
3 12 4 5
3 13 6 4
3 11 0 10
3 9 14 5
3 13 4 12
3 11 15 9
3 16 14 9
3 6 13 17
3 8 18 10
3 19 11 10
3 15 16 9
3 5 14 12
3 20 12 14
3 13 12 21
3 22 18 8
3 23 20 14
3 10 18 24
3 19 10 24
3 25 11 19
3 26 25 19
3 25 15 11
3 21 12 20
3 27 19 24
3 24 18 28
3 19 27 26
3 29 25 26
3 30 25 29
3 30 15 25
3 31 16 15
3 31 32 16
3 32 14 16
3 23 14 32
3 33 34 35
3 18 36 28
3 34 37 35
3 27 38 26
3 38 29 26
3 22 36 18
3 31 15 30
3 23 32 39
3 40 41 34
3 40 42 41
3 43 44 22
3 36 22 44
3 39 32 45
3 41 37 34
3 27 46 38
3 36 44 47
3 48 32 31
3 28 49 24
3 24 46 27
3 50 46 24
3 51 28 36
3 51 36 47
3 52 30 29
3 49 50 24
3 53 38 46
3 53 29 38
3 45 32 48
3 41 42 54
3 55 56 35
3 37 55 35
3 53 46 57
3 53 52 29
3 52 58 30
3 44 43 47
3 58 31 30
3 59 45 48
3 60 39 45
3 61 55 37
3 51 49 28
3 62 31 58
3 62 48 31
3 63 54 42
3 63 42 64
3 41 65 37
3 53 66 52
3 67 68 58
3 68 62 58
3 62 59 48
3 37 65 61
3 50 57 46
3 66 53 57
3 69 58 52
3 60 45 59
3 50 49 70
3 69 67 58
3 47 43 71
3 72 59 62
3 73 41 54
3 50 70 74
3 74 57 50
3 47 75 51
3 76 68 67
3 77 68 76
3 68 72 62
3 78 79 55
3 61 78 55
3 63 64 80
3 65 41 73
3 81 52 66
3 51 70 49
3 75 82 51
3 75 47 83
3 71 83 47
3 84 76 67
3 59 85 60
3 59 72 85
3 86 61 65
3 73 54 87
3 87 54 63
3 57 74 88
3 88 89 57
3 89 66 57
3 82 70 51
3 84 67 69
3 77 72 68
3 61 86 90
3 91 92 63
3 91 63 80
3 89 81 66
3 93 84 69
3 94 77 76
3 77 95 72
3 96 85 72
3 96 72 95
3 78 97 79
3 90 78 61
3 87 63 92
3 70 98 74
3 69 52 81
3 99 94 76
3 73 100 65
3 92 101 87
3 102 69 81
3 103 98 70
3 70 82 103
3 69 104 93
3 76 84 99
3 105 97 78
3 105 106 97
3 90 105 78
3 107 91 80
3 108 82 75
3 99 84 93
3 83 108 75
3 86 109 90
3 65 100 86
3 110 88 74
3 111 81 89
3 88 112 89
3 113 111 89
3 104 69 102
3 89 112 113
3 114 99 93
3 100 109 86
3 115 100 73
3 87 115 73
3 91 116 92
3 117 102 81
3 111 117 81
3 74 98 110
3 103 118 98
3 108 103 82
3 119 83 120
3 99 121 94
3 95 77 94
3 106 105 122
3 105 90 109
3 123 91 107
3 119 124 83
3 125 95 94
3 126 109 100
3 123 107 127
3 115 87 101
3 91 123 116
3 128 104 102
3 129 110 98
3 110 130 88
3 112 88 130
3 112 130 131
3 104 132 93
3 131 113 112
3 83 124 108
3 121 99 114
3 101 92 116
3 133 132 104
3 118 129 98
3 93 132 134
3 134 114 93
3 135 103 108
3 136 124 119
3 136 119 122
3 137 94 121
3 137 125 94
3 122 105 136
3 125 138 95
3 115 126 100
3 139 123 127
3 140 117 111
3 130 110 129
3 141 129 118
3 135 118 103
3 109 136 105
3 137 138 125
3 139 127 142
3 101 143 115
3 133 104 128
3 144 111 113
3 113 131 145
3 135 141 118
3 146 121 114
3 108 147 135
3 124 147 108
3 136 147 124
3 126 136 109
3 101 116 143
3 123 148 116
3 128 102 117
3 131 130 149
3 146 114 134
3 150 121 146
3 150 151 121
3 151 137 121
3 139 148 123
3 117 152 128
3 152 133 128
3 140 111 144
3 149 130 129
3 149 129 141
3 149 145 131
3 153 147 136
3 126 154 136
3 155 138 137
3 143 156 115
3 132 133 157
3 144 113 158
3 158 113 145
3 154 126 156
3 156 126 115
3 148 143 116
3 159 140 144
3 160 132 157
3 132 160 134
3 135 161 141
3 147 161 135
3 153 161 147
3 139 142 162
3 143 163 156
3 143 148 163
3 140 152 117
3 164 150 146
3 155 137 165
3 137 151 165
3 166 162 142
3 167 163 148
3 167 148 139
3 168 167 139
3 162 168 139
3 152 169 133
3 133 170 157
3 145 149 171
3 164 146 134
3 161 171 149
3 161 149 141
3 169 170 133
3 172 157 170
3 173 159 144
3 173 144 158
3 172 160 157
3 161 153 171
3 136 174 153
3 136 154 174
3 175 162 166
3 176 163 167
3 140 177 152
3 177 169 152
3 178 179 172
3 145 180 158
3 181 134 160
3 171 180 145
3 164 134 181
3 171 153 182
3 183 150 164
3 153 174 182
3 151 150 183
3 151 184 165
3 156 163 154
3 175 168 162
3 159 177 140
3 177 185 169
3 169 186 170
3 170 186 178
3 170 178 172
3 172 187 160
3 179 187 172
3 187 188 160
3 158 180 173
3 181 160 188
3 184 151 183
3 189 176 167
3 168 189 167
3 179 178 190
3 171 191 180
3 182 191 171
3 163 174 154
3 192 174 163
3 192 163 176
3 193 175 166
3 194 193 166
3 185 186 169
3 195 177 159
3 185 177 195
3 196 197 178
3 190 178 197
3 198 183 164
3 199 193 194
3 186 185 196
3 196 178 186
3 190 200 179
3 179 201 187
3 195 159 173
3 202 188 187
3 201 202 187
3 182 203 191
3 174 203 182
3 165 184 204
3 200 201 179
3 196 205 197
3 180 206 173
3 173 206 195
3 191 206 180
3 198 164 181
3 183 198 207
3 174 192 203
3 208 209 200
3 210 196 185
3 190 208 200
3 205 196 210
3 206 211 195
3 212 181 188
3 213 183 207
3 184 183 213
3 176 214 192
3 214 215 192
3 176 216 214
3 176 189 216
3 217 209 208
3 208 190 217
3 191 218 211
3 191 211 206
3 198 181 212
3 192 215 203
3 184 213 204
3 209 219 200
3 220 219 209
3 221 202 201
3 210 185 195
3 197 217 190
3 222 217 197
3 197 205 222
3 191 223 218
3 224 193 199
3 219 225 200
3 200 225 201
3 225 221 201
3 226 195 211
3 195 226 210
3 191 203 223
3 215 214 227
3 227 214 228
3 228 214 216
3 229 224 199
3 204 213 230
3 224 231 193
3 232 220 209
3 232 209 217
3 210 226 205
3 202 233 188
3 188 233 234
3 234 212 188
3 211 218 226
3 226 235 205
3 235 222 205
3 203 215 223
3 231 228 216
3 236 225 219
3 221 233 202
3 237 232 217
3 222 237 217
3 226 218 235
3 223 215 238
3 207 239 213
3 239 230 213
3 225 236 240
3 220 241 219
3 225 242 221
3 235 237 222
3 215 227 238
3 240 236 243
3 236 241 243
3 240 244 225
3 219 241 236
3 244 242 225
3 220 245 241
3 220 232 246
3 247 232 237
3 212 234 248
3 218 223 249
3 235 218 249
3 248 198 212
3 228 250 227
3 251 241 245
3 241 251 243
3 220 252 245
3 220 246 252
3 242 233 221
3 247 246 232
3 234 233 242
3 253 198 248
3 230 239 254
3 251 255 243
3 255 240 243
3 235 256 237
3 249 256 235
3 238 249 223
3 257 198 253
3 257 207 198
3 258 238 227
3 255 259 240
3 260 251 245
3 261 240 259
3 244 240 261
3 245 252 262
3 263 234 242
3 237 256 247
3 239 207 257
3 264 238 258
3 250 264 258
3 255 251 265
3 263 242 244
3 266 248 234
3 267 253 248
3 267 257 253
3 268 269 270
3 255 271 259
3 260 245 272
3 262 272 245
3 273 246 247
3 247 256 273
3 238 256 249
3 274 238 264
3 274 275 238
3 254 239 257
3 265 251 260
3 272 262 276
3 252 277 262
3 278 263 244
3 273 252 246
3 267 248 266
3 264 279 274
3 269 280 264
3 269 268 280
3 270 281 268
3 254 257 282
3 264 250 269
3 283 260 272
3 277 276 262
3 278 244 261
3 252 273 277
3 284 234 263
3 266 234 284
3 256 285 273
3 256 238 286
3 238 275 286
3 265 287 255
3 287 271 255
3 271 288 259
3 256 286 285
3 289 282 257
3 289 257 267
3 264 290 279
3 280 290 264
3 291 288 271
3 283 272 276
3 261 259 288
3 292 277 273
3 284 293 266
3 266 294 267
3 268 281 280
3 265 260 283
3 295 271 287
3 277 296 276
3 285 292 273
3 294 266 293
3 275 297 286
3 289 267 294
3 287 265 298
3 299 298 265
3 265 283 299
3 300 283 276
3 301 278 261
3 292 296 277
3 294 293 302
3 303 304 305
3 279 306 275
3 279 290 306
3 281 303 280
3 303 281 304
3 295 307 271
3 307 291 271
3 283 300 299
3 288 301 261
3 308 284 263
3 309 284 308
3 292 285 310
3 309 293 284
3 310 285 286
3 306 297 275
3 311 303 305
3 306 290 311
3 311 290 303
3 290 280 303
3 295 287 298
3 312 308 263
3 292 313 296
3 286 297 310
3 298 299 314
3 288 291 315
3 301 288 315
3 276 296 300
3 263 278 312
3 292 310 313
3 310 297 316
3 302 293 309
3 317 297 306
3 318 306 311
3 318 317 306
3 319 311 305
3 319 318 311
3 320 294 302
3 307 315 291
3 278 321 312
3 313 310 316
3 298 314 295
3 314 322 295
3 314 299 323
3 300 323 299
3 301 321 278
3 324 308 312
3 313 325 296
3 309 308 324
3 324 326 309
3 302 309 326
3 317 316 297
3 320 302 326
3 322 307 295
3 327 323 300
3 300 328 327
3 328 300 296
3 325 328 296
3 329 312 321
3 313 316 330
3 331 301 315
3 301 332 321
3 332 329 321
3 333 334 316
3 335 317 318
3 319 335 318
3 336 331 315
3 337 301 331
3 301 337 332
3 325 338 328
3 339 338 325
3 312 329 324
3 313 339 325
3 330 339 313
3 334 330 316
3 324 340 326
3 316 317 333
3 326 341 320
3 342 332 343
3 329 332 342
3 324 344 340
3 345 337 331
3 337 346 332
3 332 346 343
3 329 342 344
3 344 324 329
3 334 347 330
3 317 348 333
3 317 335 348
3 340 341 326
3 307 349 315
3 349 336 315
3 350 331 336
3 327 328 351
3 351 328 338
3 345 346 337
3 343 346 352
3 342 343 352
3 353 340 344
3 333 348 334
3 341 353 354
3 341 340 353
3 350 345 331
3 345 355 346
3 356 351 338
3 352 346 357
3 358 359 360
3 361 352 357
3 362 342 352
3 362 344 342
3 363 339 330
3 347 363 330
3 361 362 352
3 362 353 344
3 347 334 360
3 348 358 360
3 360 334 348
3 357 346 355
3 354 362 361
3 353 362 354
3 360 359 364
3 356 363 365
3 355 366 357
3 363 347 365
3 364 347 360
3 350 367 345
3 367 366 345
3 345 366 355
3 347 364 365
3 175 189 168
3 231 175 193
3 231 216 175
3 216 189 175
3 229 269 224
3 270 269 229
3 258 227 250
3 269 231 224
3 250 231 269
3 250 228 231
3 274 279 275
3 356 338 363
3 338 339 363
